<svg width="40" height="41" viewBox="0 0 40 41" fill="none" xmlns="http://www.w3.org/2000/svg">
<rect x="0.2" y="1.16338" width="39.6" height="39.6" rx="4.8" fill="#AEA1F7" stroke="#1A1A1A" stroke-width="0.4"/>
<path d="M23 13.4634H17L14.75 10.1353C14.4219 9.6665 14.7969 8.96338 15.3594 8.96338H24.5938C25.1562 8.96338 25.5312 9.6665 25.2031 10.1353L23 13.4634ZM17 14.9634H23C23.1406 15.104 23.375 15.2446 23.5625 15.3853C26.2344 17.0728 32 20.729 32 28.4634C32 30.9478 29.9844 32.9634 27.5 32.9634H12.5C9.96875 32.9634 8 30.9478 8 28.4634C8 20.729 13.7188 17.0728 16.3906 15.3853C16.5781 15.2446 16.8125 15.104 17 14.9634ZM20.9375 19.4634C20.9375 18.9478 20.5156 18.5259 19.9531 18.5259C19.4375 18.5259 19.0156 18.9478 19.0156 19.4634V19.7446C18.7812 19.8384 18.5 19.8853 18.3125 20.0259C17.6094 20.3071 17 20.9165 16.8125 21.7603C16.7656 22.229 16.8125 22.6978 17 23.1196C17.1875 23.5415 17.5156 23.8228 17.7969 24.0571C18.3594 24.4321 19.0625 24.6196 19.625 24.8071H19.7188C20.375 25.0415 20.7969 25.1821 21.0781 25.3696C21.2188 25.4634 21.2656 25.5103 21.2656 25.5571C21.2656 25.604 21.3125 25.6978 21.2656 25.8853C21.2656 26.0259 21.1719 26.1665 20.8906 26.3071C20.6094 26.4009 20.1406 26.4478 19.5312 26.354C19.25 26.3071 18.7812 26.1665 18.3125 26.0259C18.2188 25.979 18.125 25.9321 18.0312 25.8853C17.5156 25.7446 17 26.0259 16.8594 26.4946C16.6719 27.0103 16.9531 27.5259 17.4219 27.6665C17.4688 27.7134 17.5625 27.7134 17.6562 27.7603C17.9844 27.9009 18.5938 28.0884 19.0156 28.1821V28.4634C19.0156 29.0259 19.4375 29.4478 19.9531 29.4478C20.5156 29.4478 20.9375 29.0259 20.9375 28.4634V28.229C21.1719 28.1821 21.4062 28.0884 21.6406 27.9946C22.3906 27.7134 22.9531 27.104 23.1406 26.2134C23.1875 25.6978 23.1875 25.229 23 24.8071C22.8125 24.3853 22.4844 24.104 22.2031 23.8696C21.6406 23.4478 20.8438 23.2134 20.2812 23.0259H20.2344C19.5781 22.8384 19.1562 22.6978 18.875 22.5103C18.7344 22.4165 18.6875 22.3696 18.6875 22.3228C18.6875 22.3228 18.6406 22.2759 18.6875 22.0884C18.6875 21.9946 18.7812 21.854 19.0625 21.7134C19.3438 21.5728 19.8125 21.5259 20.4219 21.5728C20.6094 21.6196 21.2656 21.7603 21.4062 21.8071C21.9219 21.9478 22.4375 21.6196 22.5781 21.1509C22.7188 20.6353 22.3906 20.1196 21.9219 19.979C21.6875 19.9321 21.2188 19.8384 20.9375 19.7915V19.4634Z" fill="white"/>
<path d="M23 13.4634V13.8634H23.2149L23.3335 13.6842L23 13.4634ZM17 13.4634L16.6686 13.6874L16.7876 13.8634H17V13.4634ZM14.75 10.1353L15.0814 9.91119L15.0777 9.90587L14.75 10.1353ZM25.2031 10.1353L24.8753 9.90579L24.8696 9.91446L25.2031 10.1353ZM17 14.9634V14.5634H16.8667L16.76 14.6434L17 14.9634ZM23 14.9634L23.2828 14.6805L23.1657 14.5634H23V14.9634ZM23.5625 15.3853L23.3225 15.7053L23.3353 15.7149L23.3489 15.7234L23.5625 15.3853ZM16.3906 15.3853L16.6042 15.7234L16.6178 15.7149L16.6306 15.7053L16.3906 15.3853ZM19.0156 19.7446L19.1642 20.116L19.4156 20.0154V19.7446H19.0156ZM18.3125 20.0259L18.4611 20.3973L18.5102 20.3776L18.5525 20.3459L18.3125 20.0259ZM16.8125 21.7603L16.422 21.6735L16.4169 21.6967L16.4145 21.7205L16.8125 21.7603ZM17.7969 24.0571L17.5408 24.3644L17.5572 24.3781L17.575 24.3899L17.7969 24.0571ZM19.625 24.8071L19.4985 25.1866L19.5601 25.2071H19.625V24.8071ZM19.7188 24.8071L19.8533 24.4304L19.788 24.4071H19.7188V24.8071ZM21.2656 25.8853L20.8776 25.7882L20.8656 25.836V25.8853H21.2656ZM20.8906 26.3071L21.0171 26.6866L21.0441 26.6776L21.0695 26.6649L20.8906 26.3071ZM19.5312 26.354L19.4655 26.7486L19.4704 26.7494L19.5312 26.354ZM18.3125 26.0259L18.1336 26.3836L18.1645 26.3991L18.1976 26.409L18.3125 26.0259ZM18.0312 25.8853L18.2101 25.5275L18.1747 25.5098L18.1365 25.4993L18.0312 25.8853ZM16.8594 26.4946L17.2353 26.6313L17.2392 26.6206L17.2425 26.6096L16.8594 26.4946ZM17.4219 27.6665L17.7047 27.3837L17.6334 27.3124L17.5368 27.2834L17.4219 27.6665ZM17.6562 27.7603L17.4774 28.118L17.4879 28.1233L17.4987 28.1279L17.6562 27.7603ZM19.0156 28.1821H19.4156V27.8613L19.1024 27.7917L19.0156 28.1821ZM20.9375 28.229L20.8591 27.8368L20.5375 27.9011V28.229H20.9375ZM21.6406 27.9946L21.5001 27.62L21.4921 27.6232L21.6406 27.9946ZM23.1406 26.2134L23.532 26.2958L23.5369 26.2729L23.539 26.2496L23.1406 26.2134ZM22.2031 23.8696L22.4592 23.5623L22.4513 23.5558L22.4431 23.5496L22.2031 23.8696ZM20.2812 23.0259L20.4077 22.6464L20.3462 22.6259H20.2812V23.0259ZM20.2344 23.0259L20.1245 23.4105L20.1784 23.4259H20.2344V23.0259ZM18.6875 22.3228H19.0875V22.1571L18.9703 22.0399L18.6875 22.3228ZM18.6875 22.0884L19.0756 22.1854L19.0875 22.1376V22.0884H18.6875ZM20.4219 21.5728L20.5189 21.1847L20.4862 21.1765L20.4526 21.1739L20.4219 21.5728ZM21.4062 21.8071L21.2798 22.1866L21.2903 22.1901L21.301 22.193L21.4062 21.8071ZM22.5781 21.1509L22.9614 21.2659L22.964 21.2561L22.5781 21.1509ZM21.9219 19.979L22.0368 19.5959L22.0188 19.5905L22.0003 19.5868L21.9219 19.979ZM20.9375 19.7915H20.5375V20.1304L20.8717 20.1861L20.9375 19.7915ZM23 13.0634H17V13.8634H23V13.0634ZM17.3314 13.2393L15.0814 9.91122L14.4186 10.3593L16.6686 13.6874L17.3314 13.2393ZM15.0777 9.90587C15.0156 9.81718 15.0072 9.68832 15.0749 9.55947C15.1431 9.42954 15.2552 9.36338 15.3594 9.36338V8.56338C14.9011 8.56338 14.5444 8.84878 14.3665 9.1876C14.1881 9.5275 14.1563 9.98458 14.4223 10.3646L15.0777 9.90587ZM15.3594 9.36338H24.5938V8.56338H15.3594V9.36338ZM24.5938 9.36338C24.698 9.36338 24.81 9.42954 24.8783 9.55947C24.9459 9.68832 24.9375 9.81718 24.8754 9.90587L25.5308 10.3646C25.7969 9.98458 25.765 9.5275 25.5866 9.1876C25.4087 8.84878 25.052 8.56338 24.5938 8.56338V9.36338ZM24.8696 9.91446L22.6665 13.2426L23.3335 13.6842L25.5367 10.356L24.8696 9.91446ZM17 15.3634H23V14.5634H17V15.3634ZM22.7172 15.2462C22.8137 15.3428 22.9322 15.4299 23.033 15.5011C23.1456 15.5806 23.2342 15.639 23.3225 15.7053L23.8025 15.0653C23.7033 14.9908 23.581 14.9087 23.4943 14.8475C23.3959 14.7781 23.3269 14.7246 23.2828 14.6805L22.7172 15.2462ZM23.3489 15.7234C26.0257 17.414 31.6 20.9652 31.6 28.4634H32.4C32.4 20.4928 26.4431 16.7315 23.7761 15.0471L23.3489 15.7234ZM31.6 28.4634C31.6 30.7268 29.7635 32.5634 27.5 32.5634V33.3634C30.2053 33.3634 32.4 31.1687 32.4 28.4634H31.6ZM27.5 32.5634H12.5V33.3634H27.5V32.5634ZM12.5 32.5634C10.1924 32.5634 8.4 30.7296 8.4 28.4634H7.6C7.6 31.1659 9.74512 33.3634 12.5 33.3634V32.5634ZM8.4 28.4634C8.4 20.964 13.9297 17.4126 16.6042 15.7234L16.177 15.0471C13.5078 16.7329 7.6 20.494 7.6 28.4634H8.4ZM16.6306 15.7053C16.7138 15.6428 16.8096 15.5788 16.9172 15.5071C17.0206 15.4382 17.1357 15.3616 17.24 15.2834L16.76 14.6434C16.6768 14.7058 16.581 14.7698 16.4734 14.8415C16.37 14.9104 16.2549 14.987 16.1506 15.0653L16.6306 15.7053ZM21.3375 19.4634C21.3375 18.7142 20.7236 18.1259 19.9531 18.1259V18.9259C20.3076 18.9259 20.5375 19.1813 20.5375 19.4634H21.3375ZM19.9531 18.1259C19.2166 18.1259 18.6156 18.7268 18.6156 19.4634H19.4156C19.4156 19.1687 19.6584 18.9259 19.9531 18.9259V18.1259ZM18.6156 19.4634V19.7446H19.4156V19.4634H18.6156ZM18.8671 19.3732C18.7627 19.415 18.674 19.4369 18.52 19.4882C18.3898 19.5316 18.2207 19.5948 18.0725 19.7059L18.5525 20.3459C18.5918 20.3164 18.6571 20.2858 18.773 20.2471C18.8651 20.2165 19.0341 20.168 19.1642 20.116L18.8671 19.3732ZM18.1639 19.6545C17.3544 19.9783 16.6418 20.6845 16.422 21.6735L17.203 21.847C17.3582 21.1485 17.8643 20.636 18.4611 20.3973L18.1639 19.6545ZM16.4145 21.7205C16.3625 22.2398 16.4121 22.7817 16.6345 23.2821L17.3655 22.9572C17.2129 22.6138 17.1687 22.2182 17.2105 21.8001L16.4145 21.7205ZM16.6345 23.2821C16.8641 23.7987 17.2624 24.1325 17.5408 24.3644L18.0529 23.7498C17.7688 23.5131 17.5109 23.2843 17.3655 22.9572L16.6345 23.2821ZM17.575 24.3899C18.1951 24.8033 18.9724 25.0112 19.4985 25.1866L19.7515 24.4277C19.1526 24.228 18.5237 24.0609 18.0188 23.7243L17.575 24.3899ZM19.625 25.2071H19.7188V24.4071H19.625V25.2071ZM19.5842 25.1838C20.2714 25.4292 20.6276 25.55 20.8562 25.7024L21.3 25.0368C20.9661 24.8142 20.4786 24.6538 19.8533 24.4304L19.5842 25.1838ZM20.8562 25.7024C20.8877 25.7234 20.9098 25.7391 20.9252 25.7507C20.9413 25.7629 20.9447 25.7668 20.9418 25.7638C20.9393 25.7614 20.9208 25.7428 20.9026 25.7084C20.8819 25.6693 20.8656 25.6173 20.8656 25.5571H21.6656C21.6656 25.3795 21.569 25.2597 21.5075 25.1981C21.4478 25.1385 21.3718 25.0847 21.3 25.0368L20.8562 25.7024ZM20.8656 25.5571C20.8656 25.5938 20.87 25.6242 20.8726 25.6404C20.8752 25.6569 20.8786 25.6732 20.88 25.6803C20.8836 25.6985 20.8848 25.7053 20.8856 25.7126C20.8866 25.7214 20.8887 25.7437 20.8776 25.7882L21.6537 25.9823C21.6894 25.8393 21.6915 25.721 21.6808 25.6243C21.6757 25.5789 21.6681 25.5418 21.6644 25.5234C21.6622 25.5121 21.6622 25.512 21.6625 25.5136C21.6627 25.515 21.6656 25.5322 21.6656 25.5571H20.8656ZM20.8656 25.8853C20.8656 25.8747 20.8676 25.8621 20.8721 25.8503C20.8763 25.8389 20.8801 25.8356 20.8763 25.8401C20.866 25.8525 20.825 25.8927 20.7117 25.9494L21.0695 26.6649C21.3983 26.5005 21.6656 26.2555 21.6656 25.8853H20.8656ZM20.7641 25.9277C20.5593 25.9959 20.1579 26.0457 19.5921 25.9587L19.4704 26.7494C20.1233 26.8498 20.6594 26.8058 21.0171 26.6866L20.7641 25.9277ZM19.597 25.9594C19.3473 25.9178 18.9092 25.7873 18.4274 25.6427L18.1976 26.409C18.6533 26.5457 19.1527 26.6964 19.4655 26.7486L19.597 25.9594ZM18.4914 25.6681C18.4912 25.668 18.491 25.6679 18.4908 25.6678C18.4907 25.6677 18.4905 25.6677 18.4903 25.6676C18.4901 25.6675 18.4899 25.6674 18.4897 25.6673C18.4896 25.6672 18.4894 25.6671 18.4892 25.667C18.489 25.6669 18.4888 25.6668 18.4886 25.6667C18.4885 25.6666 18.4883 25.6666 18.4881 25.6665C18.4879 25.6664 18.4877 25.6663 18.4875 25.6662C18.4874 25.6661 18.4872 25.666 18.487 25.6659C18.4868 25.6658 18.4866 25.6657 18.4864 25.6656C18.4863 25.6655 18.4861 25.6655 18.4859 25.6654C18.4857 25.6653 18.4855 25.6652 18.4853 25.6651C18.4852 25.665 18.485 25.6649 18.4848 25.6648C18.4846 25.6647 18.4844 25.6646 18.4842 25.6645C18.4841 25.6644 18.4839 25.6644 18.4837 25.6643C18.4835 25.6642 18.4833 25.6641 18.4831 25.664C18.483 25.6639 18.4828 25.6638 18.4826 25.6637C18.4824 25.6636 18.4822 25.6635 18.482 25.6634C18.4819 25.6633 18.4817 25.6633 18.4815 25.6632C18.4813 25.6631 18.4811 25.663 18.4809 25.6629C18.4808 25.6628 18.4806 25.6627 18.4804 25.6626C18.4802 25.6625 18.48 25.6624 18.4798 25.6623C18.4797 25.6622 18.4795 25.6622 18.4793 25.6621C18.4791 25.662 18.4789 25.6619 18.4788 25.6618C18.4786 25.6617 18.4784 25.6616 18.4782 25.6615C18.478 25.6614 18.4778 25.6613 18.4777 25.6612C18.4775 25.6612 18.4773 25.6611 18.4771 25.661C18.4769 25.6609 18.4767 25.6608 18.4766 25.6607C18.4764 25.6606 18.4762 25.6605 18.476 25.6604C18.4758 25.6603 18.4756 25.6602 18.4755 25.6601C18.4753 25.6601 18.4751 25.66 18.4749 25.6599C18.4747 25.6598 18.4745 25.6597 18.4744 25.6596C18.4742 25.6595 18.474 25.6594 18.4738 25.6593C18.4736 25.6592 18.4734 25.6591 18.4733 25.659C18.4731 25.659 18.4729 25.6589 18.4727 25.6588C18.4725 25.6587 18.4723 25.6586 18.4722 25.6585C18.472 25.6584 18.4718 25.6583 18.4716 25.6582C18.4714 25.6581 18.4712 25.658 18.4711 25.6579C18.4709 25.6579 18.4707 25.6578 18.4705 25.6577C18.4703 25.6576 18.4701 25.6575 18.47 25.6574C18.4698 25.6573 18.4696 25.6572 18.4694 25.6571C18.4692 25.657 18.469 25.6569 18.4689 25.6568C18.4687 25.6568 18.4685 25.6567 18.4683 25.6566C18.4681 25.6565 18.4679 25.6564 18.4678 25.6563C18.4676 25.6562 18.4674 25.6561 18.4672 25.656C18.467 25.6559 18.4668 25.6558 18.4667 25.6557C18.4665 25.6557 18.4663 25.6556 18.4661 25.6555C18.4659 25.6554 18.4658 25.6553 18.4656 25.6552C18.4654 25.6551 18.4652 25.655 18.465 25.6549C18.4648 25.6548 18.4647 25.6547 18.4645 25.6546C18.4643 25.6546 18.4641 25.6545 18.4639 25.6544C18.4637 25.6543 18.4636 25.6542 18.4634 25.6541C18.4632 25.654 18.463 25.6539 18.4628 25.6538C18.4626 25.6537 18.4625 25.6536 18.4623 25.6536C18.4621 25.6535 18.4619 25.6534 18.4617 25.6533C18.4615 25.6532 18.4614 25.6531 18.4612 25.653C18.461 25.6529 18.4608 25.6528 18.4606 25.6527C18.4604 25.6526 18.4603 25.6525 18.4601 25.6525C18.4599 25.6524 18.4597 25.6523 18.4595 25.6522C18.4593 25.6521 18.4592 25.652 18.459 25.6519C18.4588 25.6518 18.4586 25.6517 18.4584 25.6516C18.4582 25.6515 18.4581 25.6514 18.4579 25.6514C18.4577 25.6513 18.4575 25.6512 18.4573 25.6511C18.4571 25.651 18.457 25.6509 18.4568 25.6508C18.4566 25.6507 18.4564 25.6506 18.4562 25.6505C18.456 25.6504 18.4559 25.6503 18.4557 25.6503C18.4555 25.6502 18.4553 25.6501 18.4551 25.65C18.4549 25.6499 18.4548 25.6498 18.4546 25.6497C18.4544 25.6496 18.4542 25.6495 18.454 25.6494C18.4538 25.6493 18.4537 25.6492 18.4535 25.6492C18.4533 25.6491 18.4531 25.649 18.4529 25.6489C18.4528 25.6488 18.4526 25.6487 18.4524 25.6486C18.4522 25.6485 18.452 25.6484 18.4518 25.6483C18.4517 25.6482 18.4515 25.6481 18.4513 25.6481C18.4511 25.648 18.4509 25.6479 18.4507 25.6478C18.4506 25.6477 18.4504 25.6476 18.4502 25.6475C18.45 25.6474 18.4498 25.6473 18.4496 25.6472C18.4495 25.6471 18.4493 25.6471 18.4491 25.647C18.4489 25.6469 18.4487 25.6468 18.4485 25.6467C18.4484 25.6466 18.4482 25.6465 18.448 25.6464C18.4478 25.6463 18.4476 25.6462 18.4474 25.6461C18.4473 25.646 18.4471 25.646 18.4469 25.6459C18.4467 25.6458 18.4465 25.6457 18.4463 25.6456C18.4462 25.6455 18.446 25.6454 18.4458 25.6453C18.4456 25.6452 18.4454 25.6451 18.4452 25.645C18.4451 25.6449 18.4449 25.6449 18.4447 25.6448C18.4445 25.6447 18.4443 25.6446 18.4441 25.6445C18.444 25.6444 18.4438 25.6443 18.4436 25.6442C18.4434 25.6441 18.4432 25.644 18.443 25.6439C18.4429 25.6438 18.4427 25.6438 18.4425 25.6437C18.4423 25.6436 18.4421 25.6435 18.4419 25.6434C18.4418 25.6433 18.4416 25.6432 18.4414 25.6431C18.4412 25.643 18.441 25.6429 18.4408 25.6428C18.4407 25.6427 18.4405 25.6427 18.4403 25.6426C18.4401 25.6425 18.4399 25.6424 18.4397 25.6423C18.4396 25.6422 18.4394 25.6421 18.4392 25.642C18.439 25.6419 18.4388 25.6418 18.4387 25.6417C18.4385 25.6416 18.4383 25.6416 18.4381 25.6415C18.4379 25.6414 18.4377 25.6413 18.4376 25.6412C18.4374 25.6411 18.4372 25.641 18.437 25.6409C18.4368 25.6408 18.4366 25.6407 18.4365 25.6406C18.4363 25.6406 18.4361 25.6405 18.4359 25.6404C18.4357 25.6403 18.4355 25.6402 18.4354 25.6401C18.4352 25.64 18.435 25.6399 18.4348 25.6398C18.4346 25.6397 18.4344 25.6396 18.4343 25.6395C18.4341 25.6395 18.4339 25.6394 18.4337 25.6393C18.4335 25.6392 18.4333 25.6391 18.4332 25.639C18.433 25.6389 18.4328 25.6388 18.4326 25.6387C18.4324 25.6386 18.4322 25.6385 18.4321 25.6384C18.4319 25.6384 18.4317 25.6383 18.4315 25.6382C18.4313 25.6381 18.4311 25.638 18.431 25.6379C18.4308 25.6378 18.4306 25.6377 18.4304 25.6376C18.4302 25.6375 18.43 25.6374 18.4299 25.6373C18.4297 25.6373 18.4295 25.6372 18.4293 25.6371C18.4291 25.637 18.4289 25.6369 18.4288 25.6368C18.4286 25.6367 18.4284 25.6366 18.4282 25.6365C18.428 25.6364 18.4278 25.6363 18.4277 25.6362C18.4275 25.6362 18.4273 25.6361 18.4271 25.636C18.4269 25.6359 18.4267 25.6358 18.4266 25.6357C18.4264 25.6356 18.4262 25.6355 18.426 25.6354C18.4258 25.6353 18.4257 25.6352 18.4255 25.6351C18.4253 25.6351 18.4251 25.635 18.4249 25.6349C18.4247 25.6348 18.4246 25.6347 18.4244 25.6346C18.4242 25.6345 18.424 25.6344 18.4238 25.6343C18.4236 25.6342 18.4235 25.6341 18.4233 25.6341C18.4231 25.634 18.4229 25.6339 18.4227 25.6338C18.4225 25.6337 18.4224 25.6336 18.4222 25.6335C18.422 25.6334 18.4218 25.6333 18.4216 25.6332C18.4214 25.6331 18.4213 25.633 18.4211 25.633C18.4209 25.6329 18.4207 25.6328 18.4205 25.6327C18.4203 25.6326 18.4202 25.6325 18.42 25.6324C18.4198 25.6323 18.4196 25.6322 18.4194 25.6321C18.4192 25.632 18.4191 25.6319 18.4189 25.6319C18.4187 25.6318 18.4185 25.6317 18.4183 25.6316C18.4181 25.6315 18.418 25.6314 18.4178 25.6313C18.4176 25.6312 18.4174 25.6311 18.4172 25.631C18.417 25.6309 18.4169 25.6308 18.4167 25.6308C18.4165 25.6307 18.4163 25.6306 18.4161 25.6305C18.4159 25.6304 18.4158 25.6303 18.4156 25.6302C18.4154 25.6301 18.4152 25.63 18.415 25.6299C18.4148 25.6298 18.4147 25.6297 18.4145 25.6297C18.4143 25.6296 18.4141 25.6295 18.4139 25.6294C18.4137 25.6293 18.4136 25.6292 18.4134 25.6291C18.4132 25.629 18.413 25.6289 18.4128 25.6288C18.4127 25.6287 18.4125 25.6286 18.4123 25.6286C18.4121 25.6285 18.4119 25.6284 18.4117 25.6283C18.4116 25.6282 18.4114 25.6281 18.4112 25.628C18.411 25.6279 18.4108 25.6278 18.4106 25.6277C18.4105 25.6276 18.4103 25.6276 18.4101 25.6275C18.4099 25.6274 18.4097 25.6273 18.4095 25.6272C18.4094 25.6271 18.4092 25.627 18.409 25.6269C18.4088 25.6268 18.4086 25.6267 18.4084 25.6266C18.4083 25.6265 18.4081 25.6265 18.4079 25.6264C18.4077 25.6263 18.4075 25.6262 18.4073 25.6261C18.4072 25.626 18.407 25.6259 18.4068 25.6258C18.4066 25.6257 18.4064 25.6256 18.4062 25.6255C18.4061 25.6254 18.4059 25.6254 18.4057 25.6253C18.4055 25.6252 18.4053 25.6251 18.4051 25.625C18.405 25.6249 18.4048 25.6248 18.4046 25.6247C18.4044 25.6246 18.4042 25.6245 18.404 25.6244C18.4039 25.6243 18.4037 25.6243 18.4035 25.6242C18.4033 25.6241 18.4031 25.624 18.4029 25.6239C18.4028 25.6238 18.4026 25.6237 18.4024 25.6236C18.4022 25.6235 18.402 25.6234 18.4018 25.6233C18.4017 25.6232 18.4015 25.6232 18.4013 25.6231C18.4011 25.623 18.4009 25.6229 18.4007 25.6228C18.4006 25.6227 18.4004 25.6226 18.4002 25.6225C18.4 25.6224 18.3998 25.6223 18.3996 25.6222C18.3995 25.6221 18.3993 25.6221 18.3991 25.622C18.3989 25.6219 18.3987 25.6218 18.3986 25.6217C18.3984 25.6216 18.3982 25.6215 18.398 25.6214C18.3978 25.6213 18.3976 25.6212 18.3975 25.6211C18.3973 25.621 18.3971 25.621 18.3969 25.6209C18.3967 25.6208 18.3965 25.6207 18.3964 25.6206C18.3962 25.6205 18.396 25.6204 18.3958 25.6203C18.3956 25.6202 18.3954 25.6201 18.3953 25.62C18.3951 25.62 18.3949 25.6199 18.3947 25.6198C18.3945 25.6197 18.3943 25.6196 18.3942 25.6195C18.394 25.6194 18.3938 25.6193 18.3936 25.6192C18.3934 25.6191 18.3932 25.619 18.3931 25.6189C18.3929 25.6189 18.3927 25.6188 18.3925 25.6187C18.3923 25.6186 18.3921 25.6185 18.392 25.6184C18.3918 25.6183 18.3916 25.6182 18.3914 25.6181C18.3912 25.618 18.391 25.6179 18.3909 25.6178C18.3907 25.6178 18.3905 25.6177 18.3903 25.6176C18.3901 25.6175 18.3899 25.6174 18.3898 25.6173C18.3896 25.6172 18.3894 25.6171 18.3892 25.617C18.389 25.6169 18.3888 25.6168 18.3887 25.6167C18.3885 25.6167 18.3883 25.6166 18.3881 25.6165C18.3879 25.6164 18.3877 25.6163 18.3876 25.6162C18.3874 25.6161 18.3872 25.616 18.387 25.6159C18.3868 25.6158 18.3866 25.6157 18.3865 25.6156C18.3863 25.6156 18.3861 25.6155 18.3859 25.6154C18.3857 25.6153 18.3856 25.6152 18.3854 25.6151C18.3852 25.615 18.385 25.6149 18.3848 25.6148C18.3846 25.6147 18.3845 25.6146 18.3843 25.6145C18.3841 25.6145 18.3839 25.6144 18.3837 25.6143C18.3835 25.6142 18.3834 25.6141 18.3832 25.614C18.383 25.6139 18.3828 25.6138 18.3826 25.6137C18.3824 25.6136 18.3823 25.6135 18.3821 25.6135C18.3819 25.6134 18.3817 25.6133 18.3815 25.6132C18.3813 25.6131 18.3812 25.613 18.381 25.6129C18.3808 25.6128 18.3806 25.6127 18.3804 25.6126C18.3802 25.6125 18.3801 25.6124 18.3799 25.6124C18.3797 25.6123 18.3795 25.6122 18.3793 25.6121C18.3791 25.612 18.379 25.6119 18.3788 25.6118C18.3786 25.6117 18.3784 25.6116 18.3782 25.6115C18.378 25.6114 18.3779 25.6113 18.3777 25.6113C18.3775 25.6112 18.3773 25.6111 18.3771 25.611C18.3769 25.6109 18.3768 25.6108 18.3766 25.6107C18.3764 25.6106 18.3762 25.6105 18.376 25.6104C18.3758 25.6103 18.3757 25.6102 18.3755 25.6102C18.3753 25.6101 18.3751 25.61 18.3749 25.6099C18.3747 25.6098 18.3746 25.6097 18.3744 25.6096C18.3742 25.6095 18.374 25.6094 18.3738 25.6093C18.3736 25.6092 18.3735 25.6091 18.3733 25.6091C18.3731 25.609 18.3729 25.6089 18.3727 25.6088C18.3725 25.6087 18.3724 25.6086 18.3722 25.6085C18.372 25.6084 18.3718 25.6083 18.3716 25.6082C18.3715 25.6081 18.3713 25.608 18.3711 25.608C18.3709 25.6079 18.3707 25.6078 18.3705 25.6077C18.3704 25.6076 18.3702 25.6075 18.37 25.6074C18.3698 25.6073 18.3696 25.6072 18.3694 25.6071C18.3693 25.607 18.3691 25.607 18.3689 25.6069C18.3687 25.6068 18.3685 25.6067 18.3683 25.6066C18.3682 25.6065 18.368 25.6064 18.3678 25.6063C18.3676 25.6062 18.3674 25.6061 18.3672 25.606C18.3671 25.6059 18.3669 25.6059 18.3667 25.6058C18.3665 25.6057 18.3663 25.6056 18.3661 25.6055C18.366 25.6054 18.3658 25.6053 18.3656 25.6052C18.3654 25.6051 18.3652 25.605 18.365 25.6049C18.3649 25.6048 18.3647 25.6048 18.3645 25.6047C18.3643 25.6046 18.3641 25.6045 18.3639 25.6044C18.3638 25.6043 18.3636 25.6042 18.3634 25.6041C18.3632 25.604 18.363 25.6039 18.3628 25.6038C18.3627 25.6037 18.3625 25.6037 18.3623 25.6036C18.3621 25.6035 18.3619 25.6034 18.3617 25.6033C18.3616 25.6032 18.3614 25.6031 18.3612 25.603C18.361 25.6029 18.3608 25.6028 18.3606 25.6027C18.3605 25.6026 18.3603 25.6026 18.3601 25.6025C18.3599 25.6024 18.3597 25.6023 18.3595 25.6022C18.3594 25.6021 18.3592 25.602 18.359 25.6019C18.3588 25.6018 18.3586 25.6017 18.3585 25.6016C18.3583 25.6015 18.3581 25.6015 18.3579 25.6014C18.3577 25.6013 18.3575 25.6012 18.3574 25.6011C18.3572 25.601 18.357 25.6009 18.3568 25.6008C18.3566 25.6007 18.3564 25.6006 18.3563 25.6005C18.3561 25.6005 18.3559 25.6004 18.3557 25.6003C18.3555 25.6002 18.3553 25.6001 18.3552 25.6C18.355 25.5999 18.3548 25.5998 18.3546 25.5997C18.3544 25.5996 18.3542 25.5995 18.3541 25.5994C18.3539 25.5994 18.3537 25.5993 18.3535 25.5992C18.3533 25.5991 18.3531 25.599 18.353 25.5989C18.3528 25.5988 18.3526 25.5987 18.3524 25.5986C18.3522 25.5985 18.352 25.5984 18.3519 25.5983C18.3517 25.5983 18.3515 25.5982 18.3513 25.5981C18.3511 25.598 18.3509 25.5979 18.3508 25.5978C18.3506 25.5977 18.3504 25.5976 18.3502 25.5975C18.35 25.5974 18.3498 25.5973 18.3497 25.5972C18.3495 25.5972 18.3493 25.5971 18.3491 25.597C18.3489 25.5969 18.3487 25.5968 18.3486 25.5967C18.3484 25.5966 18.3482 25.5965 18.348 25.5964C18.3478 25.5963 18.3476 25.5962 18.3475 25.5961C18.3473 25.5961 18.3471 25.596 18.3469 25.5959C18.3467 25.5958 18.3465 25.5957 18.3464 25.5956C18.3462 25.5955 18.346 25.5954 18.3458 25.5953C18.3456 25.5952 18.3455 25.5951 18.3453 25.595C18.3451 25.595 18.3449 25.5949 18.3447 25.5948C18.3445 25.5947 18.3444 25.5946 18.3442 25.5945C18.344 25.5944 18.3438 25.5943 18.3436 25.5942C18.3434 25.5941 18.3433 25.594 18.3431 25.594C18.3429 25.5939 18.3427 25.5938 18.3425 25.5937C18.3423 25.5936 18.3422 25.5935 18.342 25.5934C18.3418 25.5933 18.3416 25.5932 18.3414 25.5931C18.3412 25.593 18.3411 25.5929 18.3409 25.5929C18.3407 25.5928 18.3405 25.5927 18.3403 25.5926C18.3401 25.5925 18.34 25.5924 18.3398 25.5923C18.3396 25.5922 18.3394 25.5921 18.3392 25.592C18.339 25.5919 18.3389 25.5918 18.3387 25.5918C18.3385 25.5917 18.3383 25.5916 18.3381 25.5915C18.3379 25.5914 18.3378 25.5913 18.3376 25.5912C18.3374 25.5911 18.3372 25.591 18.337 25.5909C18.3368 25.5908 18.3367 25.5907 18.3365 25.5907C18.3363 25.5906 18.3361 25.5905 18.3359 25.5904C18.3357 25.5903 18.3356 25.5902 18.3354 25.5901C18.3352 25.59 18.335 25.5899 18.3348 25.5898C18.3346 25.5897 18.3345 25.5896 18.3343 25.5896C18.3341 25.5895 18.3339 25.5894 18.3337 25.5893C18.3335 25.5892 18.3334 25.5891 18.3332 25.589C18.333 25.5889 18.3328 25.5888 18.3326 25.5887C18.3324 25.5886 18.3323 25.5885 18.3321 25.5885C18.3319 25.5884 18.3317 25.5883 18.3315 25.5882C18.3314 25.5881 18.3312 25.588 18.331 25.5879C18.3308 25.5878 18.3306 25.5877 18.3304 25.5876C18.3303 25.5875 18.3301 25.5875 18.3299 25.5874C18.3297 25.5873 18.3295 25.5872 18.3293 25.5871C18.3292 25.587 18.329 25.5869 18.3288 25.5868C18.3286 25.5867 18.3284 25.5866 18.3282 25.5865C18.3281 25.5864 18.3279 25.5864 18.3277 25.5863C18.3275 25.5862 18.3273 25.5861 18.3271 25.586C18.327 25.5859 18.3268 25.5858 18.3266 25.5857C18.3264 25.5856 18.3262 25.5855 18.326 25.5854C18.3259 25.5853 18.3257 25.5853 18.3255 25.5852C18.3253 25.5851 18.3251 25.585 18.3249 25.5849C18.3248 25.5848 18.3246 25.5847 18.3244 25.5846C18.3242 25.5845 18.324 25.5844 18.3238 25.5843C18.3237 25.5842 18.3235 25.5842 18.3233 25.5841C18.3231 25.584 18.3229 25.5839 18.3227 25.5838C18.3226 25.5837 18.3224 25.5836 18.3222 25.5835C18.322 25.5834 18.3218 25.5833 18.3216 25.5832C18.3215 25.5831 18.3213 25.5831 18.3211 25.583C18.3209 25.5829 18.3207 25.5828 18.3205 25.5827C18.3204 25.5826 18.3202 25.5825 18.32 25.5824C18.3198 25.5823 18.3196 25.5822 18.3194 25.5821C18.3193 25.582 18.3191 25.582 18.3189 25.5819C18.3187 25.5818 18.3185 25.5817 18.3184 25.5816C18.3182 25.5815 18.318 25.5814 18.3178 25.5813C18.3176 25.5812 18.3174 25.5811 18.3173 25.581C18.3171 25.5809 18.3169 25.5809 18.3167 25.5808C18.3165 25.5807 18.3163 25.5806 18.3162 25.5805C18.316 25.5804 18.3158 25.5803 18.3156 25.5802C18.3154 25.5801 18.3152 25.58 18.3151 25.5799C18.3149 25.5799 18.3147 25.5798 18.3145 25.5797C18.3143 25.5796 18.3141 25.5795 18.314 25.5794C18.3138 25.5793 18.3136 25.5792 18.3134 25.5791C18.3132 25.579 18.313 25.5789 18.3129 25.5788C18.3127 25.5788 18.3125 25.5787 18.3123 25.5786C18.3121 25.5785 18.3119 25.5784 18.3118 25.5783C18.3116 25.5782 18.3114 25.5781 18.3112 25.578C18.311 25.5779 18.3108 25.5778 18.3107 25.5777C18.3105 25.5777 18.3103 25.5776 18.3101 25.5775C18.3099 25.5774 18.3097 25.5773 18.3096 25.5772C18.3094 25.5771 18.3092 25.577 18.309 25.5769C18.3088 25.5768 18.3086 25.5767 18.3085 25.5766C18.3083 25.5766 18.3081 25.5765 18.3079 25.5764C18.3077 25.5763 18.3075 25.5762 18.3074 25.5761C18.3072 25.576 18.307 25.5759 18.3068 25.5758C18.3066 25.5757 18.3064 25.5756 18.3063 25.5755C18.3061 25.5755 18.3059 25.5754 18.3057 25.5753C18.3055 25.5752 18.3054 25.5751 18.3052 25.575C18.305 25.5749 18.3048 25.5748 18.3046 25.5747C18.3044 25.5746 18.3043 25.5745 18.3041 25.5744C18.3039 25.5744 18.3037 25.5743 18.3035 25.5742C18.3033 25.5741 18.3032 25.574 18.303 25.5739C18.3028 25.5738 18.3026 25.5737 18.3024 25.5736C18.3022 25.5735 18.3021 25.5734 18.3019 25.5734C18.3017 25.5733 18.3015 25.5732 18.3013 25.5731C18.3011 25.573 18.301 25.5729 18.3008 25.5728C18.3006 25.5727 18.3004 25.5726 18.3002 25.5725C18.3 25.5724 18.2999 25.5723 18.2997 25.5723C18.2995 25.5722 18.2993 25.5721 18.2991 25.572C18.2989 25.5719 18.2988 25.5718 18.2986 25.5717C18.2984 25.5716 18.2982 25.5715 18.298 25.5714C18.2978 25.5713 18.2977 25.5712 18.2975 25.5712C18.2973 25.5711 18.2971 25.571 18.2969 25.5709C18.2967 25.5708 18.2966 25.5707 18.2964 25.5706C18.2962 25.5705 18.296 25.5704 18.2958 25.5703C18.2956 25.5702 18.2955 25.5701 18.2953 25.5701C18.2951 25.57 18.2949 25.5699 18.2947 25.5698C18.2945 25.5697 18.2944 25.5696 18.2942 25.5695C18.294 25.5694 18.2938 25.5693 18.2936 25.5692C18.2934 25.5691 18.2933 25.569 18.2931 25.569C18.2929 25.5689 18.2927 25.5688 18.2925 25.5687C18.2923 25.5686 18.2922 25.5685 18.292 25.5684C18.2918 25.5683 18.2916 25.5682 18.2914 25.5681C18.2913 25.568 18.2911 25.5679 18.2909 25.5679C18.2907 25.5678 18.2905 25.5677 18.2903 25.5676C18.2902 25.5675 18.29 25.5674 18.2898 25.5673C18.2896 25.5672 18.2894 25.5671 18.2892 25.567C18.2891 25.5669 18.2889 25.5669 18.2887 25.5668C18.2885 25.5667 18.2883 25.5666 18.2881 25.5665C18.288 25.5664 18.2878 25.5663 18.2876 25.5662C18.2874 25.5661 18.2872 25.566 18.287 25.5659C18.2869 25.5658 18.2867 25.5658 18.2865 25.5657C18.2863 25.5656 18.2861 25.5655 18.2859 25.5654C18.2858 25.5653 18.2856 25.5652 18.2854 25.5651C18.2852 25.565 18.285 25.5649 18.2848 25.5648C18.2847 25.5647 18.2845 25.5647 18.2843 25.5646C18.2841 25.5645 18.2839 25.5644 18.2837 25.5643C18.2836 25.5642 18.2834 25.5641 18.2832 25.564C18.283 25.5639 18.2828 25.5638 18.2826 25.5637C18.2825 25.5636 18.2823 25.5636 18.2821 25.5635C18.2819 25.5634 18.2817 25.5633 18.2815 25.5632C18.2814 25.5631 18.2812 25.563 18.281 25.5629C18.2808 25.5628 18.2806 25.5627 18.2804 25.5626C18.2803 25.5625 18.2801 25.5625 18.2799 25.5624C18.2797 25.5623 18.2795 25.5622 18.2793 25.5621C18.2792 25.562 18.279 25.5619 18.2788 25.5618C18.2786 25.5617 18.2784 25.5616 18.2783 25.5615C18.2781 25.5614 18.2779 25.5614 18.2777 25.5613C18.2775 25.5612 18.2773 25.5611 18.2772 25.561C18.277 25.5609 18.2768 25.5608 18.2766 25.5607C18.2764 25.5606 18.2762 25.5605 18.2761 25.5604C18.2759 25.5604 18.2757 25.5603 18.2755 25.5602C18.2753 25.5601 18.2751 25.56 18.275 25.5599C18.2748 25.5598 18.2746 25.5597 18.2744 25.5596C18.2742 25.5595 18.274 25.5594 18.2739 25.5593C18.2737 25.5593 18.2735 25.5592 18.2733 25.5591C18.2731 25.559 18.2729 25.5589 18.2728 25.5588C18.2726 25.5587 18.2724 25.5586 18.2722 25.5585C18.272 25.5584 18.2718 25.5583 18.2717 25.5582C18.2715 25.5582 18.2713 25.5581 18.2711 25.558C18.2709 25.5579 18.2707 25.5578 18.2706 25.5577C18.2704 25.5576 18.2702 25.5575 18.27 25.5574C18.2698 25.5573 18.2696 25.5572 18.2695 25.5571C18.2693 25.5571 18.2691 25.557 18.2689 25.5569C18.2687 25.5568 18.2685 25.5567 18.2684 25.5566C18.2682 25.5565 18.268 25.5564 18.2678 25.5563C18.2676 25.5562 18.2674 25.5561 18.2673 25.556C18.2671 25.556 18.2669 25.5559 18.2667 25.5558C18.2665 25.5557 18.2663 25.5556 18.2662 25.5555C18.266 25.5554 18.2658 25.5553 18.2656 25.5552C18.2654 25.5551 18.2653 25.555 18.2651 25.5549C18.2649 25.5549 18.2647 25.5548 18.2645 25.5547C18.2643 25.5546 18.2642 25.5545 18.264 25.5544C18.2638 25.5543 18.2636 25.5542 18.2634 25.5541C18.2632 25.554 18.2631 25.5539 18.2629 25.5539C18.2627 25.5538 18.2625 25.5537 18.2623 25.5536C18.2621 25.5535 18.262 25.5534 18.2618 25.5533C18.2616 25.5532 18.2614 25.5531 18.2612 25.553C18.261 25.5529 18.2609 25.5528 18.2607 25.5528C18.2605 25.5527 18.2603 25.5526 18.2601 25.5525C18.2599 25.5524 18.2598 25.5523 18.2596 25.5522C18.2594 25.5521 18.2592 25.552 18.259 25.5519C18.2588 25.5518 18.2587 25.5517 18.2585 25.5517C18.2583 25.5516 18.2581 25.5515 18.2579 25.5514C18.2577 25.5513 18.2576 25.5512 18.2574 25.5511C18.2572 25.551 18.257 25.5509 18.2568 25.5508C18.2566 25.5507 18.2565 25.5506 18.2563 25.5506C18.2561 25.5505 18.2559 25.5504 18.2557 25.5503C18.2555 25.5502 18.2554 25.5501 18.2552 25.55C18.255 25.5499 18.2548 25.5498 18.2546 25.5497C18.2544 25.5496 18.2543 25.5495 18.2541 25.5495C18.2539 25.5494 18.2537 25.5493 18.2535 25.5492C18.2533 25.5491 18.2532 25.549 18.253 25.5489C18.2528 25.5488 18.2526 25.5487 18.2524 25.5486C18.2522 25.5485 18.2521 25.5484 18.2519 25.5484C18.2517 25.5483 18.2515 25.5482 18.2513 25.5481C18.2512 25.548 18.251 25.5479 18.2508 25.5478C18.2506 25.5477 18.2504 25.5476 18.2502 25.5475C18.2501 25.5474 18.2499 25.5473 18.2497 25.5473C18.2495 25.5472 18.2493 25.5471 18.2491 25.547C18.249 25.5469 18.2488 25.5468 18.2486 25.5467C18.2484 25.5466 18.2482 25.5465 18.248 25.5464C18.2479 25.5463 18.2477 25.5463 18.2475 25.5462C18.2473 25.5461 18.2471 25.546 18.2469 25.5459C18.2468 25.5458 18.2466 25.5457 18.2464 25.5456C18.2462 25.5455 18.246 25.5454 18.2458 25.5453C18.2457 25.5452 18.2455 25.5452 18.2453 25.5451C18.2451 25.545 18.2449 25.5449 18.2447 25.5448C18.2446 25.5447 18.2444 25.5446 18.2442 25.5445C18.244 25.5444 18.2438 25.5443 18.2436 25.5442C18.2435 25.5441 18.2433 25.5441 18.2431 25.544C18.2429 25.5439 18.2427 25.5438 18.2425 25.5437C18.2424 25.5436 18.2422 25.5435 18.242 25.5434C18.2418 25.5433 18.2416 25.5432 18.2414 25.5431C18.2413 25.543 18.2411 25.543 18.2409 25.5429C18.2407 25.5428 18.2405 25.5427 18.2403 25.5426C18.2402 25.5425 18.24 25.5424 18.2398 25.5423C18.2396 25.5422 18.2394 25.5421 18.2392 25.542C18.2391 25.5419 18.2389 25.5419 18.2387 25.5418C18.2385 25.5417 18.2383 25.5416 18.2382 25.5415C18.238 25.5414 18.2378 25.5413 18.2376 25.5412C18.2374 25.5411 18.2372 25.541 18.2371 25.5409C18.2369 25.5408 18.2367 25.5408 18.2365 25.5407C18.2363 25.5406 18.2361 25.5405 18.236 25.5404C18.2358 25.5403 18.2356 25.5402 18.2354 25.5401C18.2352 25.54 18.235 25.5399 18.2349 25.5398C18.2347 25.5398 18.2345 25.5397 18.2343 25.5396C18.2341 25.5395 18.2339 25.5394 18.2338 25.5393C18.2336 25.5392 18.2334 25.5391 18.2332 25.539C18.233 25.5389 18.2328 25.5388 18.2327 25.5387C18.2325 25.5387 18.2323 25.5386 18.2321 25.5385C18.2319 25.5384 18.2317 25.5383 18.2316 25.5382C18.2314 25.5381 18.2312 25.538 18.231 25.5379C18.2308 25.5378 18.2306 25.5377 18.2305 25.5376C18.2303 25.5376 18.2301 25.5375 18.2299 25.5374C18.2297 25.5373 18.2295 25.5372 18.2294 25.5371C18.2292 25.537 18.229 25.5369 18.2288 25.5368C18.2286 25.5367 18.2284 25.5366 18.2283 25.5365C18.2281 25.5365 18.2279 25.5364 18.2277 25.5363C18.2275 25.5362 18.2273 25.5361 18.2272 25.536C18.227 25.5359 18.2268 25.5358 18.2266 25.5357C18.2264 25.5356 18.2262 25.5355 18.2261 25.5354C18.2259 25.5354 18.2257 25.5353 18.2255 25.5352C18.2253 25.5351 18.2252 25.535 18.225 25.5349C18.2248 25.5348 18.2246 25.5347 18.2244 25.5346C18.2242 25.5345 18.2241 25.5344 18.2239 25.5343C18.2237 25.5343 18.2235 25.5342 18.2233 25.5341C18.2231 25.534 18.223 25.5339 18.2228 25.5338C18.2226 25.5337 18.2224 25.5336 18.2222 25.5335C18.222 25.5334 18.2219 25.5333 18.2217 25.5333C18.2215 25.5332 18.2213 25.5331 18.2211 25.533C18.2209 25.5329 18.2208 25.5328 18.2206 25.5327C18.2204 25.5326 18.2202 25.5325 18.22 25.5324C18.2198 25.5323 18.2197 25.5322 18.2195 25.5322C18.2193 25.5321 18.2191 25.532 18.2189 25.5319C18.2187 25.5318 18.2186 25.5317 18.2184 25.5316C18.2182 25.5315 18.218 25.5314 18.2178 25.5313C18.2176 25.5312 18.2175 25.5311 18.2173 25.5311C18.2171 25.531 18.2169 25.5309 18.2167 25.5308C18.2165 25.5307 18.2164 25.5306 18.2162 25.5305C18.216 25.5304 18.2158 25.5303 18.2156 25.5302C18.2154 25.5301 18.2153 25.53 18.2151 25.53C18.2149 25.5299 18.2147 25.5298 18.2145 25.5297C18.2143 25.5296 18.2142 25.5295 18.214 25.5294C18.2138 25.5293 18.2136 25.5292 18.2134 25.5291C18.2132 25.529 18.2131 25.5289 18.2129 25.5289C18.2127 25.5288 18.2125 25.5287 18.2123 25.5286C18.2121 25.5285 18.212 25.5284 18.2118 25.5283C18.2116 25.5282 18.2114 25.5281 18.2112 25.528C18.2111 25.5279 18.2109 25.5278 18.2107 25.5278C18.2105 25.5277 18.2103 25.5276 18.2101 25.5275L17.8524 26.243C17.8525 26.2431 17.8527 26.2432 17.8529 26.2433C17.8531 26.2434 17.8533 26.2435 17.8535 26.2436C17.8536 26.2437 17.8538 26.2438 17.854 26.2438C17.8542 26.2439 17.8544 26.244 17.8546 26.2441C17.8547 26.2442 17.8549 26.2443 17.8551 26.2444C17.8553 26.2445 17.8555 26.2446 17.8557 26.2447C17.8558 26.2448 17.856 26.2449 17.8562 26.2449C17.8564 26.245 17.8566 26.2451 17.8568 26.2452C17.8569 26.2453 17.8571 26.2454 17.8573 26.2455C17.8575 26.2456 17.8577 26.2457 17.8579 26.2458C17.858 26.2459 17.8582 26.246 17.8584 26.246C17.8586 26.2461 17.8588 26.2462 17.859 26.2463C17.8591 26.2464 17.8593 26.2465 17.8595 26.2466C17.8597 26.2467 17.8599 26.2468 17.8601 26.2469C17.8602 26.247 17.8604 26.2471 17.8606 26.2471C17.8608 26.2472 17.861 26.2473 17.8612 26.2474C17.8613 26.2475 17.8615 26.2476 17.8617 26.2477C17.8619 26.2478 17.8621 26.2479 17.8623 26.248C17.8624 26.2481 17.8626 26.2482 17.8628 26.2482C17.863 26.2483 17.8632 26.2484 17.8634 26.2485C17.8635 26.2486 17.8637 26.2487 17.8639 26.2488C17.8641 26.2489 17.8643 26.249 17.8644 26.2491C17.8646 26.2492 17.8648 26.2493 17.865 26.2493C17.8652 26.2494 17.8654 26.2495 17.8655 26.2496C17.8657 26.2497 17.8659 26.2498 17.8661 26.2499C17.8663 26.25 17.8665 26.2501 17.8666 26.2502C17.8668 26.2503 17.867 26.2503 17.8672 26.2504C17.8674 26.2505 17.8676 26.2506 17.8677 26.2507C17.8679 26.2508 17.8681 26.2509 17.8683 26.251C17.8685 26.2511 17.8687 26.2512 17.8688 26.2513C17.869 26.2514 17.8692 26.2514 17.8694 26.2515C17.8696 26.2516 17.8698 26.2517 17.8699 26.2518C17.8701 26.2519 17.8703 26.252 17.8705 26.2521C17.8707 26.2522 17.8709 26.2523 17.871 26.2524C17.8712 26.2525 17.8714 26.2525 17.8716 26.2526C17.8718 26.2527 17.872 26.2528 17.8721 26.2529C17.8723 26.253 17.8725 26.2531 17.8727 26.2532C17.8729 26.2533 17.8731 26.2534 17.8732 26.2535C17.8734 26.2536 17.8736 26.2536 17.8738 26.2537C17.874 26.2538 17.8742 26.2539 17.8743 26.254C17.8745 26.2541 17.8747 26.2542 17.8749 26.2543C17.8751 26.2544 17.8753 26.2545 17.8754 26.2546C17.8756 26.2547 17.8758 26.2547 17.876 26.2548C17.8762 26.2549 17.8764 26.255 17.8765 26.2551C17.8767 26.2552 17.8769 26.2553 17.8771 26.2554C17.8773 26.2555 17.8775 26.2556 17.8776 26.2557C17.8778 26.2558 17.878 26.2558 17.8782 26.2559C17.8784 26.256 17.8785 26.2561 17.8787 26.2562C17.8789 26.2563 17.8791 26.2564 17.8793 26.2565C17.8795 26.2566 17.8796 26.2567 17.8798 26.2568C17.88 26.2568 17.8802 26.2569 17.8804 26.257C17.8806 26.2571 17.8807 26.2572 17.8809 26.2573C17.8811 26.2574 17.8813 26.2575 17.8815 26.2576C17.8817 26.2577 17.8818 26.2578 17.882 26.2579C17.8822 26.2579 17.8824 26.258 17.8826 26.2581C17.8828 26.2582 17.8829 26.2583 17.8831 26.2584C17.8833 26.2585 17.8835 26.2586 17.8837 26.2587C17.8839 26.2588 17.884 26.2589 17.8842 26.259C17.8844 26.259 17.8846 26.2591 17.8848 26.2592C17.885 26.2593 17.8851 26.2594 17.8853 26.2595C17.8855 26.2596 17.8857 26.2597 17.8859 26.2598C17.8861 26.2599 17.8862 26.26 17.8864 26.2601C17.8866 26.2601 17.8868 26.2602 17.887 26.2603C17.8872 26.2604 17.8873 26.2605 17.8875 26.2606C17.8877 26.2607 17.8879 26.2608 17.8881 26.2609C17.8883 26.261 17.8884 26.2611 17.8886 26.2612C17.8888 26.2612 17.889 26.2613 17.8892 26.2614C17.8894 26.2615 17.8895 26.2616 17.8897 26.2617C17.8899 26.2618 17.8901 26.2619 17.8903 26.262C17.8905 26.2621 17.8906 26.2622 17.8908 26.2623C17.891 26.2623 17.8912 26.2624 17.8914 26.2625C17.8915 26.2626 17.8917 26.2627 17.8919 26.2628C17.8921 26.2629 17.8923 26.263 17.8925 26.2631C17.8926 26.2632 17.8928 26.2633 17.893 26.2633C17.8932 26.2634 17.8934 26.2635 17.8936 26.2636C17.8937 26.2637 17.8939 26.2638 17.8941 26.2639C17.8943 26.264 17.8945 26.2641 17.8947 26.2642C17.8948 26.2643 17.895 26.2644 17.8952 26.2644C17.8954 26.2645 17.8956 26.2646 17.8958 26.2647C17.8959 26.2648 17.8961 26.2649 17.8963 26.265C17.8965 26.2651 17.8967 26.2652 17.8969 26.2653C17.897 26.2654 17.8972 26.2655 17.8974 26.2655C17.8976 26.2656 17.8978 26.2657 17.898 26.2658C17.8981 26.2659 17.8983 26.266 17.8985 26.2661C17.8987 26.2662 17.8989 26.2663 17.8991 26.2664C17.8992 26.2665 17.8994 26.2666 17.8996 26.2666C17.8998 26.2667 17.9 26.2668 17.9002 26.2669C17.9003 26.267 17.9005 26.2671 17.9007 26.2672C17.9009 26.2673 17.9011 26.2674 17.9013 26.2675C17.9014 26.2676 17.9016 26.2677 17.9018 26.2677C17.902 26.2678 17.9022 26.2679 17.9024 26.268C17.9025 26.2681 17.9027 26.2682 17.9029 26.2683C17.9031 26.2684 17.9033 26.2685 17.9035 26.2686C17.9036 26.2687 17.9038 26.2688 17.904 26.2688C17.9042 26.2689 17.9044 26.269 17.9045 26.2691C17.9047 26.2692 17.9049 26.2693 17.9051 26.2694C17.9053 26.2695 17.9055 26.2696 17.9056 26.2697C17.9058 26.2698 17.906 26.2698 17.9062 26.2699C17.9064 26.27 17.9066 26.2701 17.9067 26.2702C17.9069 26.2703 17.9071 26.2704 17.9073 26.2705C17.9075 26.2706 17.9077 26.2707 17.9078 26.2708C17.908 26.2709 17.9082 26.2709 17.9084 26.271C17.9086 26.2711 17.9088 26.2712 17.9089 26.2713C17.9091 26.2714 17.9093 26.2715 17.9095 26.2716C17.9097 26.2717 17.9099 26.2718 17.91 26.2719C17.9102 26.272 17.9104 26.272 17.9106 26.2721C17.9108 26.2722 17.911 26.2723 17.9111 26.2724C17.9113 26.2725 17.9115 26.2726 17.9117 26.2727C17.9119 26.2728 17.9121 26.2729 17.9122 26.273C17.9124 26.2731 17.9126 26.2731 17.9128 26.2732C17.913 26.2733 17.9132 26.2734 17.9133 26.2735C17.9135 26.2736 17.9137 26.2737 17.9139 26.2738C17.9141 26.2739 17.9143 26.274 17.9144 26.2741C17.9146 26.2742 17.9148 26.2742 17.915 26.2743C17.9152 26.2744 17.9154 26.2745 17.9155 26.2746C17.9157 26.2747 17.9159 26.2748 17.9161 26.2749C17.9163 26.275 17.9165 26.2751 17.9166 26.2752C17.9168 26.2753 17.917 26.2753 17.9172 26.2754C17.9174 26.2755 17.9176 26.2756 17.9177 26.2757C17.9179 26.2758 17.9181 26.2759 17.9183 26.276C17.9185 26.2761 17.9186 26.2762 17.9188 26.2763C17.919 26.2763 17.9192 26.2764 17.9194 26.2765C17.9196 26.2766 17.9197 26.2767 17.9199 26.2768C17.9201 26.2769 17.9203 26.277 17.9205 26.2771C17.9207 26.2772 17.9208 26.2773 17.921 26.2774C17.9212 26.2774 17.9214 26.2775 17.9216 26.2776C17.9218 26.2777 17.9219 26.2778 17.9221 26.2779C17.9223 26.278 17.9225 26.2781 17.9227 26.2782C17.9229 26.2783 17.923 26.2784 17.9232 26.2785C17.9234 26.2785 17.9236 26.2786 17.9238 26.2787C17.924 26.2788 17.9241 26.2789 17.9243 26.279C17.9245 26.2791 17.9247 26.2792 17.9249 26.2793C17.9251 26.2794 17.9252 26.2795 17.9254 26.2796C17.9256 26.2796 17.9258 26.2797 17.926 26.2798C17.9262 26.2799 17.9263 26.28 17.9265 26.2801C17.9267 26.2802 17.9269 26.2803 17.9271 26.2804C17.9273 26.2805 17.9274 26.2806 17.9276 26.2807C17.9278 26.2807 17.928 26.2808 17.9282 26.2809C17.9284 26.281 17.9285 26.2811 17.9287 26.2812C17.9289 26.2813 17.9291 26.2814 17.9293 26.2815C17.9295 26.2816 17.9296 26.2817 17.9298 26.2818C17.93 26.2818 17.9302 26.2819 17.9304 26.282C17.9306 26.2821 17.9307 26.2822 17.9309 26.2823C17.9311 26.2824 17.9313 26.2825 17.9315 26.2826C17.9316 26.2827 17.9318 26.2828 17.932 26.2829C17.9322 26.2829 17.9324 26.283 17.9326 26.2831C17.9327 26.2832 17.9329 26.2833 17.9331 26.2834C17.9333 26.2835 17.9335 26.2836 17.9337 26.2837C17.9338 26.2838 17.934 26.2839 17.9342 26.2839C17.9344 26.284 17.9346 26.2841 17.9348 26.2842C17.9349 26.2843 17.9351 26.2844 17.9353 26.2845C17.9355 26.2846 17.9357 26.2847 17.9359 26.2848C17.936 26.2849 17.9362 26.285 17.9364 26.285C17.9366 26.2851 17.9368 26.2852 17.937 26.2853C17.9371 26.2854 17.9373 26.2855 17.9375 26.2856C17.9377 26.2857 17.9379 26.2858 17.9381 26.2859C17.9382 26.286 17.9384 26.2861 17.9386 26.2861C17.9388 26.2862 17.939 26.2863 17.9392 26.2864C17.9393 26.2865 17.9395 26.2866 17.9397 26.2867C17.9399 26.2868 17.9401 26.2869 17.9403 26.287C17.9404 26.2871 17.9406 26.2872 17.9408 26.2872C17.941 26.2873 17.9412 26.2874 17.9414 26.2875C17.9415 26.2876 17.9417 26.2877 17.9419 26.2878C17.9421 26.2879 17.9423 26.288 17.9425 26.2881C17.9426 26.2882 17.9428 26.2883 17.943 26.2883C17.9432 26.2884 17.9434 26.2885 17.9436 26.2886C17.9437 26.2887 17.9439 26.2888 17.9441 26.2889C17.9443 26.289 17.9445 26.2891 17.9446 26.2892C17.9448 26.2893 17.945 26.2894 17.9452 26.2894C17.9454 26.2895 17.9456 26.2896 17.9457 26.2897C17.9459 26.2898 17.9461 26.2899 17.9463 26.29C17.9465 26.2901 17.9467 26.2902 17.9468 26.2903C17.947 26.2904 17.9472 26.2904 17.9474 26.2905C17.9476 26.2906 17.9478 26.2907 17.9479 26.2908C17.9481 26.2909 17.9483 26.291 17.9485 26.2911C17.9487 26.2912 17.9489 26.2913 17.949 26.2914C17.9492 26.2915 17.9494 26.2915 17.9496 26.2916C17.9498 26.2917 17.95 26.2918 17.9501 26.2919C17.9503 26.292 17.9505 26.2921 17.9507 26.2922C17.9509 26.2923 17.9511 26.2924 17.9512 26.2925C17.9514 26.2926 17.9516 26.2926 17.9518 26.2927C17.952 26.2928 17.9522 26.2929 17.9523 26.293C17.9525 26.2931 17.9527 26.2932 17.9529 26.2933C17.9531 26.2934 17.9533 26.2935 17.9534 26.2936C17.9536 26.2937 17.9538 26.2937 17.954 26.2938C17.9542 26.2939 17.9544 26.294 17.9545 26.2941C17.9547 26.2942 17.9549 26.2943 17.9551 26.2944C17.9553 26.2945 17.9555 26.2946 17.9556 26.2947C17.9558 26.2948 17.956 26.2948 17.9562 26.2949C17.9564 26.295 17.9566 26.2951 17.9567 26.2952C17.9569 26.2953 17.9571 26.2954 17.9573 26.2955C17.9575 26.2956 17.9577 26.2957 17.9578 26.2958C17.958 26.2959 17.9582 26.2959 17.9584 26.296C17.9586 26.2961 17.9587 26.2962 17.9589 26.2963C17.9591 26.2964 17.9593 26.2965 17.9595 26.2966C17.9597 26.2967 17.9598 26.2968 17.96 26.2969C17.9602 26.2969 17.9604 26.297 17.9606 26.2971C17.9608 26.2972 17.9609 26.2973 17.9611 26.2974C17.9613 26.2975 17.9615 26.2976 17.9617 26.2977C17.9619 26.2978 17.962 26.2979 17.9622 26.298C17.9624 26.298 17.9626 26.2981 17.9628 26.2982C17.963 26.2983 17.9631 26.2984 17.9633 26.2985C17.9635 26.2986 17.9637 26.2987 17.9639 26.2988C17.9641 26.2989 17.9642 26.299 17.9644 26.2991C17.9646 26.2991 17.9648 26.2992 17.965 26.2993C17.9652 26.2994 17.9653 26.2995 17.9655 26.2996C17.9657 26.2997 17.9659 26.2998 17.9661 26.2999C17.9663 26.3 17.9664 26.3001 17.9666 26.3002C17.9668 26.3002 17.967 26.3003 17.9672 26.3004C17.9674 26.3005 17.9675 26.3006 17.9677 26.3007C17.9679 26.3008 17.9681 26.3009 17.9683 26.301C17.9685 26.3011 17.9686 26.3012 17.9688 26.3013C17.969 26.3013 17.9692 26.3014 17.9694 26.3015C17.9696 26.3016 17.9697 26.3017 17.9699 26.3018C17.9701 26.3019 17.9703 26.302 17.9705 26.3021C17.9707 26.3022 17.9708 26.3023 17.971 26.3024C17.9712 26.3024 17.9714 26.3025 17.9716 26.3026C17.9717 26.3027 17.9719 26.3028 17.9721 26.3029C17.9723 26.303 17.9725 26.3031 17.9727 26.3032C17.9728 26.3033 17.973 26.3034 17.9732 26.3034C17.9734 26.3035 17.9736 26.3036 17.9738 26.3037C17.9739 26.3038 17.9741 26.3039 17.9743 26.304C17.9745 26.3041 17.9747 26.3042 17.9749 26.3043C17.975 26.3044 17.9752 26.3045 17.9754 26.3045C17.9756 26.3046 17.9758 26.3047 17.976 26.3048C17.9761 26.3049 17.9763 26.305 17.9765 26.3051C17.9767 26.3052 17.9769 26.3053 17.9771 26.3054C17.9772 26.3055 17.9774 26.3056 17.9776 26.3056C17.9778 26.3057 17.978 26.3058 17.9782 26.3059C17.9783 26.306 17.9785 26.3061 17.9787 26.3062C17.9789 26.3063 17.9791 26.3064 17.9793 26.3065C17.9794 26.3066 17.9796 26.3067 17.9798 26.3067C17.98 26.3068 17.9802 26.3069 17.9804 26.307C17.9805 26.3071 17.9807 26.3072 17.9809 26.3073C17.9811 26.3074 17.9813 26.3075 17.9815 26.3076C17.9816 26.3077 17.9818 26.3078 17.982 26.3078C17.9822 26.3079 17.9824 26.308 17.9826 26.3081C17.9827 26.3082 17.9829 26.3083 17.9831 26.3084C17.9833 26.3085 17.9835 26.3086 17.9837 26.3087C17.9838 26.3088 17.984 26.3089 17.9842 26.3089C17.9844 26.309 17.9846 26.3091 17.9847 26.3092C17.9849 26.3093 17.9851 26.3094 17.9853 26.3095C17.9855 26.3096 17.9857 26.3097 17.9858 26.3098C17.986 26.3099 17.9862 26.3099 17.9864 26.31C17.9866 26.3101 17.9868 26.3102 17.9869 26.3103C17.9871 26.3104 17.9873 26.3105 17.9875 26.3106C17.9877 26.3107 17.9879 26.3108 17.988 26.3109C17.9882 26.311 17.9884 26.311 17.9886 26.3111C17.9888 26.3112 17.989 26.3113 17.9891 26.3114C17.9893 26.3115 17.9895 26.3116 17.9897 26.3117C17.9899 26.3118 17.9901 26.3119 17.9902 26.312C17.9904 26.3121 17.9906 26.3121 17.9908 26.3122C17.991 26.3123 17.9912 26.3124 17.9913 26.3125C17.9915 26.3126 17.9917 26.3127 17.9919 26.3128C17.9921 26.3129 17.9923 26.313 17.9924 26.3131C17.9926 26.3132 17.9928 26.3132 17.993 26.3133C17.9932 26.3134 17.9934 26.3135 17.9935 26.3136C17.9937 26.3137 17.9939 26.3138 17.9941 26.3139C17.9943 26.314 17.9945 26.3141 17.9946 26.3142C17.9948 26.3143 17.995 26.3143 17.9952 26.3144C17.9954 26.3145 17.9956 26.3146 17.9957 26.3147C17.9959 26.3148 17.9961 26.3149 17.9963 26.315C17.9965 26.3151 17.9967 26.3152 17.9968 26.3153C17.997 26.3154 17.9972 26.3154 17.9974 26.3155C17.9976 26.3156 17.9978 26.3157 17.9979 26.3158C17.9981 26.3159 17.9983 26.316 17.9985 26.3161C17.9987 26.3162 17.9988 26.3163 17.999 26.3164C17.9992 26.3165 17.9994 26.3165 17.9996 26.3166C17.9998 26.3167 17.9999 26.3168 18.0001 26.3169C18.0003 26.317 18.0005 26.3171 18.0007 26.3172C18.0009 26.3173 18.001 26.3174 18.0012 26.3175C18.0014 26.3175 18.0016 26.3176 18.0018 26.3177C18.002 26.3178 18.0021 26.3179 18.0023 26.318C18.0025 26.3181 18.0027 26.3182 18.0029 26.3183C18.0031 26.3184 18.0032 26.3185 18.0034 26.3186C18.0036 26.3186 18.0038 26.3187 18.004 26.3188C18.0042 26.3189 18.0043 26.319 18.0045 26.3191C18.0047 26.3192 18.0049 26.3193 18.0051 26.3194C18.0053 26.3195 18.0054 26.3196 18.0056 26.3197C18.0058 26.3197 18.006 26.3198 18.0062 26.3199C18.0064 26.32 18.0065 26.3201 18.0067 26.3202C18.0069 26.3203 18.0071 26.3204 18.0073 26.3205C18.0075 26.3206 18.0076 26.3207 18.0078 26.3208C18.008 26.3208 18.0082 26.3209 18.0084 26.321C18.0086 26.3211 18.0087 26.3212 18.0089 26.3213C18.0091 26.3214 18.0093 26.3215 18.0095 26.3216C18.0097 26.3217 18.0098 26.3218 18.01 26.3219C18.0102 26.3219 18.0104 26.322 18.0106 26.3221C18.0108 26.3222 18.0109 26.3223 18.0111 26.3224C18.0113 26.3225 18.0115 26.3226 18.0117 26.3227C18.0118 26.3228 18.012 26.3229 18.0122 26.323C18.0124 26.323 18.0126 26.3231 18.0128 26.3232C18.0129 26.3233 18.0131 26.3234 18.0133 26.3235C18.0135 26.3236 18.0137 26.3237 18.0139 26.3238C18.014 26.3239 18.0142 26.324 18.0144 26.324C18.0146 26.3241 18.0148 26.3242 18.015 26.3243C18.0151 26.3244 18.0153 26.3245 18.0155 26.3246C18.0157 26.3247 18.0159 26.3248 18.0161 26.3249C18.0162 26.325 18.0164 26.3251 18.0166 26.3251C18.0168 26.3252 18.017 26.3253 18.0172 26.3254C18.0173 26.3255 18.0175 26.3256 18.0177 26.3257C18.0179 26.3258 18.0181 26.3259 18.0183 26.326C18.0184 26.3261 18.0186 26.3262 18.0188 26.3262C18.019 26.3263 18.0192 26.3264 18.0194 26.3265C18.0195 26.3266 18.0197 26.3267 18.0199 26.3268C18.0201 26.3269 18.0203 26.327 18.0205 26.3271C18.0206 26.3272 18.0208 26.3273 18.021 26.3273C18.0212 26.3274 18.0214 26.3275 18.0216 26.3276C18.0217 26.3277 18.0219 26.3278 18.0221 26.3279C18.0223 26.328 18.0225 26.3281 18.0227 26.3282C18.0228 26.3283 18.023 26.3284 18.0232 26.3284C18.0234 26.3285 18.0236 26.3286 18.0238 26.3287C18.0239 26.3288 18.0241 26.3289 18.0243 26.329C18.0245 26.3291 18.0247 26.3292 18.0248 26.3293C18.025 26.3294 18.0252 26.3295 18.0254 26.3295C18.0256 26.3296 18.0258 26.3297 18.0259 26.3298C18.0261 26.3299 18.0263 26.33 18.0265 26.3301C18.0267 26.3302 18.0269 26.3303 18.027 26.3304C18.0272 26.3305 18.0274 26.3305 18.0276 26.3306C18.0278 26.3307 18.028 26.3308 18.0281 26.3309C18.0283 26.331 18.0285 26.3311 18.0287 26.3312C18.0289 26.3313 18.0291 26.3314 18.0292 26.3315C18.0294 26.3316 18.0296 26.3316 18.0298 26.3317C18.03 26.3318 18.0302 26.3319 18.0303 26.332C18.0305 26.3321 18.0307 26.3322 18.0309 26.3323C18.0311 26.3324 18.0313 26.3325 18.0314 26.3326C18.0316 26.3327 18.0318 26.3327 18.032 26.3328C18.0322 26.3329 18.0324 26.333 18.0325 26.3331C18.0327 26.3332 18.0329 26.3333 18.0331 26.3334C18.0333 26.3335 18.0335 26.3336 18.0336 26.3337C18.0338 26.3338 18.034 26.3338 18.0342 26.3339C18.0344 26.334 18.0346 26.3341 18.0347 26.3342C18.0349 26.3343 18.0351 26.3344 18.0353 26.3345C18.0355 26.3346 18.0357 26.3347 18.0358 26.3348C18.036 26.3349 18.0362 26.3349 18.0364 26.335C18.0366 26.3351 18.0368 26.3352 18.0369 26.3353C18.0371 26.3354 18.0373 26.3355 18.0375 26.3356C18.0377 26.3357 18.0379 26.3358 18.038 26.3359C18.0382 26.336 18.0384 26.336 18.0386 26.3361C18.0388 26.3362 18.0389 26.3363 18.0391 26.3364C18.0393 26.3365 18.0395 26.3366 18.0397 26.3367C18.0399 26.3368 18.04 26.3369 18.0402 26.337C18.0404 26.337 18.0406 26.3371 18.0408 26.3372C18.041 26.3373 18.0411 26.3374 18.0413 26.3375C18.0415 26.3376 18.0417 26.3377 18.0419 26.3378C18.0421 26.3379 18.0422 26.338 18.0424 26.3381C18.0426 26.3381 18.0428 26.3382 18.043 26.3383C18.0432 26.3384 18.0433 26.3385 18.0435 26.3386C18.0437 26.3387 18.0439 26.3388 18.0441 26.3389C18.0443 26.339 18.0444 26.3391 18.0446 26.3392C18.0448 26.3392 18.045 26.3393 18.0452 26.3394C18.0454 26.3395 18.0455 26.3396 18.0457 26.3397C18.0459 26.3398 18.0461 26.3399 18.0463 26.34C18.0465 26.3401 18.0466 26.3402 18.0468 26.3403C18.047 26.3403 18.0472 26.3404 18.0474 26.3405C18.0476 26.3406 18.0477 26.3407 18.0479 26.3408C18.0481 26.3409 18.0483 26.341 18.0485 26.3411C18.0487 26.3412 18.0488 26.3413 18.049 26.3414C18.0492 26.3414 18.0494 26.3415 18.0496 26.3416C18.0498 26.3417 18.0499 26.3418 18.0501 26.3419C18.0503 26.342 18.0505 26.3421 18.0507 26.3422C18.0509 26.3423 18.051 26.3424 18.0512 26.3425C18.0514 26.3425 18.0516 26.3426 18.0518 26.3427C18.0519 26.3428 18.0521 26.3429 18.0523 26.343C18.0525 26.3431 18.0527 26.3432 18.0529 26.3433C18.053 26.3434 18.0532 26.3435 18.0534 26.3435C18.0536 26.3436 18.0538 26.3437 18.054 26.3438C18.0541 26.3439 18.0543 26.344 18.0545 26.3441C18.0547 26.3442 18.0549 26.3443 18.0551 26.3444C18.0552 26.3445 18.0554 26.3446 18.0556 26.3446C18.0558 26.3447 18.056 26.3448 18.0562 26.3449C18.0563 26.345 18.0565 26.3451 18.0567 26.3452C18.0569 26.3453 18.0571 26.3454 18.0573 26.3455C18.0574 26.3456 18.0576 26.3457 18.0578 26.3457C18.058 26.3458 18.0582 26.3459 18.0584 26.346C18.0585 26.3461 18.0587 26.3462 18.0589 26.3463C18.0591 26.3464 18.0593 26.3465 18.0595 26.3466C18.0596 26.3467 18.0598 26.3468 18.06 26.3468C18.0602 26.3469 18.0604 26.347 18.0606 26.3471C18.0607 26.3472 18.0609 26.3473 18.0611 26.3474C18.0613 26.3475 18.0615 26.3476 18.0617 26.3477C18.0618 26.3478 18.062 26.3479 18.0622 26.3479C18.0624 26.348 18.0626 26.3481 18.0628 26.3482C18.0629 26.3483 18.0631 26.3484 18.0633 26.3485C18.0635 26.3486 18.0637 26.3487 18.0639 26.3488C18.064 26.3489 18.0642 26.349 18.0644 26.349C18.0646 26.3491 18.0648 26.3492 18.065 26.3493C18.0651 26.3494 18.0653 26.3495 18.0655 26.3496C18.0657 26.3497 18.0659 26.3498 18.066 26.3499C18.0662 26.35 18.0664 26.35 18.0666 26.3501C18.0668 26.3502 18.067 26.3503 18.0671 26.3504C18.0673 26.3505 18.0675 26.3506 18.0677 26.3507C18.0679 26.3508 18.0681 26.3509 18.0682 26.351C18.0684 26.3511 18.0686 26.3511 18.0688 26.3512C18.069 26.3513 18.0692 26.3514 18.0693 26.3515C18.0695 26.3516 18.0697 26.3517 18.0699 26.3518C18.0701 26.3519 18.0703 26.352 18.0704 26.3521C18.0706 26.3522 18.0708 26.3522 18.071 26.3523C18.0712 26.3524 18.0714 26.3525 18.0715 26.3526C18.0717 26.3527 18.0719 26.3528 18.0721 26.3529C18.0723 26.353 18.0725 26.3531 18.0726 26.3532C18.0728 26.3533 18.073 26.3533 18.0732 26.3534C18.0734 26.3535 18.0736 26.3536 18.0737 26.3537C18.0739 26.3538 18.0741 26.3539 18.0743 26.354C18.0745 26.3541 18.0747 26.3542 18.0748 26.3543C18.075 26.3544 18.0752 26.3544 18.0754 26.3545C18.0756 26.3546 18.0758 26.3547 18.0759 26.3548C18.0761 26.3549 18.0763 26.355 18.0765 26.3551C18.0767 26.3552 18.0769 26.3553 18.077 26.3554C18.0772 26.3555 18.0774 26.3555 18.0776 26.3556C18.0778 26.3557 18.078 26.3558 18.0781 26.3559C18.0783 26.356 18.0785 26.3561 18.0787 26.3562C18.0789 26.3563 18.079 26.3564 18.0792 26.3565C18.0794 26.3566 18.0796 26.3566 18.0798 26.3567C18.08 26.3568 18.0801 26.3569 18.0803 26.357C18.0805 26.3571 18.0807 26.3572 18.0809 26.3573C18.0811 26.3574 18.0812 26.3575 18.0814 26.3576C18.0816 26.3576 18.0818 26.3577 18.082 26.3578C18.0822 26.3579 18.0823 26.358 18.0825 26.3581C18.0827 26.3582 18.0829 26.3583 18.0831 26.3584C18.0833 26.3585 18.0834 26.3586 18.0836 26.3587C18.0838 26.3587 18.084 26.3588 18.0842 26.3589C18.0844 26.359 18.0845 26.3591 18.0847 26.3592C18.0849 26.3593 18.0851 26.3594 18.0853 26.3595C18.0855 26.3596 18.0856 26.3597 18.0858 26.3598C18.086 26.3598 18.0862 26.3599 18.0864 26.36C18.0866 26.3601 18.0867 26.3602 18.0869 26.3603C18.0871 26.3604 18.0873 26.3605 18.0875 26.3606C18.0877 26.3607 18.0878 26.3608 18.088 26.3609C18.0882 26.3609 18.0884 26.361 18.0886 26.3611C18.0888 26.3612 18.0889 26.3613 18.0891 26.3614C18.0893 26.3615 18.0895 26.3616 18.0897 26.3617C18.0899 26.3618 18.09 26.3619 18.0902 26.362C18.0904 26.362 18.0906 26.3621 18.0908 26.3622C18.091 26.3623 18.0911 26.3624 18.0913 26.3625C18.0915 26.3626 18.0917 26.3627 18.0919 26.3628C18.092 26.3629 18.0922 26.363 18.0924 26.3631C18.0926 26.3631 18.0928 26.3632 18.093 26.3633C18.0931 26.3634 18.0933 26.3635 18.0935 26.3636C18.0937 26.3637 18.0939 26.3638 18.0941 26.3639C18.0942 26.364 18.0944 26.3641 18.0946 26.3641C18.0948 26.3642 18.095 26.3643 18.0952 26.3644C18.0953 26.3645 18.0955 26.3646 18.0957 26.3647C18.0959 26.3648 18.0961 26.3649 18.0963 26.365C18.0964 26.3651 18.0966 26.3652 18.0968 26.3652C18.097 26.3653 18.0972 26.3654 18.0974 26.3655C18.0975 26.3656 18.0977 26.3657 18.0979 26.3658C18.0981 26.3659 18.0983 26.366 18.0985 26.3661C18.0986 26.3662 18.0988 26.3663 18.099 26.3663C18.0992 26.3664 18.0994 26.3665 18.0996 26.3666C18.0997 26.3667 18.0999 26.3668 18.1001 26.3669C18.1003 26.367 18.1005 26.3671 18.1007 26.3672C18.1008 26.3673 18.101 26.3674 18.1012 26.3674C18.1014 26.3675 18.1016 26.3676 18.1018 26.3677C18.1019 26.3678 18.1021 26.3679 18.1023 26.368C18.1025 26.3681 18.1027 26.3682 18.1029 26.3683C18.103 26.3684 18.1032 26.3685 18.1034 26.3685C18.1036 26.3686 18.1038 26.3687 18.104 26.3688C18.1041 26.3689 18.1043 26.369 18.1045 26.3691C18.1047 26.3692 18.1049 26.3693 18.1051 26.3694C18.1052 26.3695 18.1054 26.3696 18.1056 26.3696C18.1058 26.3697 18.106 26.3698 18.1061 26.3699C18.1063 26.37 18.1065 26.3701 18.1067 26.3702C18.1069 26.3703 18.1071 26.3704 18.1072 26.3705C18.1074 26.3706 18.1076 26.3706 18.1078 26.3707C18.108 26.3708 18.1082 26.3709 18.1083 26.371C18.1085 26.3711 18.1087 26.3712 18.1089 26.3713C18.1091 26.3714 18.1093 26.3715 18.1094 26.3716C18.1096 26.3717 18.1098 26.3717 18.11 26.3718C18.1102 26.3719 18.1104 26.372 18.1105 26.3721C18.1107 26.3722 18.1109 26.3723 18.1111 26.3724C18.1113 26.3725 18.1115 26.3726 18.1116 26.3727C18.1118 26.3728 18.112 26.3728 18.1122 26.3729C18.1124 26.373 18.1126 26.3731 18.1127 26.3732C18.1129 26.3733 18.1131 26.3734 18.1133 26.3735C18.1135 26.3736 18.1137 26.3737 18.1138 26.3738C18.114 26.3739 18.1142 26.3739 18.1144 26.374C18.1146 26.3741 18.1148 26.3742 18.1149 26.3743C18.1151 26.3744 18.1153 26.3745 18.1155 26.3746C18.1157 26.3747 18.1159 26.3748 18.116 26.3749C18.1162 26.375 18.1164 26.375 18.1166 26.3751C18.1168 26.3752 18.117 26.3753 18.1171 26.3754C18.1173 26.3755 18.1175 26.3756 18.1177 26.3757C18.1179 26.3758 18.1181 26.3759 18.1182 26.376C18.1184 26.3761 18.1186 26.3761 18.1188 26.3762C18.119 26.3763 18.1191 26.3764 18.1193 26.3765C18.1195 26.3766 18.1197 26.3767 18.1199 26.3768C18.1201 26.3769 18.1202 26.377 18.1204 26.3771C18.1206 26.3771 18.1208 26.3772 18.121 26.3773C18.1212 26.3774 18.1213 26.3775 18.1215 26.3776C18.1217 26.3777 18.1219 26.3778 18.1221 26.3779C18.1223 26.378 18.1224 26.3781 18.1226 26.3782C18.1228 26.3782 18.123 26.3783 18.1232 26.3784C18.1234 26.3785 18.1235 26.3786 18.1237 26.3787C18.1239 26.3788 18.1241 26.3789 18.1243 26.379C18.1245 26.3791 18.1246 26.3792 18.1248 26.3793C18.125 26.3793 18.1252 26.3794 18.1254 26.3795C18.1256 26.3796 18.1257 26.3797 18.1259 26.3798C18.1261 26.3799 18.1263 26.38 18.1265 26.3801C18.1267 26.3802 18.1268 26.3803 18.127 26.3804C18.1272 26.3804 18.1274 26.3805 18.1276 26.3806C18.1278 26.3807 18.1279 26.3808 18.1281 26.3809C18.1283 26.381 18.1285 26.3811 18.1287 26.3812C18.1289 26.3813 18.129 26.3814 18.1292 26.3815C18.1294 26.3815 18.1296 26.3816 18.1298 26.3817C18.13 26.3818 18.1301 26.3819 18.1303 26.382C18.1305 26.3821 18.1307 26.3822 18.1309 26.3823C18.1311 26.3824 18.1312 26.3825 18.1314 26.3826C18.1316 26.3826 18.1318 26.3827 18.132 26.3828C18.1321 26.3829 18.1323 26.383 18.1325 26.3831C18.1327 26.3832 18.1329 26.3833 18.1331 26.3834C18.1332 26.3835 18.1334 26.3836 18.1336 26.3836L18.4914 25.6681ZM18.1365 25.4993C17.4267 25.3058 16.6837 25.6883 16.4762 26.3797L17.2425 26.6096C17.3163 26.3634 17.6045 26.1835 17.926 26.2712L18.1365 25.4993ZM16.4835 26.3579C16.2178 27.0884 16.6167 27.8426 17.3069 28.0496L17.5368 27.2834C17.2895 27.2092 17.1259 26.9321 17.2353 26.6313L16.4835 26.3579ZM17.139 27.9493C17.198 28.0083 17.2609 28.0417 17.3056 28.0612C17.3486 28.0799 17.3897 28.0917 17.4116 28.098C17.4408 28.1063 17.4497 28.1085 17.4639 28.1131C17.4744 28.1165 17.4776 28.1182 17.4774 28.118L17.8351 27.4025C17.788 27.3789 17.7444 27.363 17.7095 27.3517C17.6782 27.3417 17.6432 27.3322 17.6314 27.3288C17.6122 27.3233 17.6153 27.3235 17.6246 27.3275C17.6356 27.3323 17.6692 27.3482 17.7047 27.3837L17.139 27.9493ZM17.4987 28.1279C17.855 28.2806 18.4892 28.4749 18.9289 28.5726L19.1024 27.7917C18.6983 27.7019 18.1137 27.5211 17.8138 27.3926L17.4987 28.1279ZM18.6156 28.1821V28.4634H19.4156V28.1821H18.6156ZM18.6156 28.4634C18.6156 29.2339 19.2039 29.8478 19.9531 29.8478V29.0478C19.6711 29.0478 19.4156 28.8179 19.4156 28.4634H18.6156ZM19.9531 29.8478C20.7365 29.8478 21.3375 29.2468 21.3375 28.4634H20.5375C20.5375 28.805 20.2947 29.0478 19.9531 29.0478V29.8478ZM21.3375 28.4634V28.229H20.5375V28.4634H21.3375ZM21.0159 28.6212C21.2928 28.5659 21.562 28.4569 21.7892 28.366L21.4921 27.6232C21.2505 27.7199 21.0509 27.7984 20.8591 27.8368L21.0159 28.6212ZM21.7811 28.3692C22.658 28.0403 23.3161 27.3215 23.532 26.2958L22.7492 26.131C22.5902 26.8865 22.1233 27.3864 21.5002 27.6201L21.7811 28.3692ZM23.539 26.2496C23.5868 25.7231 23.5972 25.166 23.3655 24.6447L22.6345 24.9696C22.7778 25.292 22.7882 25.6724 22.7423 26.1772L23.539 26.2496ZM23.3655 24.6447C23.1359 24.128 22.7376 23.7943 22.4592 23.5623L21.9471 24.1769C22.2312 24.4137 22.4891 24.6425 22.6345 24.9696L23.3655 24.6447ZM22.4431 23.5496C21.8156 23.079 20.9398 22.8238 20.4077 22.6464L20.1548 23.4054C20.7477 23.603 21.4657 23.8165 21.9631 24.1896L22.4431 23.5496ZM20.2812 22.6259H20.2344V23.4259H20.2812V22.6259ZM20.3443 22.6413C19.6756 22.4502 19.317 22.3242 19.0969 22.1774L18.6531 22.8431C18.9955 23.0713 19.4807 23.2265 20.1245 23.4105L20.3443 22.6413ZM19.0969 22.1774C19.0654 22.1564 19.0433 22.1408 19.0279 22.1292C19.0119 22.117 19.0084 22.1131 19.0114 22.1161C19.0138 22.1185 19.0323 22.1371 19.0505 22.1715C19.0712 22.2105 19.0875 22.2626 19.0875 22.3228H18.2875C18.2875 22.5004 18.3841 22.6202 18.4457 22.6818C18.5053 22.7414 18.5813 22.7952 18.6531 22.8431L19.0969 22.1774ZM18.6875 22.3228C18.9703 22.0399 18.9707 22.0403 18.971 22.0406C18.9711 22.0407 18.9715 22.0411 18.9717 22.0413C18.9722 22.0418 18.9726 22.0422 18.9731 22.0427C18.974 22.0436 18.9749 22.0445 18.9758 22.0455C18.9776 22.0473 18.9794 22.0492 18.9811 22.0511C18.9846 22.0549 18.988 22.0587 18.9913 22.0626C18.9979 22.0704 19.0041 22.0782 19.0098 22.0862C19.0214 22.1022 19.0309 22.1181 19.0387 22.1336C19.0543 22.165 19.0614 22.1918 19.0645 22.2101C19.0702 22.2447 19.061 22.2437 19.0756 22.1854L18.2994 21.9914C18.2672 22.1205 18.2579 22.2368 18.2754 22.3416C18.2843 22.3951 18.3001 22.4454 18.3231 22.4914C18.3346 22.5142 18.3474 22.5353 18.3613 22.5546C18.3682 22.5642 18.3754 22.5732 18.3827 22.5818C18.3863 22.586 18.3899 22.5901 18.3936 22.5941C18.3955 22.5961 18.3973 22.598 18.3991 22.6C18.4001 22.6009 18.401 22.6019 18.4019 22.6028C18.4024 22.6033 18.4028 22.6037 18.4033 22.6042C18.4035 22.6044 18.4039 22.6048 18.404 22.6049C18.4043 22.6053 18.4047 22.6056 18.6875 22.3228ZM19.0875 22.0884C19.0875 22.1743 19.0474 22.2074 19.0655 22.1875C19.081 22.1705 19.1295 22.1271 19.2414 22.0711L18.8836 21.3556C18.7143 21.4403 18.5753 21.5375 18.4736 21.6494C18.3744 21.7584 18.2875 21.9087 18.2875 22.0884H19.0875ZM19.2414 22.0711C19.4201 21.9818 19.7956 21.9258 20.3912 21.9716L20.4526 21.1739C19.8294 21.126 19.2674 21.1637 18.8836 21.3556L19.2414 22.0711ZM20.3249 21.9608C20.4238 21.9856 20.6436 22.0344 20.8425 22.0799C21.0592 22.1294 21.233 22.171 21.2798 22.1866L21.5327 21.4277C21.4389 21.3964 21.2142 21.3442 21.0208 21.3C20.8095 21.2517 20.6074 21.2068 20.5189 21.1847L20.3249 21.9608ZM21.301 22.193C22.0413 22.3949 22.7629 21.9269 22.9613 21.2658L22.195 21.0359C22.1121 21.3124 21.8025 21.5006 21.5115 21.4212L21.301 22.193ZM22.964 21.2561C23.1659 20.5159 22.6979 19.7942 22.0368 19.5959L21.8069 20.3621C22.0834 20.4451 22.2716 20.7546 22.1922 21.0456L22.964 21.2561ZM22.0003 19.5868C21.7685 19.5404 21.2924 19.4451 21.0033 19.3969L20.8717 20.1861C21.1451 20.2316 21.6065 20.3238 21.8434 20.3712L22.0003 19.5868ZM21.3375 19.7915V19.4634H20.5375V19.7915H21.3375Z" fill="#1A1A1A"/>
</svg>
