<svg width="40" height="41" viewBox="0 0 40 41" fill="none" xmlns="http://www.w3.org/2000/svg">
<rect x="0.3" y="1.26338" width="39.4" height="39.4" rx="4.7" fill="#AEA1F7" stroke="#1A1A1A" stroke-width="0.6"/>
<path d="M11.6094 9.104C12.0312 8.9165 12.5 8.96338 12.8281 9.24463L14.75 10.8853L16.625 9.24463C17.0469 8.9165 17.6562 8.9165 18.0781 9.24463L20 10.8853L21.875 9.24463C22.2969 8.9165 22.9062 8.9165 23.3281 9.24463L25.25 10.8853L27.125 9.24463C27.4531 8.96338 27.9219 8.9165 28.3438 9.104C28.7188 9.2915 29 9.6665 29 10.0884V31.8384C29 32.3071 28.7188 32.6821 28.3438 32.8696C27.9219 33.0571 27.4531 33.0103 27.125 32.729L25.25 31.0884L23.3281 32.729C22.9062 33.0571 22.2969 33.0571 21.875 32.729L20 31.0884L18.0781 32.729C17.6562 33.0571 17.0469 33.0571 16.625 32.729L14.75 31.0884L12.8281 32.729C12.5 33.0103 12.0312 33.0571 11.6094 32.8696C11.2344 32.6821 11 32.3071 11 31.8384V10.0884C11 9.6665 11.2344 9.2915 11.6094 9.104ZM15.5 15.7134C15.0781 15.7134 14.75 16.0884 14.75 16.4634C14.75 16.8853 15.0781 17.2134 15.5 17.2134H24.5C24.875 17.2134 25.25 16.8853 25.25 16.4634C25.25 16.0884 24.875 15.7134 24.5 15.7134H15.5ZM15.5 26.2134H24.5C24.875 26.2134 25.25 25.8853 25.25 25.4634C25.25 25.0884 24.875 24.7134 24.5 24.7134H15.5C15.0781 24.7134 14.75 25.0884 14.75 25.4634C14.75 25.8853 15.0781 26.2134 15.5 26.2134ZM15.5 20.2134C15.0781 20.2134 14.75 20.5884 14.75 20.9634C14.75 21.3853 15.0781 21.7134 15.5 21.7134H24.5C24.875 21.7134 25.25 21.3853 25.25 20.9634C25.25 20.5884 24.875 20.2134 24.5 20.2134H15.5Z" fill="white"/>
<path d="M11.6094 9.104L11.3657 8.55572L11.3532 8.56125L11.341 8.56735L11.6094 9.104ZM12.8281 9.24463L12.4376 9.70018L12.4386 9.70097L12.8281 9.24463ZM14.75 10.8853L14.3604 11.3416L14.7548 11.6783L15.1451 11.3368L14.75 10.8853ZM16.625 9.24463L16.2566 8.77102L16.2429 8.78166L16.2299 8.79308L16.625 9.24463ZM18.0781 9.24463L18.4677 8.78829L18.4573 8.77941L18.4465 8.77102L18.0781 9.24463ZM20 10.8853L19.6104 11.3416L20.0048 11.6783L20.3951 11.3368L20 10.8853ZM21.875 9.24463L21.5066 8.77102L21.4929 8.78166L21.4799 8.79308L21.875 9.24463ZM23.3281 9.24463L23.7177 8.78829L23.7073 8.77941L23.6965 8.77102L23.3281 9.24463ZM25.25 10.8853L24.8604 11.3416L25.2548 11.6783L25.6451 11.3368L25.25 10.8853ZM27.125 9.24463L26.7345 8.78905L26.7299 8.79308L27.125 9.24463ZM28.3438 9.104L28.6121 8.56735L28.5999 8.56125L28.5874 8.55572L28.3438 9.104ZM28.3438 32.8696L28.5874 33.4179L28.5999 33.4124L28.6121 33.4063L28.3438 32.8696ZM27.125 32.729L26.7299 33.1806L26.7345 33.1846L27.125 32.729ZM25.25 31.0884L25.6451 30.6368L25.2548 30.2954L24.8604 30.632L25.25 31.0884ZM23.3281 32.729L23.6965 33.2026L23.7073 33.1942L23.7177 33.1853L23.3281 32.729ZM21.875 32.729L21.4799 33.1805L21.4929 33.192L21.5066 33.2026L21.875 32.729ZM20 31.0884L20.3951 30.6368L20.0048 30.2954L19.6104 30.632L20 31.0884ZM18.0781 32.729L18.4465 33.2026L18.4573 33.1942L18.4677 33.1853L18.0781 32.729ZM16.625 32.729L16.2299 33.1805L16.2429 33.192L16.2566 33.2026L16.625 32.729ZM14.75 31.0884L15.1451 30.6368L14.7548 30.2954L14.3604 30.632L14.75 31.0884ZM12.8281 32.729L12.4386 32.2727L12.4377 32.2734L12.8281 32.729ZM11.6094 32.8696L11.341 33.4063L11.3532 33.4124L11.3657 33.4179L11.6094 32.8696ZM11.8531 9.65229C12.094 9.54519 12.3094 9.5903 12.4377 9.70018L13.2186 8.78907C12.6906 8.33646 11.9685 8.28782 11.3657 8.55572L11.8531 9.65229ZM12.4386 9.70097L14.3604 11.3416L15.1396 10.4289L13.2177 8.78829L12.4386 9.70097ZM15.1451 11.3368L17.0201 9.69617L16.2299 8.79308L14.3549 10.4337L15.1451 11.3368ZM16.9934 9.71824C17.1986 9.55863 17.5046 9.55863 17.7098 9.71824L18.4465 8.77102C17.8079 8.27437 16.8952 8.27437 16.2566 8.77102L16.9934 9.71824ZM17.6886 9.70097L19.6104 11.3416L20.3896 10.4289L18.4677 8.78829L17.6886 9.70097ZM20.3951 11.3368L22.2701 9.69617L21.4799 8.79308L19.6049 10.4337L20.3951 11.3368ZM22.2434 9.71824C22.4486 9.55863 22.7546 9.55863 22.9598 9.71824L23.6965 8.77102C23.0579 8.27437 22.1452 8.27437 21.5066 8.77102L22.2434 9.71824ZM22.9386 9.70097L24.8604 11.3416L25.6396 10.4289L23.7177 8.78829L22.9386 9.70097ZM25.6451 11.3368L27.5201 9.69617L26.7299 8.79308L24.8549 10.4337L25.6451 11.3368ZM27.5155 9.70018C27.6437 9.5903 27.8591 9.54519 28.1001 9.65229L28.5874 8.55572C27.9847 8.28782 27.2626 8.33646 26.7345 8.78907L27.5155 9.70018ZM28.0754 9.64066C28.2911 9.74848 28.4 9.93902 28.4 10.0884H29.6C29.6 9.39399 29.1464 8.83453 28.6121 8.56735L28.0754 9.64066ZM28.4 10.0884V31.8384H29.6V10.0884H28.4ZM28.4 31.8384C28.4 32.0484 28.2769 32.2322 28.0754 32.333L28.6121 33.4063C29.1606 33.132 29.6 32.5659 29.6 31.8384H28.4ZM28.1001 32.3213C27.8591 32.4284 27.6437 32.3833 27.5155 32.2734L26.7345 33.1846C27.2626 33.6372 27.9847 33.6858 28.5874 33.4179L28.1001 32.3213ZM27.5201 32.2775L25.6451 30.6368L24.8549 31.5399L26.7299 33.1805L27.5201 32.2775ZM24.8604 30.632L22.9386 32.2727L23.7177 33.1853L25.6396 31.5447L24.8604 30.632ZM22.9598 32.2554C22.7546 32.415 22.4486 32.415 22.2434 32.2554L21.5066 33.2026C22.1452 33.6993 23.0579 33.6993 23.6965 33.2026L22.9598 32.2554ZM22.2701 32.2775L20.3951 30.6368L19.6049 31.5399L21.4799 33.1805L22.2701 32.2775ZM19.6104 30.632L17.6886 32.2727L18.4677 33.1853L20.3896 31.5447L19.6104 30.632ZM17.7098 32.2554C17.5046 32.415 17.1986 32.415 16.9934 32.2554L16.2566 33.2026C16.8952 33.6993 17.8079 33.6993 18.4465 33.2026L17.7098 32.2554ZM17.0201 32.2775L15.1451 30.6368L14.3549 31.5399L16.2299 33.1805L17.0201 32.2775ZM14.3604 30.632L12.4386 32.2727L13.2177 33.1853L15.1396 31.5447L14.3604 30.632ZM12.4377 32.2734C12.3094 32.3833 12.094 32.4284 11.8531 32.3213L11.3657 33.4179C11.9685 33.6858 12.6906 33.6372 13.2186 33.1846L12.4377 32.2734ZM11.8777 32.333C11.7169 32.2526 11.6 32.0924 11.6 31.8384H10.4C10.4 32.5219 10.7518 33.1117 11.341 33.4063L11.8777 32.333ZM11.6 31.8384V10.0884H10.4V31.8384H11.6ZM11.6 10.0884C11.6 9.89557 11.7044 9.72733 11.8777 9.64066L11.341 8.56735C10.7644 8.85567 10.4 9.43744 10.4 10.0884H11.6ZM15.5 15.1134C14.7229 15.1134 14.15 15.7813 14.15 16.4634H15.35C15.35 16.4472 15.3602 16.4045 15.4 16.3629C15.4364 16.3249 15.4728 16.3134 15.5 16.3134V15.1134ZM14.15 16.4634C14.15 17.2166 14.7468 17.8134 15.5 17.8134V16.6134C15.4485 16.6134 15.4135 16.5948 15.3911 16.5723C15.3686 16.5499 15.35 16.5149 15.35 16.4634H14.15ZM15.5 17.8134H24.5V16.6134H15.5V17.8134ZM24.5 17.8134C25.182 17.8134 25.85 17.2404 25.85 16.4634H24.65C24.65 16.4906 24.6385 16.527 24.6005 16.5634C24.5589 16.6032 24.5161 16.6134 24.5 16.6134V17.8134ZM25.85 16.4634C25.85 16.0807 25.6647 15.7483 25.4399 15.5235C25.2151 15.2987 24.8826 15.1134 24.5 15.1134V16.3134C24.4939 16.3134 24.5014 16.3121 24.5217 16.3215C24.542 16.331 24.5671 16.3478 24.5914 16.372C24.6156 16.3963 24.6324 16.4214 24.6418 16.4417C24.6513 16.462 24.65 16.4695 24.65 16.4634H25.85ZM24.5 15.1134H15.5V16.3134H24.5V15.1134ZM15.5 26.8134H24.5V25.6134H15.5V26.8134ZM24.5 26.8134C25.182 26.8134 25.85 26.2404 25.85 25.4634H24.65C24.65 25.4906 24.6385 25.527 24.6005 25.5634C24.5589 25.6032 24.5161 25.6134 24.5 25.6134V26.8134ZM25.85 25.4634C25.85 25.0807 25.6647 24.7483 25.4399 24.5235C25.2151 24.2987 24.8826 24.1134 24.5 24.1134V25.3134C24.4939 25.3134 24.5014 25.3121 24.5217 25.3215C24.542 25.331 24.5671 25.3478 24.5914 25.372C24.6156 25.3963 24.6324 25.4214 24.6418 25.4417C24.6513 25.462 24.65 25.4695 24.65 25.4634H25.85ZM24.5 24.1134H15.5V25.3134H24.5V24.1134ZM15.5 24.1134C14.7229 24.1134 14.15 24.7813 14.15 25.4634H15.35C15.35 25.4472 15.3602 25.4045 15.4 25.3629C15.4364 25.3249 15.4728 25.3134 15.5 25.3134V24.1134ZM14.15 25.4634C14.15 26.2166 14.7468 26.8134 15.5 26.8134V25.6134C15.4485 25.6134 15.4135 25.5948 15.3911 25.5723C15.3686 25.5499 15.35 25.5149 15.35 25.4634H14.15ZM15.5 19.6134C14.7229 19.6134 14.15 20.2813 14.15 20.9634H15.35C15.35 20.9472 15.3602 20.9045 15.4 20.8629C15.4364 20.8249 15.4728 20.8134 15.5 20.8134V19.6134ZM14.15 20.9634C14.15 21.7166 14.7468 22.3134 15.5 22.3134V21.1134C15.4485 21.1134 15.4135 21.0948 15.3911 21.0723C15.3686 21.0499 15.35 21.0149 15.35 20.9634H14.15ZM15.5 22.3134H24.5V21.1134H15.5V22.3134ZM24.5 22.3134C25.182 22.3134 25.85 21.7404 25.85 20.9634H24.65C24.65 20.9906 24.6385 21.027 24.6005 21.0634C24.5589 21.1032 24.5161 21.1134 24.5 21.1134V22.3134ZM25.85 20.9634C25.85 20.5807 25.6647 20.2483 25.4399 20.0235C25.2151 19.7987 24.8826 19.6134 24.5 19.6134V20.8134C24.4939 20.8134 24.5014 20.8121 24.5217 20.8215C24.542 20.831 24.5671 20.8478 24.5914 20.872C24.6156 20.8963 24.6324 20.9214 24.6418 20.9417C24.6513 20.962 24.65 20.9695 24.65 20.9634H25.85ZM24.5 19.6134H15.5V20.8134H24.5V19.6134Z" fill="#1A1A1A"/>
</svg>
