<svg width="40" height="41" viewBox="0 0 40 41" fill="none" xmlns="http://www.w3.org/2000/svg">
<rect x="0.3" y="1.26338" width="39.4" height="39.4" rx="4.7" fill="#AEA1F7" stroke="#1A1A1A" stroke-width="0.6"/>
<path d="M23 24.7134C23 25.1353 22.625 25.4634 22.25 25.4634H17.75C17.3281 25.4634 17 25.1353 17 24.7134V22.4634H8V29.2134C8 30.4321 9.03125 31.4634 10.25 31.4634H29.75C30.9219 31.4634 32 30.4321 32 29.2134V22.4634H23V24.7134ZM29.75 14.9634H26V12.7134C26 11.5415 24.9219 10.4634 23.75 10.4634H16.25C15.0312 10.4634 14 11.5415 14 12.7134V14.9634H10.25C9.03125 14.9634 8 16.0415 8 17.2134V20.9634H32V17.2134C32 16.0415 30.9219 14.9634 29.75 14.9634ZM23 14.9634H17V13.4634H23V14.9634Z" fill="white"/>
<path d="M17 22.4634H17.6V21.8634H17V22.4634ZM8 22.4634V21.8634H7.4V22.4634H8ZM32 22.4634H32.6V21.8634H32V22.4634ZM23 22.4634V21.8634H22.4V22.4634H23ZM26 14.9634H25.4V15.5634H26V14.9634ZM14 14.9634V15.5634H14.6V14.9634H14ZM8 20.9634H7.4V21.5634H8V20.9634ZM32 20.9634V21.5634H32.6V20.9634H32ZM23 14.9634V15.5634H23.6V14.9634H23ZM17 14.9634H16.4V15.5634H17V14.9634ZM17 13.4634V12.8634H16.4V13.4634H17ZM23 13.4634H23.6V12.8634H23V13.4634ZM22.4 24.7134C22.4 24.7406 22.3885 24.777 22.3505 24.8134C22.3089 24.8532 22.2661 24.8634 22.25 24.8634V26.0634C22.932 26.0634 23.6 25.4904 23.6 24.7134H22.4ZM22.25 24.8634H17.75V26.0634H22.25V24.8634ZM17.75 24.8634C17.6985 24.8634 17.6635 24.8448 17.6411 24.8223C17.6186 24.7999 17.6 24.7649 17.6 24.7134H16.4C16.4 25.4666 16.9968 26.0634 17.75 26.0634V24.8634ZM17.6 24.7134V22.4634H16.4V24.7134H17.6ZM17 21.8634H8V23.0634H17V21.8634ZM7.4 22.4634V29.2134H8.6V22.4634H7.4ZM7.4 29.2134C7.4 30.7635 8.69988 32.0634 10.25 32.0634V30.8634C9.36262 30.8634 8.6 30.1008 8.6 29.2134H7.4ZM10.25 32.0634H29.75V30.8634H10.25V32.0634ZM29.75 32.0634C31.2452 32.0634 32.6 30.7715 32.6 29.2134H31.4C31.4 30.0928 30.5986 30.8634 29.75 30.8634V32.0634ZM32.6 29.2134V22.4634H31.4V29.2134H32.6ZM32 21.8634H23V23.0634H32V21.8634ZM22.4 22.4634V24.7134H23.6V22.4634H22.4ZM29.75 14.3634H26V15.5634H29.75V14.3634ZM26.6 14.9634V12.7134H25.4V14.9634H26.6ZM26.6 12.7134C26.6 11.9438 26.2486 11.2346 25.7387 10.7247C25.2288 10.2147 24.5196 9.86338 23.75 9.86338V11.0634C24.1523 11.0634 24.5681 11.2511 24.8902 11.5732C25.2123 11.8953 25.4 12.3111 25.4 12.7134H26.6ZM23.75 9.86338H16.25V11.0634H23.75V9.86338ZM16.25 9.86338C14.6919 9.86338 13.4 11.2182 13.4 12.7134H14.6C14.6 11.8648 15.3706 11.0634 16.25 11.0634V9.86338ZM13.4 12.7134V14.9634H14.6V12.7134H13.4ZM14 14.3634H10.25V15.5634H14V14.3634ZM10.25 14.3634C8.69188 14.3634 7.4 15.7182 7.4 17.2134H8.6C8.6 16.3648 9.37062 15.5634 10.25 15.5634V14.3634ZM7.4 17.2134V20.9634H8.6V17.2134H7.4ZM8 21.5634H32V20.3634H8V21.5634ZM32.6 20.9634V17.2134H31.4V20.9634H32.6ZM32.6 17.2134C32.6 16.4438 32.2486 15.7346 31.7387 15.2247C31.2288 14.7147 30.5196 14.3634 29.75 14.3634V15.5634C30.1523 15.5634 30.5681 15.7511 30.8902 16.0732C31.2123 16.3953 31.4 16.8111 31.4 17.2134H32.6ZM23 14.3634H17V15.5634H23V14.3634ZM17.6 14.9634V13.4634H16.4V14.9634H17.6ZM17 14.0634H23V12.8634H17V14.0634ZM22.4 13.4634V14.9634H23.6V13.4634H22.4Z" fill="#1A1A1A"/>
</svg>
