<svg width="58" height="53" viewBox="0 0 58 53" fill="none" xmlns="http://www.w3.org/2000/svg">
<path d="M37.2377 26.9667L33.1172 22.8462L38.1534 4.07495C55.0017 8.1039 57.6877 20.0992 56.9246 25.5932L37.2377 26.9667Z" fill="white" stroke="#18181B" stroke-width="0.91567"/>
<path d="M53.262 17.7185L56.9246 21.3812" stroke="#18181B" stroke-width="0.366268" stroke-linecap="round"/>
<path d="M51.4304 14.0557L55.5509 17.2605" stroke="#18181B" stroke-width="0.366268" stroke-linecap="round"/>
<path d="M35.8643 22.7546L39.0691 26.4173" stroke="#18181B" stroke-width="0.366268" stroke-linecap="round"/>
<path d="M39.5269 22.7546L42.7317 26.4173" stroke="#18181B" stroke-width="0.366268" stroke-linecap="round"/>
<path d="M43.6475 22.2969L46.3945 25.9596" stroke="#18181B" stroke-width="0.366268" stroke-linecap="round"/>
<path d="M47.3101 21.8389L50.5149 25.9594" stroke="#18181B" stroke-width="0.366268" stroke-linecap="round"/>
<path d="M50.9727 21.3811L54.1775 25.5016" stroke="#18181B" stroke-width="0.366268" stroke-linecap="round"/>
<path d="M52.804 20.4653L56.9245 25.5015" stroke="#18181B" stroke-width="0.91567"/>
<path d="M33.1176 22.8451C32.385 22.4789 35.2541 10.1784 36.7803 4.07391C44.563 2.70061 55.0932 17.3523 53.2619 21.0138C46.8523 21.7769 33.8501 23.2114 33.1176 22.8451Z" fill="white" stroke="#18181B" stroke-width="0.91567" stroke-linejoin="round"/>
<path d="M35.4062 8.56177C37.5428 8.71438 42.3653 10.21 44.5629 14.9715" stroke="#18181B" stroke-width="0.366268" stroke-linecap="round"/>
<path d="M35.4062 11.3088C36.9018 11.4178 40.2776 12.4861 41.8159 15.8872" stroke="#18181B" stroke-width="0.366268" stroke-linecap="round"/>
<path d="M51.2691 31.4514L46.1817 27.4372L29.5164 31.4516L32.8266 14.8012L30.3949 11.186C15.6409 8.90249 8.86726 21.144 7.29102 27.1698C3.50796 45.0572 19.2707 51.4319 27.625 52.3834C43.8921 53.9057 51.7419 41.4414 51.2691 31.4514Z" fill="white" stroke="#18181B" stroke-width="0.928638"/>
<path d="M46.1816 30.6875L51.2892 34.4021" stroke="#18181B" stroke-width="0.371455"/>
<path d="M45.7173 35.3306L50.3605 38.5808" stroke="#18181B" stroke-width="0.371455"/>
<path d="M43.8601 39.9739L48.039 43.2241" stroke="#18181B" stroke-width="0.371455"/>
<path d="M41.5386 43.6882L45.2531 46.4741" stroke="#18181B" stroke-width="0.371455"/>
<path d="M39.2168 46.4744L42.467 48.796" stroke="#18181B" stroke-width="0.371455"/>
<path d="M36.4309 48.3315L39.2168 50.6531" stroke="#18181B" stroke-width="0.371455"/>
<path d="M32.7163 49.7246L35.0379 52.0462" stroke="#18181B" stroke-width="0.371455"/>
<path d="M29.9304 50.6531L30.8591 52.5104" stroke="#18181B" stroke-width="0.371455"/>
<mask id="path-22-inside-1_110_1884" fill="white">
<path d="M46.1183 27.2169C46.9624 31.5414 46.4265 36.0156 44.5903 39.9764C42.754 43.9371 39.715 47.1736 35.9239 49.2059C32.1328 51.2382 27.7914 51.9581 23.5432 51.2591C19.295 50.56 15.3663 48.479 12.3395 45.3247C9.31267 42.1705 7.34885 38.1107 6.73919 33.7475C6.12952 29.3842 6.90646 24.9496 8.95483 21.1012C11.0032 17.2527 14.2139 14.1953 18.1111 12.3822C22.0082 10.5691 26.3842 10.0967 30.5905 11.0352L26.5224 31.0417L46.1183 27.2169Z"/>
</mask>
<path d="M46.1183 27.2169C46.9624 31.5414 46.4265 36.0156 44.5903 39.9764C42.754 43.9371 39.715 47.1736 35.9239 49.2059C32.1328 51.2382 27.7914 51.9581 23.5432 51.2591C19.295 50.56 15.3663 48.479 12.3395 45.3247C9.31267 42.1705 7.34885 38.1107 6.73919 33.7475C6.12952 29.3842 6.90646 24.9496 8.95483 21.1012C11.0032 17.2527 14.2139 14.1953 18.1111 12.3822C22.0082 10.5691 26.3842 10.0967 30.5905 11.0352L26.5224 31.0417L46.1183 27.2169Z" fill="white" stroke="#18181B" stroke-width="1.85728" stroke-linecap="round" stroke-linejoin="round" mask="url(#path-22-inside-1_110_1884)"/>
<path d="M42.4672 36.7236C40.7647 39.8191 35.6881 46.1029 29.002 46.4743" stroke="#18181B" stroke-width="0.371455" stroke-linecap="round"/>
<path d="M29.4663 13.9719C25.2874 14.1267 16.2796 16.2007 13.6794 23.2583" stroke="#18181B" stroke-width="0.371455" stroke-linecap="round"/>
<path d="M13.215 24.6514C12.9055 25.2705 12.2864 27.2516 12.2864 30.2232" stroke="#18181B" stroke-width="0.371455" stroke-linecap="round"/>
<path d="M29.4663 13.9719L32.2522 17.6865" stroke="#18181B" stroke-width="0.742911"/>
<path d="M28.5376 18.1509L31.3235 21.4011" stroke="#18181B" stroke-width="0.742911"/>
<path d="M28.0732 21.8652L30.8592 25.1155" stroke="#18181B" stroke-width="0.742911"/>
<path d="M27.1445 25.1155L29.9304 28.3657" stroke="#18181B" stroke-width="0.742911"/>
<path d="M26.6802 28.8301L29.0018 31.1517" stroke="#18181B" stroke-width="0.742911"/>
</svg>
