<svg width="51" height="51" viewBox="0 0 51 51" fill="none" xmlns="http://www.w3.org/2000/svg">
<path d="M3.22851 17.0727H10.4081C18.1446 17.0578 34.2318 17.01 36.6882 16.9384C39.1446 16.8668 39.9092 18.1622 39.9845 18.8189C40.0146 25.1467 40.0567 38.4024 39.9845 40.8022C39.9122 43.2021 38.4492 43.8916 37.7267 43.9363C32.3985 43.7871 21.4168 43.5782 20.1164 43.9363C18.4908 44.3841 10.6339 50.3836 8.87285 49.9807C7.11182 49.5777 7.96976 45.9063 8.01491 44.9661C8.06007 44.0259 8.15038 43.8916 4.40253 43.9363C1.40426 43.9722 0.895513 41.8022 1.01593 40.7127C1.04603 34.7132 1.08817 22.1141 1.01593 19.7143C0.943678 17.3145 2.46088 16.9533 3.22851 17.0727Z" fill="white"/>
<path fill-rule="evenodd" clip-rule="evenodd" d="M36.6735 16.4386C39.343 16.3607 40.3713 17.8034 40.4811 18.7619L40.4843 18.7891L40.4844 18.8164C40.5145 25.1372 40.5568 38.4061 40.4842 40.8173C40.4449 42.1231 40.0225 43.0207 39.4577 43.6011C38.903 44.1711 38.2386 44.4055 37.7576 44.4353L37.7351 44.4367L37.7127 44.4361C35.0507 44.3615 30.9769 44.2721 27.4074 44.246C25.6222 44.233 23.9667 44.2358 22.6782 44.2641C22.0336 44.2782 21.4852 44.2987 21.0603 44.3263C20.6183 44.355 20.3547 44.3892 20.2491 44.4183C20.1087 44.457 19.8541 44.5727 19.4801 44.779C19.1181 44.9785 18.6799 45.2425 18.186 45.5505C17.6521 45.8835 17.0712 46.2564 16.461 46.6482C15.9296 46.9894 15.376 47.3448 14.812 47.7004C13.6169 48.454 12.4022 49.1909 11.3703 49.7149C10.8551 49.9766 10.3716 50.1924 9.95018 50.3302C9.55071 50.4608 9.1229 50.5508 8.76124 50.468C8.11748 50.3207 7.734 49.8661 7.5253 49.3453C7.32365 48.842 7.26648 48.2409 7.26648 47.6748C7.26648 47.1009 7.32595 46.517 7.38591 46.0287C7.40689 45.8578 7.42712 45.7036 7.44516 45.5662C7.48133 45.2907 7.50866 45.0826 7.5154 44.9421C7.51654 44.9185 7.51764 44.8964 7.51867 44.8755C7.52327 44.7829 7.52665 44.7149 7.5263 44.6529C7.52609 44.6165 7.52445 44.5916 7.52265 44.5751C7.5114 44.57 7.49559 44.5637 7.4741 44.5566C7.32638 44.5077 7.04968 44.4666 6.53411 44.4457C6.0307 44.4253 5.34536 44.4251 4.40842 44.4363C2.77367 44.4558 1.73125 43.8658 1.13429 43.0392C0.565979 42.2523 0.451814 41.3204 0.51597 40.6851C0.546099 34.6687 0.587868 22.1144 0.516064 19.7293C0.476642 18.4198 0.872903 17.559 1.49362 17.0593C2.07767 16.5891 2.77747 16.5071 3.26432 16.5727H10.4075C18.1503 16.5577 34.2261 16.5099 36.6735 16.4386ZM39.4846 18.8529C39.4257 18.4743 38.9 17.3741 36.7027 17.4381C34.2373 17.51 18.1395 17.5578 10.409 17.5727L3.18977 17.5727L3.15158 17.5667C2.87191 17.5232 2.45255 17.5711 2.12073 17.8382C1.809 18.0892 1.48279 18.6089 1.51561 19.6992C1.5882 22.1105 1.5459 34.7226 1.51583 40.7152L1.5157 40.7415L1.51281 40.7676C1.46266 41.2214 1.54767 41.9036 1.94497 42.4537C2.32185 42.9756 3.03294 43.4526 4.39647 43.4363C5.33345 43.4251 6.04226 43.4249 6.5746 43.4465C7.09476 43.4676 7.49538 43.5104 7.78792 43.6071C7.94079 43.6576 8.09014 43.7308 8.21594 43.845C8.34787 43.9648 8.42952 44.1074 8.47493 44.257C8.51726 44.3965 8.52564 44.5342 8.52628 44.6472C8.52681 44.7398 8.52166 44.8421 8.51696 44.9354C8.51602 44.954 8.5151 44.9723 8.51425 44.9901C8.50545 45.1732 8.46909 45.4506 8.42895 45.7569C8.4122 45.8847 8.39479 46.0175 8.37846 46.1505C8.31989 46.6276 8.26648 47.163 8.26648 47.6748C8.26648 48.1944 8.32219 48.6455 8.45355 48.9733C8.57787 49.2836 8.74754 49.439 8.98429 49.4932C9.06289 49.5112 9.26584 49.5018 9.63947 49.3797C9.99116 49.2647 10.4231 49.0745 10.9175 48.8234C11.9049 48.3218 13.0862 47.6064 14.2786 46.8545C14.8227 46.5115 15.3752 46.1568 15.9096 45.8138C16.5303 45.4154 17.1266 45.0327 17.6568 44.702C18.1555 44.391 18.6116 44.1159 18.9973 43.9032C19.371 43.6972 19.7175 43.5275 19.9835 43.4542C20.203 43.3938 20.5671 43.3562 20.9954 43.3284C21.4408 43.2995 22.0053 43.2786 22.6563 43.2643C23.9592 43.2357 25.6259 43.233 27.4147 43.246C30.982 43.2721 35.0488 43.3613 37.7156 43.4358C37.9602 43.415 38.3756 43.2792 38.741 42.9037C39.1065 42.5282 39.4517 41.8812 39.4846 40.7872C39.5564 38.4027 39.5147 25.2003 39.4846 18.8529Z" fill="#1B2730"/>
<path fill-rule="evenodd" clip-rule="evenodd" d="M4 28C4 27.7239 4.22386 27.5 4.5 27.5H22.5C22.7761 27.5 23 27.7239 23 28C23 28.2761 22.7761 28.5 22.5 28.5H4.5C4.22386 28.5 4 28.2761 4 28Z" fill="#1B2730"/>
<path fill-rule="evenodd" clip-rule="evenodd" d="M12.5 31C12.5 30.7239 12.7239 30.5 13 30.5H22C22.2761 30.5 22.5 30.7239 22.5 31C22.5 31.2761 22.2761 31.5 22 31.5H13C12.7239 31.5 12.5 31.2761 12.5 31Z" fill="#1B2730"/>
<path fill-rule="evenodd" clip-rule="evenodd" d="M4.5 35C4.5 34.7239 4.72386 34.5 5 34.5H29C29.2761 34.5 29.5 34.7239 29.5 35C29.5 35.2761 29.2761 35.5 29 35.5H5C4.72386 35.5 4.5 35.2761 4.5 35Z" fill="#1B2730"/>
<path d="M51 15.3257C51 23.7898 43.6291 30.6514 34.5366 30.6514C25.4442 30.6514 18.0732 23.7898 18.0732 15.3257C18.0732 6.86154 25.4442 0 34.5366 0C43.6291 0 51 6.86154 51 15.3257Z" fill="#A2DFF4"/>
<path fill-rule="evenodd" clip-rule="evenodd" d="M34.5366 30.2203C43.384 30.2203 50.5441 23.5455 50.5441 15.3257C50.5441 7.10587 43.384 0.431035 34.5366 0.431035C25.6893 0.431035 18.5292 7.10587 18.5292 15.3257C18.5292 23.5455 25.6893 30.2203 34.5366 30.2203ZM34.5366 30.6514C43.6291 30.6514 51 23.7898 51 15.3257C51 6.86154 43.6291 0 34.5366 0C25.4442 0 18.0732 6.86154 18.0732 15.3257C18.0732 23.7898 25.4442 30.6514 34.5366 30.6514Z" fill="#1B2730"/>
<path fill-rule="evenodd" clip-rule="evenodd" d="M21.078 15.9374C21.1125 15.9806 21.1055 16.0435 21.0624 16.078L18.5624 18.078C18.5192 18.1125 18.4563 18.1055 18.4218 18.0624C18.3873 18.0192 18.3943 17.9563 18.4374 17.9218L20.9374 15.9218C20.9806 15.8873 21.0435 15.8943 21.078 15.9374Z" fill="#1B2730"/>
<path fill-rule="evenodd" clip-rule="evenodd" d="M21.5831 11.4444C21.6138 11.4904 21.6013 11.5525 21.5554 11.5831L18.5554 13.5831C18.5094 13.6138 18.4473 13.6013 18.4167 13.5554C18.3861 13.5094 18.3985 13.4473 18.4444 13.4167L21.4444 11.4167C21.4904 11.3861 21.5525 11.3985 21.5831 11.4444Z" fill="#1B2730"/>
<path fill-rule="evenodd" clip-rule="evenodd" d="M23.0867 7.45031C23.1141 7.49826 23.0975 7.55934 23.0495 7.58674L19.5495 9.58674C19.5016 9.61414 19.4405 9.59749 19.4131 9.54953C19.3857 9.50158 19.4024 9.4405 19.4503 9.4131L22.9503 7.4131C22.9983 7.38569 23.0593 7.40235 23.0867 7.45031Z" fill="#1B2730"/>
<path fill-rule="evenodd" clip-rule="evenodd" d="M25.5948 4.46831C25.6123 4.5207 25.5839 4.57733 25.5316 4.5948L22.5316 5.5948C22.4792 5.61226 22.4225 5.58395 22.4051 5.53155C22.3876 5.47916 22.4159 5.42253 22.4683 5.40506L25.4683 4.40506C25.5207 4.3876 25.5773 4.41591 25.5948 4.46831Z" fill="#1B2730"/>
<path fill-rule="evenodd" clip-rule="evenodd" d="M22.5799 21.4399C22.613 21.4841 22.6041 21.5468 22.5599 21.5799L20.5599 23.0799C20.5157 23.113 20.453 23.1041 20.4199 23.0599C20.3868 23.0157 20.3957 22.953 20.4399 22.9199L22.4399 21.4199C22.4841 21.3868 22.5468 21.3957 22.5799 21.4399Z" fill="#1B2730"/>
<path fill-rule="evenodd" clip-rule="evenodd" d="M21.5799 19.4399C21.613 19.4841 21.6041 19.5468 21.5599 19.5799L19.5599 21.0799C19.5157 21.113 19.453 21.1041 19.4199 21.0599C19.3868 21.0157 19.3957 20.953 19.4399 20.9199L21.4399 19.4199C21.4841 19.3868 21.5468 19.3957 21.5799 19.4399Z" fill="#1B2730"/>
<path fill-rule="evenodd" clip-rule="evenodd" d="M25.5706 25.4292C25.6097 25.4682 25.6097 25.5316 25.5706 25.5706L24.0706 27.0706C24.0316 27.1097 23.9682 27.1097 23.9292 27.0706C23.8901 27.0316 23.8901 26.9682 23.9292 26.9292L25.4292 25.4292C25.4682 25.3901 25.5316 25.3901 25.5706 25.4292Z" fill="#1B2730"/>
<path fill-rule="evenodd" clip-rule="evenodd" d="M23.6411 23.5063C23.6765 23.5487 23.6708 23.6117 23.6284 23.6471L21.9998 25.0064C21.9574 25.0418 21.8943 25.0361 21.8589 24.9937C21.8236 24.9513 21.8292 24.8883 21.8716 24.8529L23.5002 23.4936C23.5426 23.4582 23.6057 23.4639 23.6411 23.5063Z" fill="#1B2730"/>
<path d="M51.0002 15.3256C51.0002 23.5123 44.1963 30.1488 35.8032 30.1488C27.4101 30.1488 20.6062 23.5123 20.6062 15.3256C20.6062 7.13901 27.4101 0.502441 35.8032 0.502441C44.1963 0.502441 51.0002 7.13901 51.0002 15.3256Z" fill="#A2DFF4"/>
<path fill-rule="evenodd" clip-rule="evenodd" d="M35.8032 29.6465C43.9345 29.6465 50.5005 23.2207 50.5005 15.3256C50.5005 7.43055 43.9345 1.00473 35.8032 1.00473C27.6718 1.00473 21.1059 7.43055 21.1059 15.3256C21.1059 23.2207 27.6718 29.6465 35.8032 29.6465ZM35.8032 30.1488C44.1963 30.1488 51.0002 23.5123 51.0002 15.3256C51.0002 7.13901 44.1963 0.502441 35.8032 0.502441C27.4101 0.502441 20.6062 7.13901 20.6062 15.3256C20.6062 23.5123 27.4101 30.1488 35.8032 30.1488Z" fill="#1B2730"/>
<path d="M47.0145 15.2375C47.0145 21.5517 41.8542 26.6704 35.4887 26.6704C29.1232 26.6704 23.9629 21.5517 23.9629 15.2375C23.9629 8.92335 29.1232 3.80469 35.4887 3.80469C41.8542 3.80469 47.0145 8.92335 47.0145 15.2375Z" fill="#A2DFF4"/>
<path fill-rule="evenodd" clip-rule="evenodd" d="M35.4887 26.1679C41.5745 26.1679 46.5079 21.2742 46.5079 15.2375C46.5079 9.20087 41.5745 4.30717 35.4887 4.30717C29.4029 4.30717 24.4695 9.20087 24.4695 15.2375C24.4695 21.2742 29.4029 26.1679 35.4887 26.1679ZM35.4887 26.6704C41.8542 26.6704 47.0145 21.5517 47.0145 15.2375C47.0145 8.92335 41.8542 3.80469 35.4887 3.80469C29.1232 3.80469 23.9629 8.92335 23.9629 15.2375C23.9629 21.5517 29.1232 26.6704 35.4887 26.6704Z" fill="#1B2730"/>
<path d="M34.8525 15.5742C35.1553 15.5629 35.4568 15.6195 35.7343 15.7397C36.0118 15.86 36.2581 16.0409 36.4547 16.2687C36.6514 16.4965 36.7932 16.7654 36.8695 17.0552C36.9459 17.345 36.9548 17.6481 36.8956 17.9417C36.8591 18.1954 36.7645 18.4375 36.6189 18.6495C36.4734 18.8616 36.2807 19.038 36.0556 19.1652C35.9036 19.0902 35.7334 19.0584 35.5642 19.0733C35.471 19.0845 35.3791 19.1041 35.2895 19.1316C34.8749 18.9275 34.5271 18.6118 34.2861 18.221C34.0273 17.8082 32.4246 18.3107 32.7527 18.8355C32.9607 19.1606 33.2391 19.436 33.5679 19.642C33.8966 19.8479 34.2675 19.9793 34.6539 20.0266V20.8385C34.6461 20.8758 34.646 20.9142 34.6534 20.9516C34.6608 20.9889 34.6756 21.0244 34.697 21.0561C34.7245 21.1307 34.7786 21.1929 34.8491 21.231C35.018 21.3273 35.214 21.3667 35.4075 21.3432C35.6308 21.3265 35.8449 21.2488 36.0261 21.1189L36.1703 20.991C36.2473 20.9093 36.2985 20.8072 36.3178 20.6972V19.8909C36.9849 19.74 37.5765 19.3607 37.9878 18.8203C38.3991 18.2799 38.6036 17.6131 38.5652 16.938C38.4756 16.3505 38.1835 15.8116 37.7382 15.4123C37.293 15.0131 36.7219 14.7779 36.1215 14.7466C35.8186 14.7579 35.5172 14.7013 35.2396 14.5811C34.9621 14.4608 34.7158 14.2799 34.5192 14.0521C34.3226 13.8242 34.1808 13.5554 34.1044 13.2656C34.0281 12.9758 34.0192 12.6727 34.0784 12.3791C34.1692 11.9148 34.4779 11.2576 34.9864 11.1152C35.6674 10.9301 36.3644 11.5907 36.6833 12.0998C36.941 12.5126 38.5448 12.0101 38.2156 11.4841C38.0065 11.158 37.7266 10.8818 37.3963 10.6757C37.0659 10.4695 36.6933 10.3384 36.3053 10.292V9.332C36.3053 9.24228 36.0488 9.23891 36.0216 9.23779C35.819 9.23974 35.6177 9.26956 35.4234 9.32639C35.2243 9.37376 35.0331 9.4493 34.8559 9.55069C34.7742 9.60116 34.6573 9.66284 34.6573 9.77499V10.4288C33.9904 10.5802 33.3992 10.9598 32.9883 11.5004C32.5774 12.041 32.3733 12.7078 32.4121 13.3828C32.5016 13.9698 32.7932 14.5082 33.2378 14.9074C33.6824 15.3066 34.2526 15.5421 34.8525 15.5742Z" fill="#1B2730"/>
</svg>
