<svg width="50" height="56" viewBox="0 0 50 56" fill="none" xmlns="http://www.w3.org/2000/svg">
<path d="M0.852431 47.823C0.462711 51.8552 1.58315 54.2698 2.19209 54.9731C3.16639 55.442 7.18537 55.6764 8.64682 55.5591C9.81598 55.4654 23.8296 55.3638 30.6903 55.3247C33.6132 53.0976 32.2736 42.0795 30.325 39.3836C28.3764 36.6877 24.7227 35.75 23.5049 35.5155C22.5306 35.328 20.7444 35.5937 19.973 35.75C19.2423 38.6803 17.7078 44.7051 17.4155 45.3615C17.1232 46.0179 16.563 45.7913 16.3194 45.5959C15.4425 44.8458 14.0866 38.7194 13.5183 35.75H10.7172C2.80103 35.5155 1.33958 42.7828 0.852431 47.823Z" fill="#A2DFF4"/>
<path d="M13.8837 36.9221V32.3508C9.2337 30.7567 7.96782 26.3729 7.91613 24.3802C7.226 24.1067 5.67524 23.1377 4.99324 21.4499C4.31123 19.762 6.65766 18.1679 7.91613 17.5818C8.69557 12.7995 13.9243 11.6039 16.4412 11.6039C23.9921 11.6039 25.0881 16.8785 25.3317 17.5818C25.5753 18.2851 26.6714 18.5195 28.2546 19.4572C29.8378 20.3949 27.8892 23.3253 26.6714 23.5597C25.6971 23.7473 25.4535 24.6537 25.4535 25.0835C25.4535 28.8344 21.5563 31.4912 19.6077 32.3508C20.1923 39.1023 17.7403 44.2285 16.4412 45.9476L13.8837 36.9221Z" fill="#FFF4DB"/>
<path d="M7.67255 17.8162C7.38026 18.6602 6.33289 18.8712 5.84574 18.8712C2.80105 14.7687 7.67254 8.08747 11.0826 6.44647C14.4926 4.80548 17.6591 4.92269 20.9474 5.74319C24.2356 6.56369 26.0624 9.49404 27.1585 11.2522C28.2546 13.0105 28.8635 18.8712 27.5239 18.8712C26.1842 18.8712 25.6971 17.4646 23.992 14.417C22.628 11.979 18.6334 11.6039 16.8066 11.7211C9.86472 11.6039 8.03791 16.7613 7.67255 17.8162Z" fill="#18181B"/>
<path d="M16.563 0.585765C12.5684 0.773307 11.9757 4.25847 12.1787 5.97761C15.4913 4.47727 19.8107 5.19618 21.5563 5.74318C21.5563 3.9459 20.5577 0.398222 16.563 0.585765Z" fill="#18181B"/>
<path d="M0.331915 53.6424C2.17449 57.7155 11.3756 55.1311 15.3516 55.7758C19.8357 55.7758 24.3228 55.8233 28.8069 55.7758C34.9252 55.734 32.6512 48.636 33.0522 44.7794C33.0145 42.2472 31.961 39.828 30.1136 38.0314C28.2662 36.2349 25.7691 35.2013 23.1484 35.1484C22.9715 34.855 22.4684 34.8977 22.1294 35.1076C21.5181 35.0962 20.9029 35.0971 20.2848 35.099C20.2976 34.1325 20.2848 33.165 20.2848 32.1985C21.675 31.662 22.9129 30.813 23.8956 29.7219C24.8783 28.6308 25.5775 27.329 25.9354 25.9246C26.0857 25.2989 25.9747 24.5954 26.5997 24.191C27.0876 24.0637 27.5391 23.8309 27.9201 23.5102C28.3011 23.1895 28.6016 22.7892 28.7989 22.3397C28.9962 21.8903 29.0851 21.4033 29.0589 20.9157C29.0327 20.4282 28.8921 19.9528 28.6477 19.5254C29.4043 16.8738 29.1679 14.0492 27.9801 11.5495C26.7923 9.04979 24.7294 7.03534 22.1549 5.86118C23.2595 -2.2299 9.86025 -1.74948 11.0837 6.10139C8.50528 7.28232 6.43945 9.30256 5.24848 11.8078C4.05751 14.3131 3.81743 17.1435 4.57033 19.8027C4.35656 20.1492 4.21635 20.5333 4.15788 20.9328C4.09941 21.3322 4.12385 21.7388 4.22978 22.129C4.33571 22.5192 4.521 22.8851 4.77485 23.2054C5.0287 23.5257 5.34603 23.7939 5.70831 23.9944C6.2655 24.3001 6.90033 24.2944 7.08901 24.9818C7.24443 26.6237 7.87766 28.1896 8.9155 29.4984C9.95334 30.8073 11.3534 31.8056 12.9538 32.3779C12.9538 33.2846 12.9469 34.1914 12.9538 35.099C12.4074 35.099 11.865 35.1047 11.3264 35.1227C11.1572 35.0386 10.9676 34.9997 10.7775 35.0102C10.5874 35.0207 10.4037 35.0802 10.2455 35.1826C-0.0778741 35.7446 -0.636053 45.9064 0.331915 53.6424ZM21.9023 35.8481L23.6005 39.1294C21.4601 39.9886 21.5584 40.1794 22.6561 42.0517L18.2241 45.1089C19.5189 42.1724 20.2134 39.0215 20.2691 35.8301C20.8174 35.8301 21.3619 35.832 21.9023 35.8481ZM16.5643 0.804494C17.7419 0.880062 18.8422 1.39758 19.6301 2.24648C20.4181 3.09537 20.8311 4.20833 20.7811 5.34754C18.064 4.53626 15.147 4.60528 12.4743 5.54407C12.2079 3.18757 13.9139 0.719045 16.5643 0.804494ZM11.5259 6.54193C11.7117 6.56083 11.8992 6.53114 12.069 6.45597C12.2388 6.38081 12.3845 6.26293 12.491 6.11468C13.8083 5.61872 15.2145 5.38101 16.6279 5.4154C18.0412 5.4498 19.4333 5.75561 20.7231 6.31501C23.0635 7.364 24.9897 9.11662 26.2136 11.3109C27.4376 13.5052 27.8937 16.0232 27.5136 18.4887C26.9161 18.2038 26.2823 18.0253 26.073 17.3408C25.3163 13.15 20.9452 11.2644 16.9023 11.3774C13.453 11.422 9.40624 12.5841 7.72876 15.7771C7.31307 16.8993 7.17058 18.3462 5.83704 18.708C5.35088 16.3601 5.63814 13.924 6.65849 11.742C7.67884 9.55989 9.381 7.74141 11.5259 6.54193ZM8.54833 24.9296C8.35179 23.2339 5.79675 23.5377 5.61102 21.6892C5.14817 19.3261 6.83351 19.1571 8.30167 18.0662C8.61762 16.2777 9.61931 14.6699 11.1072 13.563C12.5951 12.4561 14.46 11.9313 16.3304 12.0933C20.1531 11.9983 24.08 13.9456 24.6765 17.8658C24.9605 18.708 25.671 18.6852 26.3688 19.1001C26.7673 19.3444 27.0968 19.6805 27.3277 20.0782C27.5585 20.4759 27.6835 20.9228 27.6915 21.3787C27.7789 23.3659 25.784 23.4229 24.7994 24.6135C24.4348 27.5045 22.8222 30.5142 19.8701 31.6298C19.6928 31.5857 19.5059 31.5937 19.3333 31.6527C19.1607 31.7117 19.0103 31.8191 18.9012 31.9611C14.1232 33.3796 9.09177 29.5913 8.54833 24.9296ZM18.8422 32.658C18.9896 36.9789 18.5896 41.3795 16.6508 45.3415C14.8644 41.3873 14.0846 37.0771 14.3768 32.7719C15.8558 33.0542 17.3814 33.0136 18.8422 32.6533V32.658ZM12.9646 35.8415C12.9947 38.9302 13.624 41.986 14.82 44.8506L10.5648 41.914C11.6901 39.9725 11.7746 39.9136 9.60573 39.0202L11.2508 35.8415C11.8217 35.8358 12.3907 35.8348 12.9646 35.8367V35.8415ZM1.60452 46.3811C1.20554 41.4783 4.29812 36.2108 9.78753 35.8756C9.42688 37.0824 7.87027 38.4989 8.20537 39.6629L9.86909 40.4662C9.704 41.1013 8.7095 41.9159 9.18808 42.5112C11.6163 43.8832 13.7616 46.3536 16.4886 47.0116C19.3129 46.4049 21.4631 43.8177 23.968 42.4286C24.6176 41.8409 23.5543 40.995 23.3902 40.3484C26.6095 39.3696 24.3375 38.029 23.5926 35.9924C31.1595 36.8811 32.209 44.7775 31.6272 50.7732C31.6272 52.4936 31.8611 54.8776 29.4289 55.0381C21.0199 55.2678 12.5647 54.9137 4.14482 55.0381C0.0646183 54.4115 2.00055 49.1563 1.60452 46.3811Z" fill="#18181B"/>
<path d="M41.5282 46.5619C41.5282 51.427 37.4434 55.3709 32.4046 55.3709C27.3658 55.3709 23.281 51.427 23.281 46.5619C23.281 41.6968 27.3658 37.7529 32.4046 37.7529C37.4434 37.7529 41.5282 41.6968 41.5282 46.5619Z" fill="white"/>
<path fill-rule="evenodd" clip-rule="evenodd" d="M32.4046 55.1232C37.3076 55.1232 41.2755 51.2866 41.2755 46.5619C41.2755 41.8373 37.3076 38.0007 32.4046 38.0007C27.5016 38.0007 23.5337 41.8373 23.5337 46.5619C23.5337 51.2866 27.5016 55.1232 32.4046 55.1232ZM32.4046 55.3709C37.4434 55.3709 41.5282 51.427 41.5282 46.5619C41.5282 41.6968 37.4434 37.7529 32.4046 37.7529C27.3658 37.7529 23.281 41.6968 23.281 46.5619C23.281 51.427 27.3658 55.3709 32.4046 55.3709Z" fill="#18181B"/>
<path d="M39.3195 46.5113C39.3195 50.1406 36.4598 53.0827 32.9322 53.0827C29.4046 53.0827 26.5449 50.1406 26.5449 46.5113C26.5449 42.882 29.4046 39.9398 32.9322 39.9398C36.4598 39.9398 39.3195 42.882 39.3195 46.5113Z" fill="#E5F3FE"/>
<path fill-rule="evenodd" clip-rule="evenodd" d="M26.4795 41.6314C26.4906 41.6941 26.4501 41.7543 26.3891 41.7657L24.8451 42.0545C24.7841 42.0659 24.7256 42.0243 24.7145 41.9615C24.7034 41.8987 24.7439 41.8386 24.8049 41.8272L26.3489 41.5384C26.4099 41.5269 26.4684 41.5686 26.4795 41.6314Z" fill="#18181B"/>
<path fill-rule="evenodd" clip-rule="evenodd" d="M27.743 40.1888C27.7532 40.2518 27.7119 40.3113 27.6507 40.3218L25.9663 40.6106C25.9052 40.6211 25.8473 40.5786 25.8371 40.5156C25.8269 40.4527 25.8682 40.3932 25.9294 40.3827L27.6138 40.0939C27.6749 40.0834 27.7328 40.1259 27.743 40.1888Z" fill="#18181B"/>
<path fill-rule="evenodd" clip-rule="evenodd" d="M29.4285 39.0431C29.4337 39.1067 29.3877 39.1625 29.3259 39.1678L27.6416 39.3122C27.5798 39.3175 27.5255 39.2703 27.5204 39.2067C27.5152 39.1431 27.5611 39.0872 27.6229 39.0819L29.3073 38.9375C29.3691 38.9322 29.4234 38.9795 29.4285 39.0431Z" fill="#18181B"/>
<path fill-rule="evenodd" clip-rule="evenodd" d="M25.1072 45.8683C25.1334 45.9262 25.109 45.9949 25.0528 46.0219L23.5693 46.7337C23.5131 46.7606 23.4463 46.7356 23.4201 46.6778C23.3939 46.62 23.4182 46.5512 23.4744 46.5243L24.9579 45.8125C25.0141 45.7855 25.0809 45.8105 25.1072 45.8683Z" fill="#18181B"/>
<path fill-rule="evenodd" clip-rule="evenodd" d="M25.147 44.2081C25.1732 44.2659 25.1489 44.3346 25.0927 44.3616L23.6092 45.0734C23.553 45.1004 23.4862 45.0754 23.46 45.0175C23.4338 44.9597 23.4581 44.891 23.5143 44.864L24.9978 44.1522C25.054 44.1252 25.1208 44.1503 25.147 44.2081Z" fill="#18181B"/>
<path fill-rule="evenodd" clip-rule="evenodd" d="M25.2296 47.6171C25.2626 47.6603 25.2447 47.7163 25.1897 47.7422L23.7377 48.4262C23.6827 48.4521 23.6113 48.4381 23.5783 48.3949C23.5453 48.3517 23.5632 48.2957 23.6182 48.2698L25.0702 47.5858C25.1252 47.5599 25.1965 47.5739 25.2296 47.6171Z" fill="#18181B"/>
<path fill-rule="evenodd" clip-rule="evenodd" d="M25.6232 48.6686C25.6551 48.7233 25.6379 48.7942 25.5847 48.8271L24.181 49.6935C24.1279 49.7264 24.0589 49.7086 24.027 49.6539C23.9951 49.5992 24.0123 49.5282 24.0655 49.4954L25.4691 48.6289C25.5223 48.5961 25.5913 48.6139 25.6232 48.6686Z" fill="#18181B"/>
<path fill-rule="evenodd" clip-rule="evenodd" d="M25.9038 49.535C25.9357 49.5898 25.9184 49.6607 25.8653 49.6935L24.4616 50.56C24.4085 50.5928 24.3395 50.5751 24.3076 50.5204C24.2757 50.4657 24.2929 50.3947 24.3461 50.3619L25.7497 49.4954C25.8029 49.4626 25.8719 49.4803 25.9038 49.535Z" fill="#18181B"/>
<path fill-rule="evenodd" clip-rule="evenodd" d="M25.6351 43.0656C25.6515 43.1272 25.6162 43.1907 25.5564 43.2075L24.0124 43.6407C23.9525 43.6575 23.8908 43.6212 23.8745 43.5597C23.8582 43.4981 23.8934 43.4346 23.9533 43.4178L25.4973 42.9846C25.5571 42.9678 25.6188 43.0041 25.6351 43.0656Z" fill="#18181B"/>
<path d="M41.5282 46.5619C41.5282 51.2675 37.7577 55.0821 33.1065 55.0821C28.4552 55.0821 24.6847 51.2675 24.6847 46.5619C24.6847 41.8564 28.4552 38.0418 33.1065 38.0418C37.7577 38.0418 41.5282 41.8564 41.5282 46.5619Z" fill="white"/>
<path fill-rule="evenodd" clip-rule="evenodd" d="M33.1065 54.7934C37.6127 54.7934 41.2513 51.0999 41.2513 46.5619C41.2513 42.024 37.6127 38.3305 33.1065 38.3305C28.6003 38.3305 24.9616 42.024 24.9616 46.5619C24.9616 51.0999 28.6003 54.7934 33.1065 54.7934ZM33.1065 55.0821C37.7577 55.0821 41.5282 51.2675 41.5282 46.5619C41.5282 41.8564 37.7577 38.0418 33.1065 38.0418C28.4552 38.0418 24.6847 41.8564 24.6847 46.5619C24.6847 51.2675 28.4552 55.0821 33.1065 55.0821Z" fill="#18181B"/>
<path fill-rule="evenodd" clip-rule="evenodd" d="M32.9322 52.7938C36.3048 52.7938 39.0388 49.981 39.0388 46.5112C39.0388 43.0414 36.3048 40.2286 32.9322 40.2286C29.5596 40.2286 26.8256 43.0414 26.8256 46.5112C26.8256 49.981 29.5596 52.7938 32.9322 52.7938ZM32.9322 53.0827C36.4598 53.0827 39.3195 50.1406 39.3195 46.5113C39.3195 42.882 36.4598 39.9398 32.9322 39.9398C29.4046 39.9398 26.5449 42.882 26.5449 46.5113C26.5449 50.1406 29.4046 53.0827 32.9322 53.0827Z" fill="#18181B"/>
<path d="M32.5796 46.7049C32.7474 46.6984 32.9145 46.7309 33.0683 46.8C33.2221 46.8692 33.3586 46.9731 33.4675 47.1041C33.5765 47.235 33.6551 47.3896 33.6974 47.5561C33.7397 47.7227 33.7446 47.8969 33.7118 48.0657C33.6916 48.2115 33.6392 48.3507 33.5585 48.4725C33.4778 48.5944 33.3711 48.6958 33.2464 48.769C33.1621 48.7258 33.0678 48.7075 32.974 48.7161C32.9224 48.7226 32.8714 48.7338 32.8218 48.7496C32.592 48.6323 32.3993 48.4508 32.2657 48.2262C32.1223 47.989 31.2341 48.2778 31.4159 48.5794C31.5312 48.7663 31.6855 48.9246 31.8677 49.043C32.0499 49.1614 32.2554 49.2369 32.4695 49.264V49.7307C32.4653 49.7522 32.4652 49.7742 32.4693 49.7957C32.4734 49.8172 32.4816 49.8376 32.4934 49.8558C32.5087 49.8987 32.5386 49.9344 32.5777 49.9564C32.6713 50.0117 32.7799 50.0343 32.8872 50.0208C33.0109 50.0112 33.1296 49.9666 33.23 49.8919L33.3099 49.8184C33.3526 49.7714 33.381 49.7127 33.3917 49.6495V49.186C33.7613 49.0993 34.0892 48.8813 34.3171 48.5707C34.545 48.2601 34.6584 47.8768 34.6371 47.4888C34.5874 47.1511 34.4256 46.8413 34.1788 46.6118C33.9321 46.3823 33.6156 46.2472 33.2828 46.2292C33.115 46.2357 32.9479 46.2032 32.7942 46.134C32.6404 46.0649 32.5039 45.9609 32.3949 45.83C32.2859 45.699 32.2074 45.5445 32.165 45.3779C32.1227 45.2114 32.1178 45.0372 32.1506 44.8684C32.2009 44.6015 32.372 44.2238 32.6538 44.1419C33.0312 44.0355 33.4174 44.4152 33.5942 44.7079C33.737 44.9451 34.6258 44.6563 34.4434 44.354C34.3275 44.1665 34.1724 44.0078 33.9893 43.8893C33.8062 43.7708 33.5997 43.6954 33.3847 43.6687V43.1169C33.3847 43.0654 33.2426 43.0634 33.2275 43.0628C33.1152 43.0639 33.0036 43.0811 32.896 43.1137C32.7856 43.1409 32.6797 43.1844 32.5815 43.2426C32.5362 43.2717 32.4714 43.3071 32.4714 43.3716V43.7474C32.1018 43.8344 31.7742 44.0526 31.5465 44.3633C31.3188 44.6741 31.2057 45.0573 31.2272 45.4453C31.2768 45.7827 31.4384 46.0922 31.6848 46.3216C31.9311 46.5511 32.2472 46.6865 32.5796 46.7049Z" fill="#18181B"/>
</svg>
