<svg width="58" height="59" viewBox="0 0 58 59" fill="none" xmlns="http://www.w3.org/2000/svg">
<path d="M1.82064 15.4909L18.9147 8.97724L33.7328 3.63088L54.59 41.1077L22.9925 55.6236C22.2191 53.1717 19.859 47.1076 16.6051 42.4659C13.3511 37.8243 5.39298 22.5486 1.82064 15.4909Z" fill="white"/>
<path fill-rule="evenodd" clip-rule="evenodd" d="M33.9654 3.07136L55.2423 41.3024L22.6911 56.2564L22.5333 55.756C21.7668 53.3259 19.4225 47.3065 16.2032 42.7143C12.9272 38.0411 4.95299 22.7313 1.38728 15.6868L1.17097 15.2595L18.7489 8.56137L33.9654 3.07136ZM19.086 9.39138L2.47171 15.7222C6.14524 22.9621 13.84 37.6982 17.0081 42.2175C20.0937 46.6191 22.376 52.2689 23.2904 54.9928L53.9388 40.9129L33.5014 4.19029L19.086 9.39138Z" fill="#18181B"/>
<path fill-rule="evenodd" clip-rule="evenodd" d="M15.035 13.8832L3.45079 18.3976L3.1271 17.567L14.7113 13.0526L15.035 13.8832Z" fill="#18181B"/>
<path fill-rule="evenodd" clip-rule="evenodd" d="M15.2447 15.6535L3.66051 20.1679L3.33681 19.3372L14.921 14.8229L15.2447 15.6535Z" fill="#18181B"/>
<path fill-rule="evenodd" clip-rule="evenodd" d="M16.3397 17.3195L4.75548 21.8339L4.43178 21.0033L16.016 16.4889L16.3397 17.3195Z" fill="#18181B"/>
<path fill-rule="evenodd" clip-rule="evenodd" d="M17.4349 18.985L5.85069 23.4994L5.527 22.6688L17.1112 18.1544L17.4349 18.985Z" fill="#18181B"/>
<path fill-rule="evenodd" clip-rule="evenodd" d="M18.5298 20.6506L6.94567 25.1649L6.62197 24.3343L18.2061 19.8199L18.5298 20.6506Z" fill="#18181B"/>
<path fill-rule="evenodd" clip-rule="evenodd" d="M19.6248 22.3163L8.04064 26.8307L7.71694 26.0001L19.3011 21.4857L19.6248 22.3163Z" fill="#18181B"/>
<path fill-rule="evenodd" clip-rule="evenodd" d="M19.8345 24.0868L8.25035 28.6012L7.92666 27.7706L19.5108 23.2562L19.8345 24.0868Z" fill="#18181B"/>
<path fill-rule="evenodd" clip-rule="evenodd" d="M20.9295 25.7526L9.34532 30.267L9.02163 29.4364L20.6058 24.922L20.9295 25.7526Z" fill="#18181B"/>
<path fill-rule="evenodd" clip-rule="evenodd" d="M22.025 27.4184L10.4408 31.9328L10.1171 31.1021L21.7013 26.5878L22.025 27.4184Z" fill="#18181B"/>
<path fill-rule="evenodd" clip-rule="evenodd" d="M23.1197 29.0839L11.5355 33.5983L11.2118 32.7677L22.796 28.2533L23.1197 29.0839Z" fill="#18181B"/>
<path fill-rule="evenodd" clip-rule="evenodd" d="M24.2149 30.7497L12.6307 35.2641L12.307 34.4334L23.8912 29.9191L24.2149 30.7497Z" fill="#18181B"/>
<path fill-rule="evenodd" clip-rule="evenodd" d="M24.4246 32.5202L12.8404 37.0346L12.5167 36.2039L24.1009 31.6896L24.4246 32.5202Z" fill="#18181B"/>
<path fill-rule="evenodd" clip-rule="evenodd" d="M22.5025 35.4467L13.8595 38.266L13.5831 37.4185L22.2261 34.5991L22.5025 35.4467Z" fill="#18181B"/>
<path fill-rule="evenodd" clip-rule="evenodd" d="M21.8467 37.3149L14.9742 39.9245L14.6578 39.0911L21.5302 36.4815L21.8467 37.3149Z" fill="#18181B"/>
<path fill-rule="evenodd" clip-rule="evenodd" d="M22.0703 39.0804L16.0831 41.5851L15.7391 40.7627L21.7262 38.258L22.0703 39.0804Z" fill="#18181B"/>
<path d="M17.1778 28.0349C20.4372 22.7113 27.0445 12.0538 27.3986 12.0119C27.7489 11.9703 22.4833 8.78594 19.7222 7.14854C15.4641 13.0891 16.2517 23.548 17.1778 28.0349Z" fill="white"/>
<path d="M16.2024 22.7642C16.4591 30.9927 21.4978 44.7291 23.985 50.5687C23.7985 52.0272 45.4997 46.5236 56.3736 43.5896L44.2046 1.49262L19.6266 6.19986C18.3782 8.29279 15.9457 14.5357 16.2024 22.7642Z" fill="white"/>
<path d="M33.6147 36.544C33.2624 36.5987 34.095 32.8607 34.5553 30.9849C37.7812 30.8446 38.9985 33.4521 39.2039 34.7735C37.4877 35.3408 33.9671 36.4893 33.6147 36.544Z" fill="white"/>
<path d="M37.0243 38.4282C37.4049 39.8349 37.3155 41.3274 36.7698 42.6785C36.2241 44.0297 35.2518 45.1656 34.0011 45.9133C32.7503 46.661 31.2895 46.9797 29.841 46.8207C28.3924 46.6617 27.0355 46.0339 25.9767 45.0327C24.9179 44.0315 24.2151 42.7118 23.9754 41.2744C23.7357 39.8371 23.9721 38.3607 24.6488 37.0701C25.3254 35.7795 26.4051 34.7453 27.7237 34.1248C29.0422 33.5044 30.5273 33.3317 31.9531 33.6331L30.5703 40.1746L37.0243 38.4282Z" fill="white"/>
<path d="M27.4094 12.3312C23.5551 14.8984 18.8528 24.4838 16.9835 28.9556C14.8042 18.6612 17.8148 10.0969 19.5925 7.10161C20.3524 7.89096 22.4654 9.75115 24.838 10.8771C27.2106 12.003 27.5408 12.3156 27.4094 12.3312Z" fill="white"/>
<path fill-rule="evenodd" clip-rule="evenodd" d="M44.52 0.978495L56.9279 43.9018L56.4898 44.02C51.05 45.4878 42.9005 47.5987 36.1319 49.1608C32.7493 49.9414 29.7029 50.587 27.51 50.9461C26.4172 51.125 25.5179 51.2361 24.8897 51.2536C24.5826 51.2621 24.3018 51.25 24.0872 51.1946C23.9824 51.1675 23.8461 51.1187 23.7329 51.017C23.6342 50.9284 23.5645 50.8085 23.5442 50.6711C22.2952 47.7307 20.4259 42.86 18.8314 37.6938C18.0863 35.2798 17.3984 32.7923 16.8622 30.4019L16.8435 30.4464L16.5475 29.048C16.2956 27.8583 16.1122 26.6913 15.9876 25.5527C15.8639 24.579 15.7841 23.649 15.757 22.7782C15.4977 14.4659 17.9513 8.13869 19.2438 5.97164L19.3463 5.79982L44.52 0.978495ZM17.1694 27.4018C17.0534 26.7365 16.9542 26.0868 16.8739 25.4571C15.9853 17.3425 18.1617 10.7282 19.6965 7.82874C20.6874 8.76097 22.5647 10.2917 24.647 11.2799C25.6752 11.7678 26.3074 12.0974 26.68 12.3121C25.8092 13.0005 24.9254 13.9796 24.0626 15.1131C23.0352 16.4626 22.0173 18.0585 21.0661 19.7064C19.5184 22.3878 18.1371 25.2255 17.1694 27.4018ZM17.4649 28.9608C18.0199 31.6811 18.8078 34.5945 19.6833 37.4309C21.2718 42.5779 23.1355 47.4313 24.3739 50.3442C24.4736 50.3598 24.6331 50.3689 24.8648 50.3625C25.4301 50.3467 26.2805 50.2441 27.3659 50.0663C29.5293 49.712 32.5529 49.0718 35.9315 48.2921C42.5062 46.7748 50.3925 44.7371 55.8194 43.2774L43.8893 2.00695L19.9101 6.59952C19.8882 6.6383 19.8659 6.67831 19.8433 6.71953L19.9137 6.79257C20.6498 7.55719 22.7202 9.37873 25.0292 10.4745C26.2188 11.0391 26.9115 11.4067 27.2946 11.6399C27.4779 11.7515 27.6206 11.8502 27.7105 11.9392C27.735 11.9635 27.7661 11.9973 27.7945 12.0396C27.8185 12.0753 27.8679 12.1569 27.878 12.2712C27.8909 12.4163 27.835 12.569 27.7089 12.6711C27.6774 12.6966 27.6454 12.7158 27.615 12.7302C26.7243 13.335 25.758 14.3576 24.7719 15.653C23.7751 16.9625 22.778 18.5238 21.8382 20.1521C20.0048 23.3284 18.4045 26.7331 17.4649 28.9608ZM41.3296 5.08447L43.1218 13.3754L32.2622 16.0429L30.47 7.75203L41.3296 5.08447ZM31.5245 8.41097L32.9398 14.9585L42.0673 12.7164L40.6519 6.1689L31.5245 8.41097ZM44.8257 15.8096C44.8888 16.0476 44.747 16.2916 44.509 16.3546L28.0456 20.7168C27.8077 20.7799 27.5637 20.6381 27.5006 20.4001C27.4376 20.1622 27.5793 19.9181 27.8173 19.8551L44.2807 15.4929C44.5187 15.4299 44.7627 15.5717 44.8257 15.8096ZM45.5101 20.2141C45.5731 20.4521 45.4313 20.6961 45.1933 20.7592L28.7299 25.1213C28.492 25.1844 28.248 25.0426 28.1849 24.8046C28.1219 24.5667 28.2637 24.3227 28.5016 24.2596L44.965 19.8974C45.203 19.8344 45.447 19.9762 45.5101 20.2141ZM41.9963 26.6286C42.0569 26.8672 41.9127 27.1098 41.6742 27.1704L23.449 31.8063C23.2104 31.867 22.9678 31.7228 22.9071 31.4842C22.8464 31.2457 22.9906 31.0031 23.2292 30.9424L41.4544 26.3065C41.693 26.2458 41.9356 26.39 41.9963 26.6286ZM34.2022 30.5542L34.536 30.5397C36.2891 30.4634 37.5246 31.1398 38.3409 32.0299C39.1432 32.9047 39.5306 33.9727 39.6444 34.7051L39.7025 35.0782L39.3439 35.1968C38.485 35.4807 37.1744 35.9101 36.0339 36.2755C35.4639 36.4582 34.935 36.6253 34.5257 36.7504C34.3213 36.8129 34.1448 36.8655 34.0071 36.9045C33.8808 36.9402 33.7594 36.9727 33.6832 36.9846C33.5718 37.0019 33.452 36.9814 33.3471 36.9151C33.2518 36.8549 33.1977 36.7754 33.1683 36.7199C33.1137 36.6167 33.0982 36.508 33.0916 36.4422C33.077 36.2961 33.0863 36.1111 33.1047 35.9198C33.1424 35.5263 33.2311 34.9889 33.3425 34.405C33.5662 33.2323 33.8914 31.8206 34.1225 30.8787L34.2022 30.5542ZM34.9069 31.4263C34.6874 32.3391 34.4129 33.5513 34.2182 34.572C34.1105 35.1365 34.0296 35.6303 33.9946 35.9796C34.0765 35.9552 34.167 35.9279 34.2651 35.8979C34.6687 35.7745 35.1932 35.6088 35.7619 35.4266C36.7421 35.1125 37.8492 34.7508 38.6852 34.4754C38.5362 33.9179 38.2215 33.2187 37.6838 32.6324C37.0838 31.9781 36.1976 31.4531 34.9069 31.4263ZM49.6588 29.4957C49.7206 29.734 49.5776 29.9773 49.3393 30.0391L40.6671 32.2886C40.4289 32.3504 40.1856 32.2073 40.1238 31.9691C40.062 31.7308 40.205 31.4875 40.4433 31.4257L49.1155 29.1762C49.3537 29.1144 49.597 29.2574 49.6588 29.4957ZM31.4216 33.9927C30.2282 33.8284 29.0092 34.0127 27.9135 34.5283C26.6829 35.1073 25.6751 36.0726 25.0436 37.2772C24.4121 38.4817 24.1914 39.8597 24.4151 41.2012C24.6389 42.5428 25.2948 43.7745 26.283 44.7089C27.2712 45.6434 28.5377 46.2294 29.8897 46.3777C31.2416 46.5261 32.605 46.2287 33.7724 45.5308C34.9398 44.833 35.8472 43.7728 36.3566 42.5117C36.8101 41.3889 36.9259 40.1615 36.6951 38.9792L29.9837 40.7952L31.4216 33.9927ZM27.534 33.7216C28.9404 33.0598 30.5246 32.8756 32.0453 33.1971L32.4814 33.2893L31.1572 39.5541L37.3382 37.8817L37.4546 38.3119C37.8606 39.8123 37.7653 41.4043 37.1832 42.8456C36.601 44.2868 35.564 45.4984 34.2299 46.296C32.8957 47.0936 31.3375 47.4334 29.7924 47.2639C28.2473 47.0943 26.7999 46.4246 25.6705 45.3567C24.5411 44.2887 23.7915 42.881 23.5358 41.3479C23.2801 39.8147 23.5323 38.2399 24.2541 36.8633C24.9758 35.4866 26.1275 34.3834 27.534 33.7216ZM49.5991 34.918C49.6609 35.1563 49.5178 35.3995 49.2796 35.4613L40.6074 37.7109C40.3691 37.7727 40.1258 37.6296 40.064 37.3913C40.0022 37.153 40.1453 36.9098 40.3836 36.848L49.0557 34.5984C49.294 34.5366 49.5373 34.6797 49.5991 34.918ZM48.6585 40.4771C48.7203 40.7154 48.5772 40.9587 48.3389 41.0205L39.6668 43.27C39.4285 43.3318 39.1852 43.1887 39.1234 42.9505C39.0616 42.7122 39.2047 42.4689 39.4429 42.4071L48.1151 40.1576C48.3534 40.0958 48.5967 40.2388 48.6585 40.4771Z" fill="#18181B"/>
</svg>
