<svg width="57" height="51" viewBox="0 0 57 51" fill="none" xmlns="http://www.w3.org/2000/svg">
<path d="M0.592541 11.9714C0.26529 7.5653 3.57188 3.72812 7.97803 3.40087L49.7771 0.296384C51.9802 0.132759 53.8988 1.78606 54.0624 3.98913L56.4614 36.2897C56.9114 42.3482 52.3648 47.6243 46.3064 48.0743L7.49904 50.9565C5.29597 51.1202 3.37739 49.4669 3.21376 47.2638L0.592541 11.9714Z" fill="white"/>
<path fill-rule="evenodd" clip-rule="evenodd" d="M49.8512 1.29364L8.05209 4.39812C4.19672 4.68447 1.30345 8.042 1.58979 11.8974L4.21101 47.1897C4.33373 48.842 5.77267 50.082 7.42498 49.9593L46.2323 47.077C51.74 46.6679 55.8732 41.8715 55.4641 36.3638L53.0651 4.06319C52.9424 2.41089 51.5035 1.17092 49.8512 1.29364ZM7.97803 3.40087C3.57188 3.72812 0.26529 7.5653 0.592541 11.9714L3.21376 47.2638C3.37739 49.4669 5.29597 51.1202 7.49904 50.9565L46.3064 48.0743C52.3648 47.6243 56.9114 42.3482 56.4614 36.2897L54.0624 3.98913C53.8988 1.78606 51.9802 0.132759 49.7771 0.296384L7.97803 3.40087Z" fill="#18181B"/>
<path fill-rule="evenodd" clip-rule="evenodd" d="M27.412 44.1578L23.412 49.1578L23.0996 48.908L27.0996 43.908L27.412 44.1578Z" fill="#18181B"/>
<path fill-rule="evenodd" clip-rule="evenodd" d="M31.9197 43.6476L28.4197 48.6476L28.092 48.4182L31.592 43.4182L31.9197 43.6476Z" fill="#18181B"/>
<path fill-rule="evenodd" clip-rule="evenodd" d="M36.9197 43.6476L33.4197 48.6476L33.092 48.4182L36.592 43.4182L36.9197 43.6476Z" fill="#18181B"/>
<path fill-rule="evenodd" clip-rule="evenodd" d="M42.4197 43.1476L38.9197 48.1476L38.592 47.9182L42.092 42.9182L42.4197 43.1476Z" fill="#18181B"/>
<path fill-rule="evenodd" clip-rule="evenodd" d="M47.4197 42.6476L43.9197 47.6476L43.592 47.4182L47.092 42.4182L47.4197 42.6476Z" fill="#18181B"/>
<path fill-rule="evenodd" clip-rule="evenodd" d="M8.88074 44.1891L3.88074 48.1891L3.63086 47.8767L8.63086 43.8767L8.88074 44.1891Z" fill="#18181B"/>
<path fill-rule="evenodd" clip-rule="evenodd" d="M15.8973 45.1742L10.8973 50.1742L10.6145 49.8914L15.6145 44.8914L15.8973 45.1742Z" fill="#18181B"/>
<path fill-rule="evenodd" clip-rule="evenodd" d="M21.4045 44.6668L16.9045 49.6668L16.6072 49.3992L21.1072 44.3992L21.4045 44.6668Z" fill="#18181B"/>
<path fill-rule="evenodd" clip-rule="evenodd" d="M10.3973 45.6742L5.89734 50.1742L5.6145 49.8914L10.1145 45.3914L10.3973 45.6742Z" fill="#18181B"/>
<path fill-rule="evenodd" clip-rule="evenodd" d="M6.826 33.22L2.826 34.72L2.68555 34.3455L6.68555 32.8455L6.826 33.22Z" fill="#18181B"/>
<path fill-rule="evenodd" clip-rule="evenodd" d="M6.34539 25.7118L2.34539 27.7118L2.1665 27.354L6.1665 25.354L6.34539 25.7118Z" fill="#18181B"/>
<path fill-rule="evenodd" clip-rule="evenodd" d="M6.33481 28.2168L2.83481 29.7168L2.67725 29.3491L6.17725 27.8491L6.33481 28.2168Z" fill="#18181B"/>
<path fill-rule="evenodd" clip-rule="evenodd" d="M6.826 30.72L2.826 32.22L2.68555 31.8455L6.68555 30.3455L6.826 30.72Z" fill="#18181B"/>
<path fill-rule="evenodd" clip-rule="evenodd" d="M7.326 42.72L3.326 44.22L3.18555 43.8455L7.18555 42.3455L7.326 42.72Z" fill="#18181B"/>
<path fill-rule="evenodd" clip-rule="evenodd" d="M6.84539 35.2118L2.84539 37.2118L2.6665 36.854L6.6665 34.854L6.84539 35.2118Z" fill="#18181B"/>
<path fill-rule="evenodd" clip-rule="evenodd" d="M6.83481 37.7168L3.33481 39.2168L3.17725 38.8491L6.67725 37.3491L6.83481 37.7168Z" fill="#18181B"/>
<path fill-rule="evenodd" clip-rule="evenodd" d="M7.326 40.22L3.326 41.72L3.18555 41.3455L7.18555 39.8455L7.326 40.22Z" fill="#18181B"/>
<path fill-rule="evenodd" clip-rule="evenodd" d="M5.85519 21.2064L2.35519 23.2064L2.15674 22.8591L5.65674 20.8591L5.85519 21.2064Z" fill="#18181B"/>
<path fill-rule="evenodd" clip-rule="evenodd" d="M5.85519 23.7064L2.35519 25.7064L2.15674 25.3591L5.65674 23.3591L5.85519 23.7064Z" fill="#18181B"/>
<path fill-rule="evenodd" clip-rule="evenodd" d="M5.8619 18.2025L1.8619 20.7025L1.6499 20.3633L5.6499 17.8633L5.8619 18.2025Z" fill="#18181B"/>
<path fill-rule="evenodd" clip-rule="evenodd" d="M5.37574 10.1928L1.37574 13.1928L1.13574 12.8728L5.13574 9.8728L5.37574 10.1928Z" fill="#18181B"/>
<path fill-rule="evenodd" clip-rule="evenodd" d="M5.37574 12.1928L1.37574 15.1928L1.13574 14.8728L5.13574 11.8728L5.37574 12.1928Z" fill="#18181B"/>
<path fill-rule="evenodd" clip-rule="evenodd" d="M5.37574 14.1928L1.37574 17.1928L1.13574 16.8728L5.13574 13.8728L5.37574 14.1928Z" fill="#18181B"/>
<path fill-rule="evenodd" clip-rule="evenodd" d="M5.37574 16.1928L1.37574 19.1928L1.13574 18.8728L5.13574 15.8728L5.37574 16.1928Z" fill="#18181B"/>
<path d="M4.42811 7.72559C4.26448 5.52252 5.91778 3.60393 8.12085 3.4403L50.0055 0.329463C52.2086 0.165838 54.1271 1.81913 54.2908 4.02221L56.8381 38.3204C57.0018 40.5234 55.3485 42.442 53.1454 42.6056L11.2608 45.7165C9.0577 45.8801 7.13911 44.2268 6.97549 42.0237L4.42811 7.72559Z" fill="white"/>
<path fill-rule="evenodd" clip-rule="evenodd" d="M50.0796 1.32672L8.19492 4.43756C6.54261 4.56027 5.30264 5.99922 5.42536 7.65152L7.97274 41.9497C8.09546 43.602 9.5344 44.842 11.1867 44.7192L53.0713 41.6084C54.7236 41.4857 55.9636 40.0467 55.8409 38.3944L53.2935 4.09627C53.1708 2.44397 51.7319 1.204 50.0796 1.32672ZM8.12085 3.4403C5.91778 3.60393 4.26448 5.52252 4.42811 7.72559L6.97549 42.0237C7.13911 44.2268 9.0577 45.8801 11.2608 45.7165L53.1454 42.6056C55.3485 42.442 57.0018 40.5234 56.8381 38.3204L54.2908 4.02221C54.1271 1.81913 52.2086 0.165838 50.0055 0.329463L8.12085 3.4403Z" fill="#18181B"/>
<path fill-rule="evenodd" clip-rule="evenodd" d="M19.955 17.0164C19.9642 17.1265 19.8824 17.2232 19.7723 17.2323L7.77228 18.2323C7.66221 18.2415 7.56554 18.1597 7.55637 18.0496C7.54719 17.9396 7.62899 17.8429 7.73907 17.8337L19.7391 16.8337C19.8491 16.8245 19.9458 16.9063 19.955 17.0164Z" fill="#18181B"/>
<path fill-rule="evenodd" clip-rule="evenodd" d="M33.3993 16.0164C33.4085 16.1265 33.3267 16.2232 33.2166 16.2323L21.2166 17.2323C21.1065 17.2415 21.0099 17.1597 21.0007 17.0496C20.9915 16.9396 21.0733 16.8429 21.1834 16.8337L33.1834 15.8337C33.2935 15.8245 33.3901 15.9063 33.3993 16.0164Z" fill="#18181B"/>
<path fill-rule="evenodd" clip-rule="evenodd" d="M54.3021 11.0306L5.8021 15.5306L5.70972 14.5349L54.2097 10.0349L54.3021 11.0306Z" fill="#18181B"/>
<path d="M14.7724 7.91955C14.891 9.29516 13.8719 10.5064 12.4963 10.625C11.1207 10.7436 9.90942 9.72453 9.79086 8.34892C9.67229 6.97331 10.6913 5.76204 12.0669 5.64347C13.4425 5.5249 14.6538 6.54394 14.7724 7.91955Z" fill="white"/>
<path fill-rule="evenodd" clip-rule="evenodd" d="M12.462 10.2265C13.6175 10.1269 14.4735 9.10942 14.3739 7.9539C14.2743 6.79839 13.2568 5.9424 12.1013 6.04199C10.9458 6.14159 10.0898 7.15906 10.1894 8.31457C10.289 9.47008 11.3064 10.3261 12.462 10.2265ZM12.4963 10.625C13.8719 10.5064 14.891 9.29516 14.7724 7.91955C14.6538 6.54394 13.4425 5.5249 12.0669 5.64347C10.6913 5.76204 9.67229 6.97331 9.79086 8.34892C9.90942 9.72453 11.1207 10.7436 12.4963 10.625Z" fill="#18181B"/>
<path d="M21.747 7.31848C21.8656 8.69409 20.8465 9.90536 19.4709 10.0239C18.0953 10.1425 16.884 9.12346 16.7655 7.74785C16.6469 6.37223 17.6659 5.16096 19.0415 5.0424C20.4172 4.92383 21.6284 5.94287 21.747 7.31848Z" fill="white"/>
<path fill-rule="evenodd" clip-rule="evenodd" d="M19.4366 9.6254C20.5921 9.52581 21.4481 8.50834 21.3485 7.35283C21.2489 6.19731 20.2314 5.34132 19.0759 5.44092C17.9204 5.54051 17.0644 6.55798 17.164 7.7135C17.2636 8.86901 18.281 9.725 19.4366 9.6254ZM19.4709 10.0239C20.8465 9.90536 21.8656 8.69409 21.747 7.31848C21.6284 5.94287 20.4172 4.92383 19.0415 5.0424C17.6659 5.16096 16.6469 6.37223 16.7655 7.74785C16.884 9.12346 18.0953 10.1425 19.4709 10.0239Z" fill="#18181B"/>
<path d="M28.7206 6.7174C28.8392 8.09302 27.8202 9.30429 26.4445 9.42285C25.0689 9.54142 23.8577 8.52238 23.7391 7.14677C23.6205 5.77116 24.6396 4.55989 26.0152 4.44132C27.3908 4.32276 28.6021 5.34179 28.7206 6.7174Z" fill="white"/>
<path fill-rule="evenodd" clip-rule="evenodd" d="M26.4102 9.02433C27.5657 8.92473 28.4217 7.90727 28.3221 6.75175C28.2225 5.59624 27.205 4.74025 26.0495 4.83985C24.894 4.93944 24.038 5.95691 24.1376 7.11242C24.2372 8.26794 25.2547 9.12393 26.4102 9.02433ZM26.4445 9.42285C27.8202 9.30429 28.8392 8.09302 28.7206 6.7174C28.6021 5.34179 27.3908 4.32276 26.0152 4.44132C24.6396 4.55989 23.6205 5.77116 23.7391 7.14677C23.8577 8.52238 25.0689 9.54142 26.4445 9.42285Z" fill="#18181B"/>
<path d="M14 27.5771L20.5634 26.9998L21.7022 39.9459L15.1387 40.5232L14 27.5771Z" fill="white"/>
<path fill-rule="evenodd" clip-rule="evenodd" d="M19.8366 27.8668L14.867 28.304L15.8656 39.6562L20.8352 39.2191L19.8366 27.8668ZM14 27.5771L15.1387 40.5232L21.7022 39.9459L20.5634 26.9998L14 27.5771Z" fill="#18181B"/>
<path d="M25.7324 20.7622L34.8832 19.9573L36.4576 37.8553L27.3067 38.6602L25.7324 20.7622Z" fill="white"/>
<path fill-rule="evenodd" clip-rule="evenodd" d="M34.1564 20.8243L26.5994 21.489L28.0336 37.7932L35.5905 37.1285L34.1564 20.8243ZM25.7324 20.7622L27.3067 38.6602L36.4576 37.8553L34.8832 19.9573L25.7324 20.7622Z" fill="#18181B"/>
<path d="M39.8037 22.5889L46.4952 22.0003L47.8019 36.8559L41.1104 37.4445L39.8037 22.5889Z" fill="white"/>
<path fill-rule="evenodd" clip-rule="evenodd" d="M45.7684 22.8673L40.6707 23.3157L41.8372 36.5775L46.9349 36.1291L45.7684 22.8673ZM39.8037 22.5889L41.1104 37.4445L47.8019 36.8559L46.4952 22.0003L39.8037 22.5889Z" fill="#18181B"/>
</svg>
