<svg width="51" height="52" viewBox="0 0 51 52" fill="none" xmlns="http://www.w3.org/2000/svg">
<path d="M0 33.4138C0 32.4499 0.809124 31.6685 1.80723 31.6685H6.47096C7.46907 31.6685 8.27819 32.4499 8.27819 33.4138V46.699C8.27819 47.6629 7.46907 48.4443 6.47096 48.4443H1.80723C0.809125 48.4443 0 47.6629 0 46.699V33.4138Z" fill="white"/>
<path d="M10.241 31.5437C10.482 33.6381 14.7591 38.6221 16.8675 40.8523L20.1808 13.7993C17.47 14.9629 14.1567 18.4536 12.6507 21.3625C11.1447 24.2714 9.93984 28.9257 10.241 31.5437Z" fill="#A2DFF4"/>
<path fill-rule="evenodd" clip-rule="evenodd" d="M22.5068 12.5357C22.5639 12.6517 22.5128 12.7906 22.3927 12.8458C11.0595 18.051 9.86724 28.8142 10.6876 33.5413C10.7096 33.6681 10.6211 33.7881 10.4898 33.8093C10.3586 33.8306 10.2343 33.745 10.2123 33.6183C9.37107 28.7709 10.5882 17.7521 22.1857 12.4254C22.3059 12.3702 22.4496 12.4196 22.5068 12.5357Z" fill="#1B2730"/>
<path fill-rule="evenodd" clip-rule="evenodd" d="M17.1053 17.8337C17.1271 17.9604 17.0385 18.0803 16.9072 18.1015L15.1 18.3923C14.9687 18.4135 14.8445 18.3278 14.8227 18.2011C14.8008 18.0743 14.8895 17.9544 15.0207 17.9333L16.828 17.6424C16.9592 17.6212 17.0834 17.7069 17.1053 17.8337Z" fill="#1B2730"/>
<path fill-rule="evenodd" clip-rule="evenodd" d="M15.9017 20.1702C15.9182 20.2977 15.8245 20.414 15.6925 20.43L13.2828 20.7209C13.1508 20.7368 13.0304 20.6463 13.0138 20.5188C12.9973 20.3913 13.091 20.275 13.2231 20.259L15.6327 19.9681C15.7648 19.9522 15.8852 20.0427 15.9017 20.1702Z" fill="#1B2730"/>
<path fill-rule="evenodd" clip-rule="evenodd" d="M14.6969 22.4973C14.7134 22.6249 14.6197 22.7412 14.4876 22.7571L12.078 23.048C11.946 23.0639 11.8255 22.9735 11.809 22.846C11.7925 22.7184 11.8862 22.6021 12.0182 22.5862L14.4279 22.2953C14.5599 22.2793 14.6804 22.3698 14.6969 22.4973Z" fill="#1B2730"/>
<path fill-rule="evenodd" clip-rule="evenodd" d="M13.4915 24.8204C13.5104 24.9477 13.4188 25.0655 13.2871 25.0837L11.1786 25.3746C11.0469 25.3928 10.9248 25.3044 10.906 25.1772C10.8872 25.0499 10.9787 24.932 11.1105 24.9139L13.2189 24.623C13.3507 24.6048 13.4727 24.6932 13.4915 24.8204Z" fill="#1B2730"/>
<path fill-rule="evenodd" clip-rule="evenodd" d="M13.191 27.1516C13.2075 27.2792 13.1138 27.3955 12.9818 27.4114L10.5721 27.7023C10.4401 27.7182 10.3197 27.6278 10.3032 27.5002C10.2866 27.3727 10.3803 27.2564 10.5124 27.2405L12.922 26.9496C13.0541 26.9336 13.1745 27.0241 13.191 27.1516Z" fill="#1B2730"/>
<path fill-rule="evenodd" clip-rule="evenodd" d="M12.8844 29.4507C12.9167 29.5754 12.8382 29.7018 12.7091 29.7329L10.2995 30.3147C10.1704 30.3459 10.0395 30.2701 10.0073 30.1454C9.97497 30.0207 10.0535 29.8944 10.1826 29.8632L12.5922 29.2814C12.7213 29.2502 12.8522 29.3261 12.8844 29.4507Z" fill="#1B2730"/>
<path d="M0.602295 32.998C0.602295 32.3554 1.14171 31.8345 1.80711 31.8345H6.62639C7.29179 31.8345 7.83121 32.3554 7.83121 32.998V46.9608C7.83121 47.6035 7.29179 48.1244 6.62639 48.1244H1.80711C1.14171 48.1244 0.602295 47.6035 0.602295 46.9608V32.998Z" fill="#AEA1F7"/>
<path fill-rule="evenodd" clip-rule="evenodd" d="M6.47096 32.2502H1.80723C1.14182 32.2502 0.60241 32.7712 0.60241 33.4138V46.699C0.60241 47.3416 1.14183 47.8625 1.80723 47.8625H6.47096C7.13636 47.8625 7.67578 47.3416 7.67578 46.699V33.4138C7.67578 32.7712 7.13636 32.2502 6.47096 32.2502ZM1.80723 31.6685C0.809124 31.6685 0 32.4499 0 33.4138V46.699C0 47.6629 0.809124 48.4443 1.80723 48.4443H6.47096C7.46907 48.4443 8.27819 47.6629 8.27819 46.699V33.4138C8.27819 32.4499 7.46907 31.6685 6.47096 31.6685H1.80723Z" fill="#1B2730"/>
<path fill-rule="evenodd" clip-rule="evenodd" d="M7.85943 33.6933L0.32931 35.4386L0.273076 35.2123L7.8032 33.467L7.85943 33.6933Z" fill="#1B2730"/>
<path fill-rule="evenodd" clip-rule="evenodd" d="M8.15961 35.148L0.328288 36.8933L0.274105 36.6666L8.10543 34.9212L8.15961 35.148Z" fill="#1B2730"/>
<path fill-rule="evenodd" clip-rule="evenodd" d="M7.85943 36.8931L0.32931 38.6384L0.273076 38.4122L7.8032 36.6668L7.85943 36.8931Z" fill="#1B2730"/>
<path fill-rule="evenodd" clip-rule="evenodd" d="M8.15961 38.6387L0.328288 40.384L0.274105 40.1573L8.10543 38.4119L8.15961 38.6387Z" fill="#1B2730"/>
<path fill-rule="evenodd" clip-rule="evenodd" d="M8.15961 40.384L0.328288 42.1294L0.274105 41.9026L8.10543 40.1573L8.15961 40.384Z" fill="#1B2730"/>
<path fill-rule="evenodd" clip-rule="evenodd" d="M7.85494 42.4209L0.324818 43.8754L0.277561 43.6472L7.80768 42.1928L7.85494 42.4209Z" fill="#1B2730"/>
<path fill-rule="evenodd" clip-rule="evenodd" d="M8.15527 44.4574L0.323949 45.9118L0.278444 45.6833L8.10977 44.2289L8.15527 44.4574Z" fill="#1B2730"/>
<path fill-rule="evenodd" clip-rule="evenodd" d="M7.85587 46.2024L0.626956 47.6568L0.57781 47.429L7.80673 45.9746L7.85587 46.2024Z" fill="#1B2730"/>
<path fill-rule="evenodd" clip-rule="evenodd" d="M7.55933 32.5295L0.330415 34.2748L0.271973 34.0491L7.50089 32.3037L7.55933 32.5295Z" fill="#1B2730"/>
<path d="M12.4909 30.2434C12.7623 20.6497 19.7965 14.101 23.2797 12.0259C23.8904 11.174 18.462 4.09665 17.7835 3.44134C17.105 2.78604 17.4442 1.6065 19.0049 1.14776C20.5655 0.689018 20.7691 1.47541 22.669 1.14776C24.5689 0.820103 24.3653 2.13072 25.1796 3.04816C25.9938 3.9656 28.7759 3.44134 30.3365 3.04816C31.8971 2.65498 33.2542 2.39285 33.6613 3.44134C34.0685 4.48984 30.1329 10.191 29.8615 11.174C29.6444 11.9603 30.3139 12.0696 30.6758 12.0259C38.0718 15.6956 46.105 34.3604 36.7148 41.1871C26.1916 48.8375 12.1516 42.2356 12.4909 30.2434Z" fill="#A2DFF4"/>
<path fill-rule="evenodd" clip-rule="evenodd" d="M29.2772 14.5658C29.3156 14.5249 29.3815 14.5216 29.4242 14.5584C31.1728 16.0636 35.0724 20.6612 36.744 27.0563C36.7579 27.1096 36.724 27.1637 36.6682 27.1771C36.6124 27.1904 36.5559 27.1579 36.542 27.1046C34.8817 20.7529 31.0069 16.1887 29.2849 14.7064C29.2422 14.6696 29.2387 14.6066 29.2772 14.5658Z" fill="#1B2730"/>
<path fill-rule="evenodd" clip-rule="evenodd" d="M28.3281 7.06497C28.385 7.07275 28.4246 7.12319 28.4164 7.17764L27.8958 10.6631C27.8877 10.7175 27.835 10.7554 27.778 10.7476C27.7211 10.7398 27.6816 10.6894 27.6897 10.6349L28.2103 7.14947C28.2184 7.09502 28.2712 7.05719 28.3281 7.06497Z" fill="#1B2730"/>
<path fill-rule="evenodd" clip-rule="evenodd" d="M22.0196 5.0828C22.0711 5.0582 22.1336 5.07814 22.1593 5.12734C22.5934 5.9577 23.2446 7.22826 23.7874 8.34138C24.0588 8.89781 24.3035 9.41579 24.4805 9.8201C24.569 10.0221 24.6411 10.197 24.6912 10.3346C24.7163 10.4034 24.7363 10.4641 24.7502 10.5149C24.7635 10.5637 24.7733 10.6107 24.7733 10.649C24.7733 10.704 24.7267 10.7486 24.6692 10.7486C24.6117 10.7486 24.5651 10.704 24.5651 10.649C24.5651 10.6375 24.5613 10.6111 24.5487 10.5653C24.5368 10.5215 24.5187 10.4662 24.4946 10.4002C24.4465 10.2681 24.3762 10.0975 24.2884 9.89704C24.113 9.49636 23.8696 8.98116 23.5987 8.42557C23.0569 7.31463 22.4066 6.04579 21.9731 5.21641C21.9473 5.16721 21.9682 5.1074 22.0196 5.0828Z" fill="#1B2730"/>
<path fill-rule="evenodd" clip-rule="evenodd" d="M24.2286 14.0707C24.2654 14.113 24.2594 14.1757 24.2152 14.211C23.6975 14.6236 22.8676 15.3429 22.0638 16.1572C21.2584 16.9731 20.4863 17.8772 20.0769 18.6603C20.0512 18.7095 19.9887 18.7294 19.9372 18.7048C19.8858 18.6802 19.8649 18.6204 19.8907 18.5712C20.3142 17.7609 21.1039 16.8394 21.9124 16.0204C22.7224 15.1999 23.5584 14.4752 24.0819 14.058C24.1261 14.0227 24.1918 14.0285 24.2286 14.0707Z" fill="#1B2730"/>
<path fill-rule="evenodd" clip-rule="evenodd" d="M20.8046 0.820518C21.264 0.914105 21.7433 1.01177 22.616 0.861271C23.1213 0.774127 23.5229 0.789229 23.8507 0.903787C24.1856 1.02078 24.4096 1.22954 24.5788 1.46509C24.7128 1.65157 24.8213 1.86925 24.9215 2.07033C24.9418 2.11105 24.9617 2.15109 24.9815 2.19006C25.1044 2.43263 25.2308 2.65875 25.4082 2.85873C25.5481 3.01632 25.7968 3.13657 26.1659 3.20465C26.5303 3.27186 26.9746 3.2812 27.4576 3.24931C28.4224 3.18559 29.4871 2.9614 30.2604 2.76656C31.0337 2.57176 31.8048 2.39544 32.4402 2.41323C32.7626 2.42225 33.0736 2.48127 33.3404 2.63039C33.6138 2.78318 33.8188 3.01846 33.9433 3.33908C34.0299 3.56212 33.9879 3.84496 33.9177 4.10708C33.8427 4.38681 33.7142 4.71544 33.5534 5.07016C33.2314 5.7809 32.7632 6.63269 32.2791 7.47348C31.9981 7.96142 31.7067 8.45426 31.4342 8.91521C31.2394 9.2445 31.0543 9.55752 30.8896 9.84084C30.6897 10.1846 30.5177 10.4878 30.3878 10.7343C30.2538 10.9886 30.1772 11.1596 30.1525 11.2488C30.1082 11.4093 30.1173 11.506 30.1344 11.5601C30.15 11.6097 30.1781 11.6428 30.2193 11.6695C30.3189 11.734 30.4915 11.7548 30.6384 11.7371L30.7307 11.726L30.8134 11.767C32.7263 12.7161 34.6497 14.6156 36.3103 17.0084C37.9744 19.4064 39.3918 22.3248 40.2798 25.343C42.0479 31.352 41.7475 37.8922 36.8959 41.4193C26.1958 49.1983 11.8428 42.5004 12.1898 30.2354C12.4625 20.5959 19.461 14.0019 23.0262 11.8355C23.0262 11.8293 23.0259 11.8222 23.0254 11.8143C23.0212 11.7488 23.0015 11.6542 22.9597 11.5276C22.8764 11.2755 22.7214 10.9443 22.5075 10.5529C22.0814 9.77318 21.446 8.79827 20.7652 7.82228C20.0855 6.84786 19.3653 5.87902 18.7731 5.1133C18.1738 4.33858 17.7214 3.79269 17.5705 3.64691C17.1406 3.23171 17.0357 2.64453 17.2782 2.10491C17.5175 1.57216 18.0771 1.11627 18.9171 0.869346C19.3335 0.746967 19.6701 0.704694 19.9733 0.709323C20.2736 0.713906 20.5301 0.764703 20.7717 0.813824C20.7827 0.816051 20.7936 0.818283 20.8046 0.820518ZM19.9638 1.29103C19.7306 1.28747 19.4565 1.31893 19.0925 1.42592C18.3719 1.63774 17.9815 2.00098 17.8308 2.33652C17.6831 2.66518 17.7478 2.99543 17.9964 3.23553C18.1848 3.41741 18.6654 4.00192 19.2557 4.76512C19.853 5.53733 20.5789 6.51393 21.2648 7.49724C21.9496 8.47899 22.5992 9.4741 23.0403 10.2814C23.2601 10.6836 23.4343 11.0502 23.5336 11.3507C23.5831 11.5005 23.6181 11.6459 23.6266 11.7781C23.6348 11.9044 23.6215 12.0599 23.5273 12.1913L23.4914 12.2414L23.4378 12.2733C20.0056 14.3181 13.0596 20.7899 12.792 30.2512C12.4604 41.9705 26.1872 48.4763 36.5336 40.9545C41.0722 37.655 41.5089 31.2904 39.7589 25.343C38.888 22.3829 37.4386 19.6793 35.8098 17.3323C34.2006 15.0134 32.3759 13.2218 30.6142 12.3228C30.402 12.3336 30.1164 12.3034 29.8837 12.1527C29.7394 12.0592 29.6182 11.9203 29.5581 11.7296C29.4994 11.5434 29.5062 11.3316 29.5704 11.0989C29.6137 10.9424 29.7193 10.7202 29.8509 10.4704C29.9866 10.2129 30.1635 9.90129 30.3643 9.55593C30.5347 9.26303 30.721 8.94797 30.9158 8.61868C31.1853 8.16295 31.4709 7.67996 31.7526 7.19073C32.2354 6.3523 32.6917 5.52077 33.0016 4.83693C33.1568 4.49437 33.2711 4.19789 33.3345 3.96132C33.4026 3.70713 33.3945 3.58245 33.3793 3.54336C33.3002 3.33973 33.183 3.2146 33.0386 3.13394C32.8877 3.0496 32.6856 3.00213 32.4227 2.99477C31.8877 2.97979 31.1999 3.13113 30.4125 3.32951C29.6252 3.52785 28.5186 3.76238 27.4987 3.82974C26.9892 3.86338 26.4879 3.85634 26.0529 3.7761C25.6225 3.69673 25.2181 3.53848 24.9509 3.23734C24.7212 2.9786 24.5676 2.69685 24.4404 2.44589C24.4164 2.3985 24.3936 2.35282 24.3715 2.30873C24.2717 2.10893 24.1882 1.94186 24.0839 1.79676C23.9648 1.63093 23.8326 1.51613 23.6458 1.45087C23.452 1.38317 23.1666 1.35731 22.7219 1.43399C21.7342 1.60434 21.1663 1.48872 20.6754 1.38877C20.6661 1.38688 20.6568 1.385 20.6476 1.38313C20.4057 1.33395 20.2001 1.29464 19.9638 1.29103Z" fill="#1B2730"/>
<path d="M26.1137 26.4229C26.4738 26.4097 26.8323 26.4752 27.1623 26.6145C27.4923 26.7538 27.7853 26.9632 28.0191 27.227C28.2529 27.4908 28.4215 27.8021 28.5123 28.1376C28.6031 28.4731 28.6137 28.824 28.5433 29.164C28.4999 29.4577 28.3874 29.738 28.2143 29.9835C28.0412 30.2291 27.8121 30.4333 27.5444 30.5807C27.3636 30.4937 27.1613 30.4569 26.96 30.4742C26.8492 30.4872 26.7399 30.5098 26.6333 30.5417C26.1403 30.3053 25.7267 29.9399 25.4401 29.4873C25.1324 29.0095 23.2265 29.5912 23.6165 30.1989C23.864 30.5753 24.1951 30.8942 24.586 31.1326C24.977 31.3711 25.418 31.5232 25.8775 31.5779V32.518C25.8683 32.5612 25.8681 32.6056 25.8769 32.6489C25.8857 32.6921 25.9033 32.7333 25.9287 32.7699C25.9615 32.8563 26.0258 32.9283 26.1096 32.9725C26.3105 33.084 26.5436 33.1296 26.7737 33.1023C27.0392 33.083 27.2939 32.993 27.5094 32.8426L27.6808 32.6946C27.7723 32.6 27.8333 32.4818 27.8563 32.3544V31.4208C28.6496 31.2461 29.353 30.807 29.8422 30.1813C30.3313 29.5555 30.5745 28.7835 30.5288 28.0019C30.4223 27.3217 30.0749 26.6977 29.5454 26.2355C29.0159 25.7732 28.3368 25.5009 27.6227 25.4646C27.2626 25.4778 26.9041 25.4122 26.5741 25.273C26.2441 25.1337 25.9511 24.9243 25.7173 24.6605C25.4835 24.3967 25.3149 24.0854 25.2241 23.7499C25.1333 23.4144 25.1227 23.0635 25.1931 22.7235C25.3011 22.1859 25.6682 21.425 26.2729 21.2601C27.0828 21.0458 27.9116 21.8107 28.2909 22.4002C28.5973 22.878 30.5045 22.2963 30.1131 21.6873C29.8644 21.3097 29.5316 20.9899 29.1387 20.7512C28.7458 20.5125 28.3027 20.3608 27.8414 20.307V19.1955C27.8414 19.0916 27.5363 19.0877 27.504 19.0864C27.263 19.0887 27.0236 19.1232 26.7926 19.189C26.5558 19.2438 26.3285 19.3313 26.1177 19.4487C26.0205 19.5071 25.8815 19.5786 25.8815 19.7084V20.4654C25.0885 20.6407 24.3854 21.0802 23.8968 21.7061C23.4082 22.3321 23.1655 23.1041 23.2116 23.8856C23.318 24.5652 23.6648 25.1887 24.1935 25.6509C24.7221 26.1131 25.4003 26.3857 26.1137 26.4229Z" fill="#1B2730"/>
<path d="M15.6065 31.9958C12.8924 31.7337 9.54491 33.5467 8.21045 34.486V45.0365C8.61757 44.9709 9.62181 44.8792 10.3818 45.0365C11.3317 45.2331 26.8025 50.9998 29.2452 50.9998C31.6879 50.9998 49.5336 36.0588 49.9407 34.486C50.3478 32.9133 48.5836 31.9958 47.0908 32.9133C45.598 33.8307 31.8915 42.022 30.738 42.6774C29.5845 43.3327 24.4954 39.9251 24.0883 39.0732C23.6812 38.2213 33.1807 39.0076 35.6913 38.4834C38.2019 37.9591 37.252 35.5345 36.0306 35.0103C34.8092 34.486 18.9992 32.3235 15.6065 31.9958Z" fill="white"/>
<path fill-rule="evenodd" clip-rule="evenodd" d="M8.51159 34.6358V44.7048C9.02231 44.6522 9.80535 44.62 10.4448 44.7524C10.5875 44.7819 10.9568 44.9023 11.4649 45.0751C11.9851 45.2521 12.6782 45.494 13.4891 45.7781C13.7183 45.8584 13.9571 45.9421 14.2041 46.0287C15.7055 46.5552 17.5126 47.1888 19.3541 47.818C21.499 48.5507 23.6872 49.2762 25.4903 49.8183C26.3921 50.0893 27.1943 50.3135 27.8449 50.4696C28.5052 50.6281 28.9811 50.7092 29.2451 50.7092C29.3335 50.7092 29.4992 50.6714 29.7569 50.5646C30.0055 50.4616 30.3105 50.307 30.666 50.1045C31.3764 49.6998 32.2665 49.1163 33.2746 48.406C35.2895 46.9863 37.7559 45.0744 40.1618 43.1108C42.5674 41.1476 44.908 39.1363 46.6713 37.5192C47.5533 36.7102 48.2878 36.0028 48.8128 35.4507C49.0757 35.1743 49.2823 34.9408 49.4279 34.7553C49.5007 34.6625 49.5554 34.5854 49.5934 34.5235C49.6337 34.458 49.6462 34.4243 49.6484 34.4158C49.8188 33.7574 49.5397 33.2675 49.0812 33.0201C48.6104 32.766 47.9147 32.752 47.2524 33.159C45.7585 34.0772 32.0486 42.2706 30.8906 42.9284C30.6601 43.0594 30.3728 43.0696 30.098 43.0343C29.815 42.998 29.4954 42.9068 29.1611 42.7822C28.4911 42.5325 27.7164 42.1312 26.9747 41.6882C26.2315 41.2443 25.5109 40.7521 24.948 40.3149C24.6668 40.0965 24.4214 39.8891 24.231 39.706C24.0494 39.5314 23.8902 39.3534 23.8147 39.1954C23.7785 39.1196 23.7607 39.0264 23.7864 38.9275C23.8112 38.8322 23.8684 38.7625 23.9235 38.7151C24.0247 38.6279 24.163 38.5782 24.2857 38.545C24.544 38.4751 24.9186 38.4327 25.357 38.4054C26.2426 38.3503 27.4817 38.3526 28.7985 38.3649C29.0821 38.3675 29.3694 38.3706 29.658 38.3738C30.7153 38.3852 31.7898 38.3968 32.7585 38.3864C34.0002 38.373 35.0345 38.3233 35.6276 38.1994C36.205 38.0789 36.5453 37.8576 36.7359 37.6169C36.926 37.3769 36.9927 37.0857 36.9607 36.7761C36.9283 36.4635 36.7951 36.1411 36.5982 35.8663C36.4003 35.5902 36.1519 35.381 35.9082 35.2764C35.8579 35.2549 35.7472 35.2207 35.5635 35.176C35.386 35.1328 35.1567 35.0835 34.881 35.029C34.3299 34.92 33.6026 34.7918 32.7504 34.6513C31.0466 34.3702 28.8523 34.0409 26.5887 33.7174C22.059 33.0703 17.2649 32.4487 15.5765 32.2856C14.2918 32.1616 12.8309 32.529 11.5064 33.0595C10.2672 33.5558 9.17759 34.1827 8.51159 34.6358ZM11.2757 32.5221C12.6371 31.9768 14.207 31.5687 15.6364 31.7068C17.3408 31.8713 22.148 32.4949 26.6768 33.1419C28.9424 33.4656 31.1417 33.7957 32.8518 34.0778C33.7066 34.2188 34.4413 34.3482 35.0019 34.459C35.282 34.5144 35.5209 34.5657 35.7108 34.6119C35.8945 34.6566 36.0505 34.7008 36.1529 34.7448C36.5198 34.9023 36.8482 35.1929 37.0935 35.5352C37.3397 35.8788 37.5161 36.2936 37.5601 36.7182C37.6044 37.1459 37.5142 37.5919 37.2144 37.9704C36.9153 38.3481 36.4329 38.6265 35.7549 38.7681C35.0928 38.9063 33.9981 38.9549 32.7652 38.9681C31.7891 38.9786 30.7054 38.9669 29.6472 38.9555C29.3596 38.9524 29.0739 38.9493 28.7927 38.9466C27.4717 38.9343 26.2553 38.9325 25.3957 38.986C24.9772 39.012 24.6644 39.0501 24.4694 39.0996C24.5157 39.153 24.5771 39.2178 24.656 39.2937C24.8264 39.4575 25.0544 39.6509 25.3255 39.8615C25.8674 40.2824 26.5675 40.7609 27.2916 41.1934C28.0173 41.6269 28.7566 42.0079 29.378 42.2394C29.6893 42.3555 29.9597 42.4296 30.1774 42.4576C30.4033 42.4866 30.5273 42.4599 30.5852 42.427C31.7343 41.7742 45.4374 33.5849 46.929 32.6682C47.7596 32.1578 48.6924 32.1438 49.3751 32.5123C50.0701 32.8874 50.4695 33.6426 50.2328 34.5569C50.2096 34.6467 50.1625 34.7374 50.1113 34.8207C50.0578 34.9077 49.9888 35.0037 49.908 35.1067C49.7462 35.3129 49.5253 35.5616 49.2565 35.8443C48.7181 36.4104 47.9725 37.1282 47.0861 37.9411C45.3125 39.5677 42.9627 41.5866 40.5506 43.5552C38.1389 45.5235 35.6605 47.4451 33.6296 48.876C32.6148 49.591 31.7068 50.1871 30.9721 50.6056C30.605 50.8147 30.2757 50.9827 29.9944 51.0993C29.722 51.2121 29.4621 51.291 29.2451 51.291C28.8985 51.291 28.3566 51.1919 27.6996 51.0343C27.0328 50.8742 26.2182 50.6464 25.3113 50.3737C23.4969 49.8284 21.3 49.0999 19.1532 48.3664C17.3091 47.7364 15.4994 47.1019 13.9981 46.5754C13.7512 46.4888 13.5127 46.4052 13.2837 46.325C12.4724 46.0408 11.7819 45.7998 11.2647 45.6239C10.7354 45.4438 10.4134 45.3409 10.3186 45.3213C9.61388 45.1754 8.65393 45.2603 8.2599 45.3238L7.90918 45.3802V34.3384L8.03298 34.2513C8.71793 33.7692 9.90908 33.0694 11.2757 32.5221Z" fill="#1B2730"/>
<path d="M22.2893 12.6355C20.6025 11.4719 21.5864 10.2114 22.2893 9.72656C23.0121 10.4247 28.4137 10.0175 31.0242 9.72656C32.7109 10.8901 31.727 11.7628 31.0242 12.0537C28.8154 12.7324 23.976 13.799 22.2893 12.6355Z" fill="#AEA1F7"/>
<path fill-rule="evenodd" clip-rule="evenodd" d="M22.2191 9.63203C22.267 9.59897 22.3327 9.60421 22.3743 9.64443C22.4406 9.70847 22.577 9.7723 22.7949 9.82639C23.008 9.87929 23.2813 9.91879 23.6025 9.94624C24.2444 10.0011 25.0635 10.0067 25.9452 9.98129C27.7078 9.93052 29.7072 9.75633 31.0103 9.61112C31.0399 9.60781 31.0698 9.61526 31.0941 9.63203C31.9534 10.2248 32.1806 10.7791 32.0356 11.2507C31.8972 11.7008 31.4341 12.0107 31.0715 12.1608C31.0679 12.1623 31.0643 12.1636 31.0606 12.1647C29.9511 12.5057 28.1817 12.9439 26.4758 13.1511C25.623 13.2546 24.7822 13.3009 24.0458 13.2471C23.3124 13.1935 22.6674 13.0396 22.2191 12.7303C21.7849 12.4308 21.5136 12.1188 21.3687 11.8059C21.2232 11.4916 21.2088 11.1839 21.2756 10.9008C21.4077 10.3411 21.855 9.8832 22.2191 9.63203ZM22.2858 9.87423C21.9653 10.1147 21.6163 10.5044 21.5105 10.9525C21.4543 11.1906 21.4662 11.4464 21.5887 11.7109C21.7118 11.9767 21.95 12.2587 22.3592 12.5409C22.7542 12.8135 23.3466 12.9626 24.064 13.015C24.7785 13.0673 25.6018 13.0226 26.4458 12.9202C28.1307 12.7156 29.8822 12.2822 30.9819 11.9447C31.3208 11.8033 31.6976 11.5324 31.8046 11.1844C31.9041 10.861 31.7852 10.4063 30.9914 9.84745C29.6833 9.99208 27.7031 10.1635 25.9524 10.2139C25.067 10.2394 24.237 10.2341 23.5812 10.178C23.2535 10.15 22.9658 10.1091 22.7349 10.0518C22.5564 10.0074 22.4 9.95061 22.2858 9.87423Z" fill="#1B2730"/>
</svg>
