<svg width="147" height="40" viewBox="0 0 147 40" fill="none" xmlns="http://www.w3.org/2000/svg">
<circle cx="20" cy="20" r="19.3333" fill="#666BE9" stroke="#282828" stroke-width="1.33333"/>
<circle cx="19.9995" cy="19.9999" r="12.323" fill="#87EFD4" stroke="#282828" stroke-width="1.33333"/>
<circle cx="20.2056" cy="19.794" r="6.34364" fill="#ECFFFA" stroke="#282828" stroke-width="1.33333"/>
<path d="M49.1378 19.5V6.40909H51.9055V17.218H57.5178V19.5H49.1378ZM63.774 19.6918C62.764 19.6918 61.8947 19.4872 61.166 19.0781C60.4416 18.6648 59.8833 18.081 59.4913 17.3267C59.0993 16.5682 58.9032 15.6712 58.9032 14.6357C58.9032 13.6257 59.0993 12.7393 59.4913 11.9766C59.8833 11.2138 60.4352 10.6193 61.1468 10.1932C61.8627 9.76705 62.7022 9.55398 63.6653 9.55398C64.313 9.55398 64.916 9.65838 65.4743 9.86719C66.0368 10.0717 66.5268 10.3807 66.9444 10.794C67.3663 11.2074 67.6944 11.7273 67.9288 12.3537C68.1632 12.9759 68.2804 13.7045 68.2804 14.5398V15.2876H59.9899V13.6001H65.7172C65.7172 13.2081 65.6319 12.8608 65.4615 12.5582C65.291 12.2557 65.0545 12.0192 64.752 11.8487C64.4537 11.674 64.1064 11.5866 63.7101 11.5866C63.2967 11.5866 62.9302 11.6825 62.6106 11.8743C62.2953 12.0618 62.0481 12.3153 61.8691 12.6349C61.6902 12.9503 61.5985 13.3018 61.5943 13.6896V15.294C61.5943 15.7798 61.6838 16.1996 61.8627 16.5533C62.046 16.907 62.3038 17.1797 62.6362 17.3714C62.9686 17.5632 63.3627 17.6591 63.8187 17.6591C64.1213 17.6591 64.3983 17.6165 64.6497 17.5312C64.9011 17.446 65.1163 17.3182 65.2953 17.1477C65.4743 16.9773 65.6106 16.7685 65.7044 16.5213L68.2228 16.6875C68.095 17.2926 67.8329 17.821 67.4366 18.2727C67.0446 18.7202 66.5375 19.0696 65.9153 19.321C65.2974 19.5682 64.5836 19.6918 63.774 19.6918ZM74.4934 19.6918C73.5005 19.6918 72.6419 19.4808 71.9174 19.0589C71.1973 18.6328 70.6412 18.0405 70.2491 17.282C69.8571 16.5192 69.661 15.6349 69.661 14.6293C69.661 13.6151 69.8571 12.7287 70.2491 11.9702C70.6412 11.2074 71.1973 10.6151 71.9174 10.1932C72.6419 9.76705 73.5005 9.55398 74.4934 9.55398C75.4863 9.55398 76.3429 9.76705 77.063 10.1932C77.7875 10.6151 78.3457 11.2074 78.7377 11.9702C79.1298 12.7287 79.3258 13.6151 79.3258 14.6293C79.3258 15.6349 79.1298 16.5192 78.7377 17.282C78.3457 18.0405 77.7875 18.6328 77.063 19.0589C76.3429 19.4808 75.4863 19.6918 74.4934 19.6918ZM74.5062 17.5824C74.9579 17.5824 75.335 17.4545 75.6376 17.1989C75.9402 16.9389 76.1681 16.5852 76.3216 16.1378C76.4792 15.6903 76.5581 15.1811 76.5581 14.6101C76.5581 14.0391 76.4792 13.5298 76.3216 13.0824C76.1681 12.6349 75.9402 12.2812 75.6376 12.0213C75.335 11.7614 74.9579 11.6314 74.5062 11.6314C74.0502 11.6314 73.6667 11.7614 73.3556 12.0213C73.0488 12.2812 72.8166 12.6349 72.6589 13.0824C72.5055 13.5298 72.4288 14.0391 72.4288 14.6101C72.4288 15.1811 72.5055 15.6903 72.6589 16.1378C72.8166 16.5852 73.0488 16.9389 73.3556 17.1989C73.6667 17.4545 74.0502 17.5824 74.5062 17.5824ZM83.8194 6.40909V19.5H81.0964V6.40909H83.8194ZM97.3194 10.174C97.2683 9.65838 97.0488 9.25781 96.661 8.9723C96.2733 8.68679 95.747 8.54403 95.0822 8.54403C94.6305 8.54403 94.2491 8.60795 93.938 8.7358C93.627 8.85938 93.3883 9.03196 93.2221 9.25355C93.0602 9.47514 92.9792 9.72656 92.9792 10.0078C92.9707 10.2422 93.0197 10.4467 93.1262 10.6214C93.237 10.7962 93.3883 10.9474 93.5801 11.0753C93.7718 11.1989 93.9934 11.3075 94.2449 11.4013C94.4963 11.4908 94.7647 11.5675 95.0502 11.6314L96.2264 11.9126C96.7974 12.0405 97.3216 12.2109 97.7988 12.424C98.2761 12.6371 98.6895 12.8991 99.0389 13.2102C99.3883 13.5213 99.6589 13.8878 99.8507 14.3097C100.047 14.7315 100.147 15.2152 100.151 15.7607C100.147 16.5618 99.9423 17.2564 99.5375 17.8445C99.1369 18.4283 98.5574 18.8821 97.7988 19.206C97.0446 19.5256 96.1348 19.6854 95.0694 19.6854C94.0126 19.6854 93.0922 19.5234 92.3081 19.1996C91.5282 18.8757 90.9189 18.3963 90.4799 17.7614C90.0453 17.1222 89.8173 16.3317 89.796 15.3899H92.4743C92.5041 15.8288 92.6298 16.1953 92.8514 16.4893C93.0772 16.7791 93.3777 16.9986 93.7527 17.1477C94.1319 17.2926 94.5602 17.3651 95.0375 17.3651C95.5062 17.3651 95.9132 17.2969 96.2583 17.1605C96.6078 17.0241 96.8784 16.8345 97.0701 16.5916C97.2619 16.3487 97.3578 16.0696 97.3578 15.7543C97.3578 15.4602 97.2704 15.2131 97.0957 15.0128C96.9252 14.8125 96.6738 14.642 96.3414 14.5014C96.0133 14.3608 95.6106 14.233 95.1333 14.1179L93.7079 13.7599C92.6042 13.4915 91.7328 13.0717 91.0936 12.5007C90.4544 11.9297 90.1369 11.1605 90.1412 10.1932C90.1369 9.40057 90.3478 8.7081 90.774 8.11577C91.2044 7.52344 91.7946 7.06108 92.5446 6.72869C93.2946 6.39631 94.1468 6.23011 95.1014 6.23011C96.073 6.23011 96.921 6.39631 97.6454 6.72869C98.3741 7.06108 98.9409 7.52344 99.3457 8.11577C99.7505 8.7081 99.9593 9.39418 99.9721 10.174H97.3194ZM107.184 9.68182V11.7273H101.271V9.68182H107.184ZM102.614 7.32955H105.337V16.483C105.337 16.7344 105.375 16.9304 105.452 17.071C105.528 17.2074 105.635 17.3033 105.771 17.3587C105.912 17.4141 106.074 17.4418 106.257 17.4418C106.385 17.4418 106.513 17.4311 106.641 17.4098C106.768 17.3842 106.866 17.3651 106.935 17.3523L107.363 19.3786C107.227 19.4212 107.035 19.4702 106.788 19.5256C106.54 19.5852 106.24 19.6214 105.886 19.6342C105.23 19.6598 104.655 19.5724 104.161 19.3722C103.67 19.1719 103.289 18.8608 103.016 18.4389C102.744 18.017 102.609 17.4844 102.614 16.8409V7.32955ZM115.254 15.3196V9.68182H117.977V19.5H115.363V17.7166H115.26C115.039 18.2919 114.67 18.7543 114.154 19.1037C113.643 19.4531 113.019 19.6278 112.282 19.6278C111.625 19.6278 111.048 19.4787 110.549 19.1804C110.051 18.8821 109.661 18.4581 109.38 17.9084C109.103 17.3587 108.962 16.7003 108.958 15.9332V9.68182H111.681V15.4474C111.685 16.027 111.841 16.4851 112.147 16.8217C112.454 17.1584 112.865 17.3267 113.381 17.3267C113.709 17.3267 114.016 17.2521 114.301 17.103C114.587 16.9496 114.817 16.7237 114.992 16.4254C115.171 16.1271 115.258 15.7585 115.254 15.3196ZM123.773 19.6598C123.027 19.6598 122.352 19.468 121.747 19.0845C121.146 18.6967 120.669 18.1278 120.315 17.3778C119.965 16.6236 119.791 15.6989 119.791 14.6037C119.791 13.4787 119.972 12.5433 120.334 11.7976C120.696 11.0476 121.178 10.4872 121.779 10.1165C122.384 9.74148 123.046 9.55398 123.767 9.55398C124.316 9.55398 124.774 9.64773 125.141 9.83523C125.512 10.0185 125.81 10.2486 126.036 10.5256C126.266 10.7983 126.441 11.0668 126.56 11.331H126.643V6.40909H129.36V19.5H126.675V17.9276H126.56C126.432 18.2003 126.251 18.4709 126.017 18.7393C125.786 19.0036 125.486 19.223 125.115 19.3977C124.749 19.5724 124.301 19.6598 123.773 19.6598ZM124.636 17.4929C125.075 17.4929 125.445 17.3736 125.748 17.1349C126.055 16.892 126.289 16.5533 126.451 16.1186C126.617 15.6839 126.7 15.1747 126.7 14.5909C126.7 14.0071 126.619 13.5 126.458 13.0696C126.296 12.6392 126.061 12.3068 125.754 12.0724C125.448 11.8381 125.075 11.7209 124.636 11.7209C124.188 11.7209 123.811 11.8423 123.504 12.0852C123.198 12.3281 122.965 12.6648 122.808 13.0952C122.65 13.5256 122.571 14.0241 122.571 14.5909C122.571 15.1619 122.65 15.6669 122.808 16.1058C122.97 16.5405 123.202 16.8814 123.504 17.1286C123.811 17.3714 124.188 17.4929 124.636 17.4929ZM131.598 19.5V9.68182H134.321V19.5H131.598ZM132.966 8.41619C132.561 8.41619 132.214 8.28196 131.924 8.01349C131.639 7.74077 131.496 7.41477 131.496 7.03551C131.496 6.66051 131.639 6.33878 131.924 6.07031C132.214 5.79758 132.561 5.66122 132.966 5.66122C133.371 5.66122 133.716 5.79758 134.002 6.07031C134.292 6.33878 134.436 6.66051 134.436 7.03551C134.436 7.41477 134.292 7.74077 134.002 8.01349C133.716 8.28196 133.371 8.41619 132.966 8.41619ZM140.939 19.6918C139.946 19.6918 139.087 19.4808 138.363 19.0589C137.643 18.6328 137.086 18.0405 136.694 17.282C136.302 16.5192 136.106 15.6349 136.106 14.6293C136.106 13.6151 136.302 12.7287 136.694 11.9702C137.086 11.2074 137.643 10.6151 138.363 10.1932C139.087 9.76705 139.946 9.55398 140.939 9.55398C141.932 9.55398 142.788 9.76705 143.508 10.1932C144.233 10.6151 144.791 11.2074 145.183 11.9702C145.575 12.7287 145.771 13.6151 145.771 14.6293C145.771 15.6349 145.575 16.5192 145.183 17.282C144.791 18.0405 144.233 18.6328 143.508 19.0589C142.788 19.4808 141.932 19.6918 140.939 19.6918ZM140.952 17.5824C141.403 17.5824 141.78 17.4545 142.083 17.1989C142.385 16.9389 142.613 16.5852 142.767 16.1378C142.925 15.6903 143.003 15.1811 143.003 14.6101C143.003 14.0391 142.925 13.5298 142.767 13.0824C142.613 12.6349 142.385 12.2812 142.083 12.0213C141.78 11.7614 141.403 11.6314 140.952 11.6314C140.496 11.6314 140.112 11.7614 139.801 12.0213C139.494 12.2812 139.262 12.6349 139.104 13.0824C138.951 13.5298 138.874 14.0391 138.874 14.6101C138.874 15.1811 138.951 15.6903 139.104 16.1378C139.262 16.5852 139.494 16.9389 139.801 17.1989C140.112 17.4545 140.496 17.5824 140.952 17.5824Z" fill="#0D0C22"/>
<path d="M48.7585 35.5V26.7727H52.2017C52.8636 26.7727 53.4276 26.8991 53.8935 27.152C54.3594 27.402 54.7145 27.75 54.9588 28.196C55.206 28.6392 55.3295 29.1506 55.3295 29.7301C55.3295 30.3097 55.2045 30.821 54.9545 31.2642C54.7045 31.7074 54.3423 32.0526 53.8679 32.2997C53.3963 32.5469 52.8253 32.6705 52.1548 32.6705H49.9602V31.1918H51.8565C52.2116 31.1918 52.5043 31.1307 52.7344 31.0085C52.9673 30.8835 53.1406 30.7116 53.2543 30.4929C53.3707 30.2713 53.429 30.017 53.429 29.7301C53.429 29.4403 53.3707 29.1875 53.2543 28.9716C53.1406 28.7528 52.9673 28.5838 52.7344 28.4645C52.5014 28.3423 52.206 28.2812 51.848 28.2812H50.6037V35.5H48.7585ZM56.494 35.5V28.9545H58.2539V30.0966H58.3221C58.4414 29.6903 58.6417 29.3835 58.9229 29.1761C59.2042 28.9659 59.5281 28.8608 59.8945 28.8608C59.9854 28.8608 60.0835 28.8665 60.1886 28.8778C60.2937 28.8892 60.386 28.9048 60.4656 28.9247V30.5355C60.3803 30.5099 60.2624 30.4872 60.1119 30.4673C59.9613 30.4474 59.8235 30.4375 59.6985 30.4375C59.4315 30.4375 59.1928 30.4957 58.9826 30.6122C58.7752 30.7259 58.6104 30.8849 58.4883 31.0895C58.369 31.294 58.3093 31.5298 58.3093 31.7969V35.5H56.494ZM64.0568 35.6278C63.3949 35.6278 62.8224 35.4872 62.3395 35.206C61.8594 34.9219 61.4886 34.527 61.2273 34.0213C60.9659 33.5128 60.8352 32.9233 60.8352 32.2528C60.8352 31.5767 60.9659 30.9858 61.2273 30.4801C61.4886 29.9716 61.8594 29.5767 62.3395 29.2955C62.8224 29.0114 63.3949 28.8693 64.0568 28.8693C64.7188 28.8693 65.2898 29.0114 65.7699 29.2955C66.2528 29.5767 66.625 29.9716 66.8864 30.4801C67.1477 30.9858 67.2784 31.5767 67.2784 32.2528C67.2784 32.9233 67.1477 33.5128 66.8864 34.0213C66.625 34.527 66.2528 34.9219 65.7699 35.206C65.2898 35.4872 64.7188 35.6278 64.0568 35.6278ZM64.0653 34.2216C64.3665 34.2216 64.6179 34.1364 64.8196 33.9659C65.0213 33.7926 65.1733 33.5568 65.2756 33.2585C65.3807 32.9602 65.4332 32.6207 65.4332 32.2401C65.4332 31.8594 65.3807 31.5199 65.2756 31.2216C65.1733 30.9233 65.0213 30.6875 64.8196 30.5142C64.6179 30.3409 64.3665 30.2543 64.0653 30.2543C63.7614 30.2543 63.5057 30.3409 63.2983 30.5142C63.0938 30.6875 62.9389 30.9233 62.8338 31.2216C62.7315 31.5199 62.6804 31.8594 62.6804 32.2401C62.6804 32.6207 62.7315 32.9602 62.8338 33.2585C62.9389 33.5568 63.0938 33.7926 63.2983 33.9659C63.5057 34.1364 63.7614 34.2216 64.0653 34.2216ZM70.8707 35.6065C70.3736 35.6065 69.9233 35.4787 69.5199 35.223C69.1193 34.9645 68.8011 34.5852 68.5653 34.0852C68.3324 33.5824 68.2159 32.9659 68.2159 32.2358C68.2159 31.4858 68.3366 30.8622 68.5781 30.3651C68.8196 29.8651 69.1406 29.4915 69.5412 29.2443C69.9446 28.9943 70.3864 28.8693 70.8665 28.8693C71.233 28.8693 71.5384 28.9318 71.7827 29.0568C72.0298 29.179 72.2287 29.3324 72.3793 29.517C72.5327 29.6989 72.6491 29.8778 72.7287 30.054H72.7841V26.7727H74.5952V35.5H72.8054V34.4517H72.7287C72.6435 34.6335 72.5227 34.8139 72.3665 34.9929C72.2131 35.169 72.0128 35.3153 71.7656 35.4318C71.5213 35.5483 71.223 35.6065 70.8707 35.6065ZM71.446 34.1619C71.7386 34.1619 71.9858 34.0824 72.1875 33.9233C72.392 33.7614 72.5483 33.5355 72.6562 33.2457C72.767 32.956 72.8224 32.6165 72.8224 32.2273C72.8224 31.8381 72.7685 31.5 72.6605 31.2131C72.5526 30.9261 72.3963 30.7045 72.1918 30.5483C71.9872 30.392 71.7386 30.3139 71.446 30.3139C71.1477 30.3139 70.8963 30.3949 70.6918 30.5568C70.4872 30.7187 70.3324 30.9432 70.2273 31.2301C70.1222 31.517 70.0696 31.8494 70.0696 32.2273C70.0696 32.608 70.1222 32.9446 70.2273 33.2372C70.3352 33.527 70.4901 33.7543 70.6918 33.919C70.8963 34.081 71.1477 34.1619 71.446 34.1619ZM80.2852 32.7131V28.9545H82.1005V35.5H80.3576V34.3111H80.2894C80.1417 34.6946 79.896 35.0028 79.5522 35.2358C79.2113 35.4687 78.7951 35.5852 78.3036 35.5852C77.8661 35.5852 77.4812 35.4858 77.1488 35.2869C76.8164 35.0881 76.5565 34.8054 76.369 34.4389C76.1843 34.0724 76.0906 33.6335 76.0877 33.1222V28.9545H77.9031V32.7983C77.9059 33.1847 78.0096 33.4901 78.2141 33.7145C78.4187 33.9389 78.6928 34.0511 79.0366 34.0511C79.2553 34.0511 79.4599 34.0014 79.6502 33.902C79.8406 33.7997 79.994 33.6491 80.1104 33.4503C80.2298 33.2514 80.288 33.0057 80.2852 32.7131ZM86.5099 35.6278C85.8395 35.6278 85.2628 35.4858 84.7798 35.2017C84.2997 34.9148 83.9304 34.517 83.6719 34.0085C83.4162 33.5 83.2884 32.9148 83.2884 32.2528C83.2884 31.5824 83.4176 30.9943 83.6761 30.4886C83.9375 29.9801 84.3082 29.5838 84.7884 29.2997C85.2685 29.0128 85.8395 28.8693 86.5014 28.8693C87.0724 28.8693 87.5724 28.973 88.0014 29.1804C88.4304 29.3878 88.7699 29.679 89.0199 30.054C89.2699 30.429 89.4077 30.8693 89.4332 31.375H87.7202C87.6719 31.0483 87.544 30.7855 87.3366 30.5866C87.1321 30.3849 86.8636 30.2841 86.5312 30.2841C86.25 30.2841 86.0043 30.3608 85.794 30.5142C85.5866 30.6648 85.4247 30.8849 85.3082 31.1747C85.1918 31.4645 85.1335 31.8153 85.1335 32.2273C85.1335 32.6449 85.1903 33 85.304 33.2926C85.4205 33.5852 85.5838 33.8082 85.794 33.9616C86.0043 34.1151 86.25 34.1918 86.5312 34.1918C86.7386 34.1918 86.9247 34.1491 87.0895 34.0639C87.2571 33.9787 87.3949 33.8551 87.5028 33.6932C87.6136 33.5284 87.6861 33.331 87.7202 33.1009H89.4332C89.4048 33.6009 89.2685 34.0412 89.0241 34.4219C88.7827 34.7997 88.4489 35.0952 88.0227 35.3082C87.5966 35.5213 87.0923 35.6278 86.5099 35.6278ZM94.0771 28.9545V30.3182H90.1353V28.9545H94.0771ZM91.0302 27.3864H92.8455V33.4886C92.8455 33.6562 92.8711 33.7869 92.9222 33.8807C92.9734 33.9716 93.0444 34.0355 93.1353 34.0724C93.229 34.1094 93.337 34.1278 93.4592 34.1278C93.5444 34.1278 93.6296 34.1207 93.7148 34.1065C93.8001 34.0895 93.8654 34.0767 93.9109 34.0682L94.1964 35.419C94.1055 35.4474 93.9776 35.4801 93.8129 35.517C93.6481 35.5568 93.4478 35.581 93.212 35.5895C92.7745 35.6065 92.391 35.5483 92.0614 35.4148C91.7347 35.2812 91.4805 35.0739 91.2987 34.7926C91.1168 34.5114 91.0273 34.1562 91.0302 33.7273V27.3864ZM101.165 35.5H98.071V26.7727H101.19C102.068 26.7727 102.824 26.9474 103.457 27.2969C104.091 27.6435 104.578 28.142 104.919 28.7926C105.263 29.4432 105.435 30.2216 105.435 31.1278C105.435 32.0369 105.263 32.8182 104.919 33.4716C104.578 34.125 104.088 34.6264 103.449 34.9759C102.812 35.3253 102.051 35.5 101.165 35.5ZM99.9162 33.919H101.088C101.634 33.919 102.092 33.8224 102.464 33.6293C102.839 33.4332 103.121 33.1307 103.308 32.7216C103.499 32.3097 103.594 31.7784 103.594 31.1278C103.594 30.483 103.499 29.956 103.308 29.5469C103.121 29.1378 102.841 28.8366 102.469 28.6435C102.097 28.4503 101.638 28.3537 101.092 28.3537H99.9162V33.919ZM109.75 35.6278C109.077 35.6278 108.498 35.4915 108.012 35.2188C107.529 34.9432 107.157 34.554 106.895 34.0511C106.634 33.5455 106.503 32.9474 106.503 32.2571C106.503 31.5838 106.634 30.9929 106.895 30.4844C107.157 29.9759 107.525 29.5795 107.999 29.2955C108.476 29.0114 109.036 28.8693 109.678 28.8693C110.11 28.8693 110.512 28.9389 110.884 29.0781C111.259 29.2145 111.586 29.4205 111.864 29.696C112.145 29.9716 112.364 30.3182 112.52 30.7358C112.676 31.1506 112.755 31.6364 112.755 32.1932V32.6918H107.228V31.5668H111.046C111.046 31.3054 110.989 31.0739 110.875 30.8722C110.762 30.6705 110.604 30.5128 110.402 30.3991C110.203 30.2827 109.972 30.2244 109.708 30.2244C109.432 30.2244 109.188 30.2884 108.975 30.4162C108.765 30.5412 108.6 30.7102 108.48 30.9233C108.361 31.1335 108.3 31.3679 108.297 31.6264V32.696C108.297 33.0199 108.357 33.2997 108.476 33.5355C108.598 33.7713 108.77 33.9531 108.992 34.081C109.213 34.2088 109.476 34.2727 109.78 34.2727C109.982 34.2727 110.167 34.2443 110.334 34.1875C110.502 34.1307 110.645 34.0455 110.765 33.9318C110.884 33.8182 110.975 33.679 111.037 33.5142L112.716 33.625C112.631 34.0284 112.456 34.3807 112.192 34.6818C111.931 34.9801 111.593 35.2131 111.178 35.3807C110.766 35.5455 110.29 35.6278 109.75 35.6278ZM119.385 30.821L117.723 30.9233C117.695 30.7812 117.634 30.6534 117.54 30.5398C117.446 30.4233 117.323 30.331 117.169 30.2628C117.019 30.1918 116.838 30.1562 116.628 30.1562C116.347 30.1562 116.11 30.2159 115.917 30.3352C115.723 30.4517 115.627 30.608 115.627 30.804C115.627 30.9602 115.689 31.0923 115.814 31.2003C115.939 31.3082 116.154 31.3949 116.458 31.4602L117.642 31.6989C118.279 31.8295 118.753 32.0398 119.066 32.3295C119.378 32.6193 119.534 33 119.534 33.4716C119.534 33.9006 119.408 34.277 119.155 34.6009C118.905 34.9247 118.561 35.1776 118.124 35.3594C117.689 35.5384 117.188 35.6278 116.62 35.6278C115.753 35.6278 115.063 35.4474 114.549 35.0866C114.037 34.723 113.738 34.2287 113.65 33.6037L115.435 33.5099C115.489 33.7741 115.62 33.9759 115.827 34.1151C116.034 34.2514 116.3 34.3196 116.624 34.3196C116.942 34.3196 117.198 34.2585 117.391 34.1364C117.587 34.0114 117.686 33.8509 117.689 33.6548C117.686 33.4901 117.617 33.3551 117.48 33.25C117.344 33.142 117.134 33.0597 116.85 33.0028L115.716 32.777C115.077 32.6491 114.601 32.4276 114.289 32.1122C113.979 31.7969 113.824 31.3949 113.824 30.9062C113.824 30.4858 113.938 30.1236 114.165 29.8196C114.395 29.5156 114.718 29.2812 115.132 29.1165C115.55 28.9517 116.039 28.8693 116.598 28.8693C117.425 28.8693 118.076 29.044 118.55 29.3935C119.027 29.7429 119.306 30.2187 119.385 30.821ZM120.678 35.5V28.9545H122.493V35.5H120.678ZM121.589 28.1108C121.32 28.1108 121.088 28.0213 120.895 27.8423C120.705 27.6605 120.609 27.4432 120.609 27.1903C120.609 26.9403 120.705 26.7259 120.895 26.5469C121.088 26.3651 121.32 26.2741 121.589 26.2741C121.859 26.2741 122.089 26.3651 122.28 26.5469C122.473 26.7259 122.57 26.9403 122.57 27.1903C122.57 27.4432 122.473 27.6605 122.28 27.8423C122.089 28.0213 121.859 28.1108 121.589 28.1108ZM126.896 38.0909C126.308 38.0909 125.804 38.0099 125.383 37.848C124.966 37.6889 124.633 37.4716 124.386 37.196C124.139 36.9205 123.978 36.6108 123.904 36.267L125.583 36.0412C125.635 36.1719 125.716 36.294 125.826 36.4077C125.937 36.5213 126.083 36.6122 126.265 36.6804C126.45 36.7514 126.674 36.7869 126.939 36.7869C127.333 36.7869 127.659 36.6903 127.914 36.4972C128.173 36.3068 128.302 35.9872 128.302 35.5384V34.3409H128.225C128.146 34.5227 128.027 34.6946 127.868 34.8565C127.708 35.0185 127.504 35.1506 127.254 35.2528C127.004 35.3551 126.706 35.4062 126.359 35.4062C125.868 35.4062 125.42 35.2926 125.017 35.0653C124.616 34.8352 124.297 34.4844 124.058 34.0128C123.822 33.5384 123.704 32.9389 123.704 32.2145C123.704 31.473 123.825 30.8537 124.066 30.3565C124.308 29.8594 124.629 29.4872 125.029 29.2401C125.433 28.9929 125.875 28.8693 126.355 28.8693C126.721 28.8693 127.028 28.9318 127.275 29.0568C127.522 29.179 127.721 29.3324 127.872 29.517C128.025 29.6989 128.143 29.8778 128.225 30.054H128.294V28.9545H130.096V35.5639C130.096 36.1207 129.96 36.5866 129.687 36.9616C129.414 37.3366 129.037 37.6179 128.554 37.8054C128.074 37.9957 127.521 38.0909 126.896 38.0909ZM126.934 34.0426C127.227 34.0426 127.474 33.9702 127.676 33.8253C127.88 33.6776 128.037 33.4673 128.145 33.1946C128.255 32.919 128.311 32.5895 128.311 32.206C128.311 31.8224 128.257 31.4901 128.149 31.2088C128.041 30.9247 127.885 30.7045 127.68 30.5483C127.475 30.392 127.227 30.3139 126.934 30.3139C126.636 30.3139 126.385 30.3949 126.18 30.5568C125.975 30.7159 125.821 30.9375 125.716 31.2216C125.61 31.5057 125.558 31.8338 125.558 32.206C125.558 32.5838 125.61 32.9105 125.716 33.1861C125.824 33.4588 125.978 33.6705 126.18 33.821C126.385 33.9687 126.636 34.0426 126.934 34.0426ZM133.356 31.7159V35.5H131.541V28.9545H133.271V30.1094H133.348C133.493 29.7287 133.735 29.4276 134.076 29.206C134.417 28.9815 134.831 28.8693 135.316 28.8693C135.771 28.8693 136.167 28.9688 136.505 29.1676C136.843 29.3665 137.106 29.6506 137.294 30.0199C137.481 30.3864 137.575 30.8239 137.575 31.3324V35.5H135.76V31.6562C135.762 31.2557 135.66 30.9432 135.453 30.7188C135.245 30.4915 134.96 30.3778 134.596 30.3778C134.352 30.3778 134.136 30.4304 133.949 30.5355C133.764 30.6406 133.619 30.794 133.514 30.9957C133.412 31.1946 133.359 31.4347 133.356 31.7159Z" fill="#0D0C22"/>
</svg>
