<svg width="155" height="48" viewBox="0 0 155 48" fill="none" xmlns="http://www.w3.org/2000/svg">
<path fill-rule="evenodd" clip-rule="evenodd" d="M24.0403 47.5635C37.1746 47.5635 47.8221 36.9161 47.8221 23.7818C47.8221 10.6475 37.1746 0 24.0403 0C10.906 0 0.258545 10.6475 0.258545 23.7818C0.258545 36.9161 10.906 47.5635 24.0403 47.5635ZM25.6509 11.2843C27.6145 10.4016 29.8706 10.4468 31.7972 11.4073C34.6478 12.8284 34.5884 16.916 31.6977 18.2536L25.2845 21.2212C24.6722 21.5046 23.9637 21.4916 23.3622 21.1859L17.3333 18.1222C16.7066 17.8038 15.9403 18.0537 15.6219 18.6804C15.3034 19.3071 15.5533 20.0734 16.18 20.3918L23.1615 23.9396C23.8569 24.293 24.676 24.308 25.3839 23.9804L32.7668 20.564C37.595 18.3298 37.6943 11.5026 32.9331 9.12895C30.3232 7.8278 27.2671 7.76662 24.6072 8.96227L11.4894 14.8588C10.5753 15.2697 9.98731 16.1786 9.98731 17.1808V21.369C9.98731 22.3343 10.5333 23.2167 11.3973 23.6474L23.1529 29.508C23.8682 29.8646 24.7094 29.8646 25.4247 29.508L34.883 24.7927C35.417 24.5265 36.0445 24.9148 36.0445 25.5114C36.0445 25.816 35.8722 26.0943 35.5997 26.2302L25.2713 31.3793C24.6526 31.6877 23.925 31.6877 23.3063 31.3793L13.669 26.5747C11.9764 25.7309 9.98731 26.9619 9.98731 28.8531V31.1119C9.98731 32.0772 10.5333 32.9595 11.3973 33.3902L23.1573 39.2531C23.8677 39.6072 24.7026 39.6098 25.4151 39.2599L34.4177 34.84C35.0487 34.5302 35.3091 33.7675 34.9993 33.1364C34.6895 32.5054 33.9267 32.2449 33.2957 32.5548L25.2711 36.4946C24.6548 36.7971 23.9326 36.7949 23.3181 36.4886L13.0929 31.3909C12.7499 31.2199 12.5331 30.8696 12.5331 30.4864C12.5331 29.7355 13.3229 29.2468 13.9948 29.5818L23.153 34.1475C23.8682 34.5041 24.7094 34.5041 25.4247 34.1475L37.1803 28.2868C38.0443 27.8561 38.5903 26.9738 38.5903 26.0085V24.2136C38.5903 22.3224 36.6012 21.0915 34.9086 21.9353L25.2713 26.7398C24.6526 27.0483 23.925 27.0483 23.3063 26.7398L13.7527 21.977C13.0054 21.6044 12.5331 20.8413 12.5331 20.0063V18.6052C12.5331 17.7384 13.0417 16.9522 13.8323 16.5968L25.6509 11.2843Z" fill="#A1A1AA"/>
<path d="M62.6853 16.9621V22.0323H69.4937V25.2482H62.6853V30.608H70.3629V33.9109H58.6292V13.6593H70.3629V16.9621H62.6853Z" fill="#A1A1AA"/>
<path d="M76.9461 20.207C77.4676 19.4344 78.1823 18.8067 79.0901 18.3238C80.0172 17.841 81.0699 17.5995 82.2481 17.5995C83.6194 17.5995 84.8556 17.9375 85.9565 18.6135C87.0768 19.2896 87.9556 20.2553 88.593 21.5108C89.2497 22.7469 89.578 24.1859 89.578 25.8276C89.578 27.4694 89.2497 28.9277 88.593 30.2024C87.9556 31.4579 87.0768 32.4333 85.9565 33.1286C84.8556 33.824 83.6194 34.1716 82.2481 34.1716C81.0505 34.1716 79.9979 33.9398 79.0901 33.4763C78.2016 32.9934 77.487 32.3753 76.9461 31.6221V33.9109H72.89V12.4714H76.9461V20.207ZM85.435 25.8276C85.435 24.8619 85.2322 24.0313 84.8266 23.336C84.4403 22.6214 83.9188 22.0806 83.2621 21.7136C82.6247 21.3466 81.9294 21.1631 81.1761 21.1631C80.4421 21.1631 79.7468 21.3562 79.0901 21.7425C78.4527 22.1095 77.9312 22.6503 77.5256 23.365C77.1393 24.0796 76.9461 24.9198 76.9461 25.8856C76.9461 26.8513 77.1393 27.6915 77.5256 28.4062C77.9312 29.1208 78.4527 29.6713 79.0901 30.0576C79.7468 30.4245 80.4421 30.608 81.1761 30.608C81.9294 30.608 82.6247 30.4149 83.2621 30.0286C83.9188 29.6423 84.4403 29.0918 84.8266 28.3772C85.2322 27.6625 85.435 26.8127 85.435 25.8276Z" fill="#A1A1AA"/>
<path d="M98.4938 34.1716C96.9486 34.1716 95.5579 33.8336 94.3218 33.1576C93.0856 32.4623 92.1102 31.4869 91.3956 30.2314C90.7003 28.9759 90.3526 27.5273 90.3526 25.8856C90.3526 24.2438 90.7099 22.7952 91.4246 21.5397C92.1585 20.2843 93.1532 19.3185 94.4087 18.6425C95.6642 17.9472 97.0645 17.5995 98.6097 17.5995C100.155 17.5995 101.555 17.9472 102.811 18.6425C104.066 19.3185 105.051 20.2843 105.766 21.5397C106.5 22.7952 106.867 24.2438 106.867 25.8856C106.867 27.5273 106.49 28.9759 105.737 30.2314C105.003 31.4869 103.999 32.4623 102.724 33.1576C101.468 33.8336 100.058 34.1716 98.4938 34.1716ZM98.4938 30.637C99.2277 30.637 99.9134 30.4632 100.551 30.1155C101.208 29.7485 101.729 29.2077 102.115 28.4931C102.502 27.7784 102.695 26.9093 102.695 25.8856C102.695 24.3597 102.289 23.1912 101.478 22.3799C100.686 21.5494 99.7106 21.1341 98.5517 21.1341C97.3928 21.1341 96.4174 21.5494 95.6255 22.3799C94.8529 23.1912 94.4666 24.3597 94.4666 25.8856C94.4666 27.4114 94.8433 28.5896 95.5966 29.4202C96.3692 30.2314 97.3349 30.637 98.4938 30.637Z" fill="#A1A1AA"/>
<path d="M115.81 34.1716C114.265 34.1716 112.874 33.8336 111.638 33.1576C110.402 32.4623 109.427 31.4869 108.712 30.2314C108.017 28.9759 107.669 27.5273 107.669 25.8856C107.669 24.2438 108.026 22.7952 108.741 21.5397C109.475 20.2843 110.47 19.3185 111.725 18.6425C112.981 17.9472 114.381 17.5995 115.926 17.5995C117.471 17.5995 118.872 17.9472 120.127 18.6425C121.383 19.3185 122.368 20.2843 123.082 21.5397C123.816 22.7952 124.183 24.2438 124.183 25.8856C124.183 27.5273 123.807 28.9759 123.053 30.2314C122.319 31.4869 121.315 32.4623 120.04 33.1576C118.785 33.8336 117.375 34.1716 115.81 34.1716ZM115.81 30.637C116.544 30.637 117.23 30.4632 117.867 30.1155C118.524 29.7485 119.046 29.2077 119.432 28.4931C119.818 27.7784 120.011 26.9093 120.011 25.8856C120.011 24.3597 119.606 23.1912 118.794 22.3799C118.003 21.5494 117.027 21.1341 115.868 21.1341C114.709 21.1341 113.734 21.5494 112.942 22.3799C112.169 23.1912 111.783 24.3597 111.783 25.8856C111.783 27.4114 112.16 28.5896 112.913 29.4202C113.686 30.2314 114.651 30.637 115.81 30.637Z" fill="#A1A1AA"/>
<path d="M135.503 33.9109L130.056 27.0734V33.9109H126V12.4714H130.056V24.6687L135.445 17.8603H140.718L133.648 25.9145L140.776 33.9109H135.503Z" fill="#A1A1AA"/>
<path d="M147.902 34.1716C146.589 34.1716 145.411 33.9398 144.368 33.4763C143.325 32.9934 142.494 32.3464 141.876 31.5351C141.277 30.7239 140.949 29.8258 140.891 28.8407H144.976C145.053 29.4588 145.353 29.9706 145.874 30.3763C146.415 30.7819 147.081 30.9847 147.873 30.9847C148.646 30.9847 149.245 30.8302 149.67 30.5211C150.114 30.2121 150.336 29.8161 150.336 29.3333C150.336 28.8118 150.066 28.4255 149.525 28.1744C149.003 27.904 148.163 27.6142 147.004 27.3052C145.807 27.0155 144.822 26.7161 144.049 26.4071C143.296 26.098 142.639 25.6248 142.079 24.9874C141.538 24.35 141.268 23.4905 141.268 22.4089C141.268 21.5204 141.519 20.7092 142.021 19.9752C142.542 19.2413 143.276 18.6618 144.223 18.2369C145.189 17.812 146.318 17.5995 147.613 17.5995C149.525 17.5995 151.051 18.0824 152.19 19.0481C153.33 19.9946 153.957 21.279 154.073 22.9014H150.191C150.133 22.264 149.863 21.7619 149.38 21.3949C148.916 21.0086 148.289 20.8154 147.497 20.8154C146.763 20.8154 146.193 20.9506 145.787 21.221C145.401 21.4914 145.208 21.8681 145.208 22.351C145.208 22.8918 145.478 23.307 146.019 23.5968C146.56 23.8672 147.4 24.1472 148.54 24.437C149.699 24.7267 150.655 25.0261 151.408 25.3351C152.161 25.6441 152.808 26.127 153.349 26.7837C153.909 27.4211 154.199 28.2709 154.218 29.3333C154.218 30.2604 153.957 31.0909 153.436 31.8249C152.934 32.5588 152.2 33.1383 151.234 33.5632C150.288 33.9688 149.177 34.1716 147.902 34.1716Z" fill="#A1A1AA"/>
</svg>
