<svg width="143" height="38" viewBox="0 0 143 38" fill="none" xmlns="http://www.w3.org/2000/svg">
<path d="M51.6873 7.29199H56.0604V30.8396H51.6873V7.29199Z" fill="#A1A1AA"/>
<path d="M70.5367 12.6743C72.8017 12.6743 74.6182 13.3359 75.9863 14.659C77.3543 15.9822 78.0383 17.9445 78.0383 20.5459V30.8396H73.8333V21.0842C73.8333 19.5143 73.4633 18.337 72.7232 17.552C71.9832 16.7447 70.9291 16.341 69.5611 16.341C68.0137 16.341 66.7915 16.812 65.8944 17.7539C64.9974 18.6733 64.5488 20.0077 64.5488 21.757V30.8396H60.3439V12.8761H64.347V15.1973C65.0422 14.3675 65.9168 13.7396 66.9709 13.3135C68.0249 12.8874 69.2135 12.6743 70.5367 12.6743Z" fill="#A1A1AA"/>
<path d="M98.1817 12.8761L90.4783 30.8396H86.1388L78.4354 12.8761H82.8085L88.3926 26.1974L94.145 12.8761H98.1817Z" fill="#A1A1AA"/>
<path d="M115.522 21.9588C115.522 22.2503 115.5 22.6652 115.455 23.2035H101.36C101.607 24.5266 102.246 25.5806 103.277 26.3656C104.331 27.1281 105.632 27.5093 107.179 27.5093C109.153 27.5093 110.779 26.8589 112.057 25.5582L114.311 28.1485C113.504 29.1128 112.483 29.8416 111.25 30.335C110.016 30.8284 108.626 31.0751 107.079 31.0751C105.105 31.0751 103.367 30.6826 101.864 29.8977C100.362 29.1128 99.1957 28.0251 98.366 26.6347C97.5586 25.2218 97.1549 23.6296 97.1549 21.8579C97.1549 20.1086 97.5474 18.5388 98.3323 17.1484C99.1397 15.7355 100.25 14.6366 101.663 13.8517C103.075 13.0668 104.668 12.6743 106.439 12.6743C108.189 12.6743 109.747 13.0668 111.115 13.8517C112.506 14.6142 113.582 15.7019 114.345 17.1147C115.13 18.5051 115.522 20.1198 115.522 21.9588ZM106.439 16.0383C105.094 16.0383 103.95 16.4419 103.008 17.2493C102.089 18.0342 101.528 19.0882 101.326 20.4114H111.519C111.34 19.1107 110.79 18.0566 109.871 17.2493C108.951 16.4419 107.807 16.0383 106.439 16.0383Z" fill="#A1A1AA"/>
<path d="M121.882 15.5C123.093 13.6162 125.224 13.0107 128.274 13.0107V16.3746C127.915 16.3074 127.59 16.2737 127.298 16.2737C125.661 16.2737 124.383 17.0587 123.463 18.023C122.544 18.9649 122.084 20.3329 122.084 22.127V30.8396H117.879V12.8761H121.882V15.5Z" fill="#A1A1AA"/>
<path d="M142.46 29.8641C141.967 30.2677 141.361 30.5705 140.644 30.7723C139.948 30.9742 139.208 31.0751 138.423 31.0751C136.45 31.0751 134.925 30.5593 133.848 29.5277C132.772 28.4961 132.234 26.9935 132.234 25.02V16.3746H129.274V13.0107H132.234V8.90669H136.439V13.0107H141.249V16.3746H136.439V24.9191C136.439 25.7937 136.652 26.4665 137.078 26.9374C137.504 27.386 138.121 27.6102 138.928 27.6102C139.87 27.6102 140.655 27.3635 141.283 26.8702L142.46 29.8641Z" fill="#A1A1AA"/>
<path fill-rule="evenodd" clip-rule="evenodd" d="M38.0032 18.7817C38.0032 28.999 29.4966 37.2817 19.0032 37.2817C8.50976 37.2817 0.00317383 28.999 0.00317383 18.7817C0.00317383 8.56447 8.50976 0.281738 19.0032 0.281738C29.4966 0.281738 38.0032 8.56447 38.0032 18.7817ZM32.032 18.7818C32.032 25.7879 26.1989 31.4675 19.0034 31.4675C18.5045 31.4675 18.0122 31.4402 17.528 31.387C24.0759 30.717 29.179 25.3245 29.179 18.7714C29.179 12.251 24.1266 6.87957 17.6258 6.16611C18.0785 6.11979 18.5381 6.09604 19.0034 6.09604C26.1989 6.09604 32.032 11.7756 32.032 18.7818ZM14.796 27.7172C19.0901 26.9788 22.3561 23.2592 22.3561 18.7817C22.3561 14.3042 19.0901 10.5846 14.796 9.8463C15.3156 9.75874 15.85 9.71311 16.3953 9.71311C21.5391 9.71311 25.709 13.7733 25.709 18.7817C25.709 23.7902 21.5391 27.8504 16.3953 27.8504C15.85 27.8504 15.3156 27.8047 14.796 27.7172Z" fill="#A1A1AA"/>
</svg>
