<svg width="168" height="47" viewBox="0 0 168 47" fill="none" xmlns="http://www.w3.org/2000/svg">
<path opacity="0.8" d="M24.4238 19.1101H36.4892L24.4238 0.864903H12.3584L24.4238 19.1101Z" fill="#A1A1AA"/>
<path opacity="0.9" d="M12.0672 19.1101H0.00181627L12.0672 0.864903H24.1326L12.0672 19.1101Z" fill="#A1A1AA"/>
<path opacity="0.6" d="M24.4255 37.3557L24.4255 19.1105L36.4909 19.1105L36.4909 37.3557L24.4255 37.3557Z" fill="#A1A1AA"/>
<path d="M2.20244e-07 37.3557L0 19.1105L12.0654 19.1105L12.0654 37.3557L2.20244e-07 37.3557Z" fill="#A1A1AA"/>
<path d="M67.3379 12.5508V37.3789H62.3581V26.8145H51.7225V37.3789H46.7427V12.5508H51.7225V22.7595H62.3581V12.5508H67.3379Z" fill="#A1A1AA"/>
<path d="M79.5669 37.6991C77.6698 37.6991 75.9625 37.2841 74.4448 36.4541C72.9271 35.6004 71.7296 34.4029 70.8522 32.8615C69.9985 31.3201 69.5716 29.5416 69.5716 27.5259C69.5716 25.5103 70.0104 23.7317 70.8878 22.1904C71.7889 20.649 73.0101 19.4633 74.5515 18.6333C76.0929 17.7796 77.8121 17.3528 79.7092 17.3528C81.6063 17.3528 83.3255 17.7796 84.8669 18.6333C86.4083 19.4633 87.6177 20.649 88.4951 22.1904C89.3962 23.7317 89.8468 25.5103 89.8468 27.5259C89.8468 29.5416 89.3844 31.3201 88.4595 32.8615C87.5584 34.4029 86.3253 35.6004 84.7602 36.4541C83.2188 37.2841 81.4877 37.6991 79.5669 37.6991ZM79.5669 33.3595C80.4681 33.3595 81.3099 33.146 82.0924 32.7192C82.8987 32.2686 83.539 31.6047 84.0132 30.7273C84.4875 29.8499 84.7246 28.7827 84.7246 27.5259C84.7246 25.6525 84.2267 24.2179 83.2307 23.2219C82.2584 22.2022 81.0609 21.6924 79.6381 21.6924C78.2153 21.6924 77.0177 22.2022 76.0455 23.2219C75.0969 24.2179 74.6226 25.6525 74.6226 27.5259C74.6226 29.3993 75.0851 30.8458 76.0099 31.8655C76.9584 32.8615 78.1441 33.3595 79.5669 33.3595Z" fill="#A1A1AA"/>
<path d="M116.549 17.3884C118.968 17.3884 120.913 18.1353 122.383 19.6293C123.877 21.0995 124.624 23.1626 124.624 25.8185V37.3789H119.644V26.4944C119.644 24.953 119.253 23.7792 118.47 22.9729C117.688 22.1429 116.62 21.7279 115.269 21.7279C113.917 21.7279 112.838 22.1429 112.032 22.9729C111.249 23.7792 110.858 24.953 110.858 26.4944V37.3789H105.878V26.4944C105.878 24.953 105.487 23.7792 104.704 22.9729C103.922 22.1429 102.855 21.7279 101.503 21.7279C100.128 21.7279 99.0368 22.1429 98.2306 22.9729C97.448 23.7792 97.0567 24.953 97.0567 26.4944V37.3789H92.0769V17.6729H97.0567V20.0561C97.697 19.2262 98.5151 18.574 99.5111 18.0998C100.531 17.6255 101.645 17.3884 102.855 17.3884C104.396 17.3884 105.771 17.7203 106.981 18.3843C108.19 19.0246 109.127 19.9494 109.791 21.1588C110.431 20.0206 111.356 19.1076 112.565 18.4199C113.799 17.7322 115.126 17.3884 116.549 17.3884Z" fill="#A1A1AA"/>
<path d="M146.245 27.0991C146.245 27.8105 146.198 28.4508 146.103 29.0199H131.697C131.816 30.4427 132.314 31.5572 133.191 32.3635C134.068 33.1698 135.147 33.5729 136.428 33.5729C138.278 33.5729 139.594 32.7785 140.376 31.1897H145.747C145.178 33.0868 144.087 34.6519 142.475 35.885C140.862 37.0944 138.882 37.6991 136.535 37.6991C134.638 37.6991 132.93 37.2841 131.412 36.4541C129.919 35.6004 128.745 34.4029 127.891 32.8615C127.061 31.3201 126.646 29.5416 126.646 27.5259C126.646 25.4866 127.061 23.6962 127.891 22.1548C128.721 20.6134 129.883 19.4277 131.377 18.5978C132.871 17.7678 134.59 17.3528 136.535 17.3528C138.408 17.3528 140.08 17.7559 141.55 18.5622C143.044 19.3684 144.194 20.5186 145 22.0125C145.83 23.4828 146.245 25.1783 146.245 27.0991ZM141.088 25.6763C141.064 24.3957 140.601 23.376 139.7 22.6172C138.799 21.8347 137.697 21.4434 136.392 21.4434C135.159 21.4434 134.116 21.8228 133.262 22.5816C132.432 23.3168 131.922 24.3483 131.733 25.6763H141.088Z" fill="#A1A1AA"/>
<path d="M167.31 17.6729L155.109 46.6984H149.809L154.077 36.8809L146.181 17.6729H151.765L156.852 31.4387L162.01 17.6729H167.31Z" fill="#A1A1AA"/>
</svg>
