<svg width="188" height="36" viewBox="0 0 188 36" fill="none" xmlns="http://www.w3.org/2000/svg">
<path d="M152.806 1.63916V33.5156H157.894V1.63916H152.806Z" fill="#A1A1AA"/>
<path fill-rule="evenodd" clip-rule="evenodd" d="M106.795 34.0301C104.788 34.0301 103.11 33.6013 101.763 32.7437C101.616 32.6499 101.472 32.5524 101.333 32.4511V33.5156H96.8432V2.15371H101.969V15.5891C103.226 14.8478 104.748 14.4772 106.534 14.4772C108.467 14.4772 110.15 14.9002 111.584 15.7464C113.019 16.5925 114.129 17.7531 114.914 19.2282C115.712 20.6918 116.112 22.367 116.112 24.2536C116.112 26.106 115.719 27.7697 114.933 29.2448C114.16 30.7198 113.075 31.8861 111.678 32.7437C110.281 33.6013 108.654 34.0301 106.795 34.0301ZM101.782 21.3036C101.483 22.1497 101.333 23.1331 101.333 24.2536C101.333 25.3742 101.483 26.3576 101.782 27.2037C102.081 28.0499 102.568 28.7074 103.241 29.1762C103.927 29.645 104.837 29.8794 105.972 29.8794C107.07 29.8794 107.968 29.6278 108.666 29.1247C109.365 28.6216 109.882 27.947 110.219 27.1008C110.556 26.2432 110.724 25.2942 110.724 24.2536C110.724 23.2245 110.549 22.2869 110.2 21.4408C109.851 20.5832 109.308 19.9028 108.573 19.3997C107.849 18.8852 106.92 18.6279 105.785 18.6279C104.725 18.6279 103.865 18.8623 103.204 19.3311C102.555 19.7999 102.081 20.4574 101.782 21.3036Z" fill="#A1A1AA"/>
<path d="M88.7986 22.5728V33.5156H93.8869V21.3379C93.8869 19.3139 93.2945 17.6788 92.1098 16.4325C90.9374 15.1747 89.1977 14.5458 86.8905 14.5458C85.5436 14.5458 84.3151 14.8202 83.2052 15.369C82.189 15.8667 81.3599 16.5506 80.7179 17.4207C80.2392 16.631 79.578 15.9814 78.7342 15.472C77.724 14.8545 76.427 14.5458 74.8431 14.5458C73.4588 14.5458 72.2054 14.8259 71.083 15.3862C70.2348 15.8144 69.5177 16.3594 68.9317 17.0212V14.9917H64.442V33.5156H69.5677V22.2984C69.5677 21.2349 69.8857 20.3716 70.5218 19.7084C71.1703 19.0338 72.0246 18.6965 73.0846 18.6965C74.1946 18.6965 75.0614 19.0395 75.6849 19.7256C76.321 20.4002 76.639 21.3493 76.639 22.5728V33.5156H81.7273V22.2984C81.7273 21.5894 81.8707 20.9662 82.1576 20.4288C82.4569 19.88 82.8685 19.4569 83.3923 19.1596C83.916 18.8509 84.5334 18.6965 85.2443 18.6965C86.3542 18.6965 87.221 19.0395 87.8445 19.7256C88.4806 20.4002 88.7986 21.3493 88.7986 22.5728Z" fill="#A1A1AA"/>
<path d="M46.2122 33.3269C47.2099 33.8186 48.5007 34.0644 50.0846 34.0644C52.0675 34.0644 53.7075 33.6699 55.0045 32.8809C55.6201 32.5101 56.1626 32.0849 56.6321 31.6054V33.5156H61.1218V14.9917H55.996V24.3909C55.996 25.5343 55.8526 26.4605 55.5658 27.1694C55.2914 27.8669 54.9359 28.3986 54.4995 28.7645C54.063 29.119 53.5953 29.3591 53.0964 29.4849C52.5976 29.6107 52.1299 29.6736 51.6934 29.6736C50.6084 29.6736 49.7666 29.4506 49.1679 29.0047C48.5818 28.5587 48.1577 28.0041 47.8958 27.3409C47.6339 26.6777 47.4781 26.0203 47.4282 25.3685C47.3783 24.7053 47.3533 24.1622 47.3533 23.7391V14.9917H42.1902V25.3856C42.1902 25.6944 42.2151 26.186 42.265 26.8607C42.3149 27.5353 42.4583 28.2843 42.6953 29.1076C42.9322 29.9194 43.3251 30.7027 43.8738 31.4573C44.435 32.212 45.2145 32.8352 46.2122 33.3269Z" fill="#A1A1AA"/>
<path d="M118.357 14.9917V33.5156H123.483V24.0478C123.483 23.3389 123.589 22.7043 123.801 22.144C124.013 21.5723 124.325 21.0806 124.736 20.6689C125.148 20.2459 125.653 19.9085 126.252 19.657C126.85 19.394 127.517 19.2396 128.253 19.1939C129.002 19.1367 129.656 19.1882 130.218 19.3483V14.9917C129.606 14.9231 128.995 14.9117 128.384 14.9574C127.773 14.9917 127.181 15.0889 126.607 15.249C126.033 15.3976 125.503 15.6092 125.017 15.8836C124.381 16.2266 123.845 16.6611 123.408 17.1871C123.202 17.4361 123.014 17.6979 122.847 17.9726V14.9917H118.357Z" fill="#A1A1AA"/>
<path fill-rule="evenodd" clip-rule="evenodd" d="M140.931 34.0301C138.861 34.0301 137.034 33.6242 135.45 32.8123C133.878 31.989 132.644 30.8628 131.746 29.4334C130.86 27.9927 130.417 26.3462 130.417 24.4938C130.417 22.4699 130.854 20.709 131.727 19.211C132.6 17.7131 133.803 16.5525 135.337 15.7292C136.871 14.8945 138.636 14.4772 140.632 14.4772C142.752 14.4772 144.554 14.9345 146.038 15.8493C147.522 16.7641 148.619 18.0504 149.33 19.7084C150.041 21.3664 150.291 23.316 150.079 25.5572H135.892C136.051 26.6689 136.428 27.5722 137.021 28.2671C137.844 29.2048 139.048 29.6736 140.632 29.6736C141.629 29.6736 142.484 29.4735 143.194 29.0733C143.905 28.673 144.448 28.0956 144.822 27.3409L149.91 28.6788C149.15 30.3711 147.946 31.686 146.3 32.6237C144.666 33.5613 142.876 34.0301 140.931 34.0301ZM144.055 19.777C144.49 20.3187 144.782 21.0905 144.93 22.0925H136.026C136.225 21.237 136.556 20.5338 137.021 19.9829C137.844 19.0109 139.123 18.525 140.856 18.525C142.34 18.525 143.406 18.9423 144.055 19.777Z" fill="#A1A1AA"/>
<path d="M162.006 33.5156V1.63916H167.094V33.5156H162.006Z" fill="#A1A1AA"/>
<path fill-rule="evenodd" clip-rule="evenodd" d="M172.759 33.2754C173.769 33.7785 174.998 34.0301 176.444 34.0301C178.19 34.0301 179.631 33.7557 180.766 33.2068C181.67 32.765 182.525 32.11 183.328 31.2417V33.5156H187.781V22.1954C187.781 21.3493 187.743 20.5832 187.668 19.8971C187.594 19.211 187.357 18.525 186.958 17.8389C186.247 16.604 185.199 15.735 183.815 15.2318C182.43 14.7287 180.847 14.4772 179.063 14.4772C176.631 14.4772 174.711 14.9574 173.301 15.9179C171.892 16.8784 170.932 18.1248 170.421 19.657L175.022 20.9948C175.347 20.1487 175.914 19.5598 176.725 19.2282C177.535 18.8966 178.315 18.7308 179.063 18.7308C180.41 18.7308 181.37 18.9881 181.944 19.5026C182.395 19.9067 182.668 20.4906 182.765 21.2543C181.903 21.3738 181.087 21.4874 180.317 21.5951C179.007 21.7667 177.835 21.9496 176.8 22.144C175.765 22.3384 174.873 22.5613 174.125 22.8129C173.04 23.1788 172.173 23.6362 171.524 24.185C170.888 24.7225 170.427 25.3456 170.14 26.0546C169.853 26.7635 169.71 27.5468 169.71 28.4043C169.71 29.4334 169.965 30.3768 170.477 31.2344C171 32.0805 171.761 32.7609 172.759 33.2754ZM179.886 29.9137C179.25 30.211 178.465 30.3596 177.529 30.3596C176.943 30.3596 176.438 30.2796 176.014 30.1195C175.59 29.9594 175.259 29.7307 175.022 29.4334C174.798 29.1247 174.686 28.7588 174.686 28.3357C174.686 28.027 174.754 27.7469 174.892 27.4953C175.041 27.2437 175.266 27.0151 175.565 26.8092C175.877 26.592 176.282 26.3919 176.781 26.2089C177.217 26.0603 177.723 25.9231 178.296 25.7973C178.87 25.6715 179.624 25.5343 180.56 25.3856C181.161 25.2828 181.88 25.1657 182.718 25.0345C182.706 25.3607 182.685 25.7293 182.655 26.1403C182.618 26.8035 182.468 27.3867 182.206 27.8898C182.069 28.1528 181.807 28.4787 181.42 28.8674C181.046 29.2562 180.535 29.605 179.886 29.9137Z" fill="#A1A1AA"/>
<path fill-rule="evenodd" clip-rule="evenodd" d="M14.1092 15.1255H0.291504V20.6426C0.291504 28.8808 7.57546 35.5591 16.5607 35.5591C25.5459 35.5591 32.8299 28.8808 32.8299 20.6426V15.1255H18.5665L18.5665 6.33906C18.5665 2.84066 15.4733 0.00463867 11.6576 0.00463867C7.84201 0.00463781 4.74882 2.84065 4.74882 6.33906L9.20613 6.33906C9.20613 5.09769 10.3037 4.09136 11.6576 4.09136C13.0116 4.09136 14.1092 5.09769 14.1092 6.33906L14.1092 15.1255ZM14.1092 19.2122L14.1091 26.977L18.5665 26.977L18.5665 19.2122H28.3726V20.6426C28.3726 26.6237 23.0842 31.4724 16.5607 31.4724C10.0372 31.4724 4.74881 26.6237 4.74881 20.6426V19.2122H14.1092Z" fill="#A1A1AA"/>
</svg>
