<svg width="157" height="41" viewBox="0 0 157 41" fill="none" xmlns="http://www.w3.org/2000/svg">
<path d="M25.0891 8.53839C25.0891 4.26772 28.5512 0.805664 32.8218 0.805664C37.0925 0.805664 40.5546 4.26772 40.5546 8.53839C40.5546 12.8091 37.0925 16.2711 32.8218 16.2711C28.5512 16.2711 25.0891 12.8091 25.0891 8.53839Z" fill="#71717A"/>
<path d="M33.2898 19.6982V25.2629C33.2898 27.7283 33.2884 29.4723 33.1752 30.8348C33.0638 32.1767 32.8529 32.9939 32.5198 33.6351C31.871 34.8841 30.8526 35.9025 29.6036 36.5513C28.9624 36.8844 28.1452 37.0953 26.8033 37.2067C25.4408 37.3199 23.6968 37.3212 21.2314 37.3212H16.0972C13.6318 37.3212 11.8878 37.3199 10.5253 37.2067C9.18338 37.0953 8.36616 36.8844 7.725 36.5513C6.47598 35.9025 5.45757 34.8841 4.80875 33.6351C4.4757 32.9939 4.26479 32.1767 4.15335 30.8348C4.0402 29.4723 4.03882 27.7283 4.03882 25.2629V20.1287C4.03882 17.6633 4.0402 15.9193 4.15335 14.5568C4.26479 13.2149 4.4757 12.3977 4.80875 11.7565C5.45757 10.5075 6.47598 9.48906 7.725 8.84025C8.36616 8.50719 9.18338 8.29628 10.5253 8.18484C11.8878 8.07169 13.6318 8.07031 16.0972 8.07031H21.6619C21.7115 6.86568 21.952 5.71029 22.3538 4.63355L16.0207 4.63355C13.649 4.63353 11.7623 4.63352 10.2409 4.75987C8.68259 4.88928 7.35422 5.16007 6.14074 5.79042C4.26401 6.7653 2.7338 8.29551 1.75892 10.1722C1.12857 11.3857 0.857782 12.7141 0.728372 14.2724C0.602026 15.7938 0.602037 17.6805 0.602051 20.0522V25.3393C0.602037 27.7111 0.602026 29.5978 0.728372 31.1192C0.857782 32.6775 1.12857 34.0059 1.75892 35.2193C2.7338 37.0961 4.26401 38.6263 6.14074 39.6011C7.35422 40.2315 8.68259 40.5023 10.2409 40.6317C11.7623 40.758 13.6489 40.758 16.0206 40.758H21.3078C23.6795 40.758 25.5663 40.758 27.0877 40.6317C28.646 40.5023 29.9744 40.2315 31.1878 39.6011C33.0646 38.6263 34.5948 37.0961 35.5697 35.2193C36.2 34.0059 36.4708 32.6775 36.6002 31.1192C36.7265 29.5978 36.7265 27.7111 36.7265 25.3394V19.0062C35.6498 19.4081 34.4944 19.6485 33.2898 19.6982Z" fill="#A1A1AA"/>
<path d="M62.6723 19.4035C62.6723 20.4585 62.418 21.4477 61.9093 22.3709C61.4194 23.2941 60.6375 24.0383 59.5636 24.6035C58.5085 25.1688 57.1708 25.4514 55.5505 25.4514H52.2439V33.0254H48.2874V13.299H55.5505C57.0766 13.299 58.3766 13.5628 59.4505 14.0903C60.5245 14.6179 61.3252 15.3433 61.8527 16.2665C62.3991 17.1897 62.6723 18.2353 62.6723 19.4035ZM55.3809 22.2578C56.4737 22.2578 57.2838 22.0129 57.8114 21.5231C58.3389 21.0144 58.6027 20.3078 58.6027 19.4035C58.6027 17.4817 57.5288 16.5208 55.3809 16.5208H52.2439V22.2578H55.3809Z" fill="#A1A1AA"/>
<path d="M68.3076 19.7991C68.8163 18.9701 69.4757 18.3201 70.2859 17.8491C71.1149 17.3781 72.0569 17.1426 73.112 17.1426V21.297H72.0663C70.8228 21.297 69.8808 21.589 69.2402 22.1731C68.6184 22.7571 68.3076 23.7745 68.3076 25.2253V33.0254H64.351V17.3687H68.3076V19.7991Z" fill="#A1A1AA"/>
<path d="M81.5987 33.2797C80.0915 33.2797 78.7349 32.95 77.5291 32.2906C76.3233 31.6123 75.3719 30.6609 74.6747 29.4362C73.9965 28.2115 73.6573 26.7985 73.6573 25.197C73.6573 23.5955 74.0059 22.1825 74.703 20.9578C75.419 19.7332 76.3893 18.7911 77.6139 18.1317C78.8386 17.4534 80.2045 17.1143 81.7118 17.1143C83.2191 17.1143 84.585 17.4534 85.8097 18.1317C87.0343 18.7911 87.9952 19.7332 88.6923 20.9578C89.4083 22.1825 89.7662 23.5955 89.7662 25.197C89.7662 26.7985 89.3988 28.2115 88.6641 29.4362C87.9481 30.6609 86.9684 31.6123 85.7249 32.2906C84.5002 32.95 83.1249 33.2797 81.5987 33.2797ZM81.5987 29.8319C82.3147 29.8319 82.9835 29.6623 83.6053 29.3232C84.2459 28.9652 84.7546 28.4376 85.1314 27.7405C85.5082 27.0434 85.6966 26.1956 85.6966 25.197C85.6966 23.7086 85.301 22.5687 84.5097 21.7774C83.7372 20.9672 82.7857 20.5622 81.6553 20.5622C80.5248 20.5622 79.5734 20.9672 78.8009 21.7774C78.0472 22.5687 77.6704 23.7086 77.6704 25.197C77.6704 26.6854 78.0378 27.8347 78.7726 28.6449C79.5263 29.4362 80.4683 29.8319 81.5987 29.8319Z" fill="#A1A1AA"/>
<path d="M90.5207 25.1405C90.5207 23.5579 90.8316 22.1542 91.4533 20.9296C92.0939 19.7049 92.9606 18.7629 94.0533 18.1034C95.1461 17.444 96.3613 17.1143 97.699 17.1143C98.7164 17.1143 99.6867 17.3404 100.61 17.7926C101.533 18.2259 102.268 18.81 102.814 19.5448V12.1121H106.827V33.0254H102.814V30.708C102.324 31.4804 101.637 32.1022 100.751 32.5732C99.8657 33.0442 98.8389 33.2797 97.6708 33.2797C96.3519 33.2797 95.1461 32.9406 94.0533 32.2623C92.9606 31.5841 92.0939 30.6326 91.4533 29.4079C90.8316 28.1644 90.5207 26.742 90.5207 25.1405ZM102.843 25.197C102.843 24.2361 102.654 23.4166 102.277 22.7383C101.901 22.0412 101.392 21.5136 100.751 21.1557C100.111 20.7788 99.423 20.5904 98.6882 20.5904C97.9534 20.5904 97.2751 20.7694 96.6534 21.1274C96.0316 21.4854 95.5229 22.0129 95.1273 22.71C94.7505 23.3883 94.562 24.1985 94.562 25.1405C94.562 26.0825 94.7505 26.9115 95.1273 27.6275C95.5229 28.3246 96.0316 28.8616 96.6534 29.2384C97.294 29.6152 97.9722 29.8036 98.6882 29.8036C99.423 29.8036 100.111 29.6246 100.751 29.2666C101.392 28.8898 101.901 28.3623 102.277 27.684C102.654 26.9869 102.843 26.1579 102.843 25.197Z" fill="#A1A1AA"/>
<path d="M124.342 17.3687V33.0254H120.357V31.0471C119.848 31.7254 119.179 32.2623 118.35 32.658C117.54 33.0348 116.655 33.2232 115.694 33.2232C114.469 33.2232 113.386 32.9689 112.444 32.4602C111.502 31.9326 110.758 31.1696 110.211 30.171C109.684 29.1536 109.42 27.9478 109.42 26.5536V17.3687H113.377V25.9883C113.377 27.2318 113.687 28.1927 114.309 28.871C114.931 29.5304 115.779 29.8601 116.853 29.8601C117.945 29.8601 118.803 29.5304 119.424 28.871C120.046 28.1927 120.357 27.2318 120.357 25.9883V17.3687H124.342Z" fill="#A1A1AA"/>
<path d="M126.098 25.197C126.098 23.5767 126.428 22.1636 127.087 20.9578C127.746 19.7332 128.66 18.7911 129.828 18.1317C130.996 17.4534 132.334 17.1143 133.841 17.1143C135.782 17.1143 137.383 17.6042 138.646 18.5839C139.927 19.5448 140.784 20.9013 141.218 22.6535H136.95C136.724 21.9752 136.338 21.4477 135.791 21.0709C135.264 20.6752 134.604 20.4774 133.813 20.4774C132.683 20.4774 131.788 20.8919 131.128 21.7209C130.469 22.531 130.139 23.6897 130.139 25.197C130.139 26.6854 130.469 27.8442 131.128 28.6731C131.788 29.4833 132.683 29.8884 133.813 29.8884C135.415 29.8884 136.46 29.1724 136.95 27.7405H141.218C140.784 29.4362 139.927 30.7833 138.646 31.7819C137.365 32.7804 135.763 33.2797 133.841 33.2797C132.334 33.2797 130.996 32.95 129.828 32.2906C128.66 31.6123 127.746 30.6703 127.087 29.4645C126.428 28.2398 126.098 26.8173 126.098 25.197Z" fill="#A1A1AA"/>
<path d="M147.592 20.6187V28.1927C147.592 28.7202 147.715 29.1065 147.96 29.3514C148.223 29.5775 148.657 29.6906 149.26 29.6906H151.097V33.0254H148.61C145.275 33.0254 143.607 31.4051 143.607 28.1644V20.6187H141.742V17.3687H143.607V13.4969H147.592V17.3687H151.097V20.6187H147.592Z" fill="#A1A1AA"/>
<path d="M154.564 33.2232C153.848 33.2232 153.255 33.0066 152.783 32.5732C152.331 32.121 152.105 31.5652 152.105 30.9058C152.105 30.2464 152.331 29.7 152.783 29.2666C153.255 28.8145 153.848 28.5884 154.564 28.5884C155.261 28.5884 155.836 28.8145 156.288 29.2666C156.74 29.7 156.966 30.2464 156.966 30.9058C156.966 31.5652 156.74 32.121 156.288 32.5732C155.836 33.0066 155.261 33.2232 154.564 33.2232Z" fill="#A1A1AA"/>
</svg>
